<svg width="45" height="44" fill="none" xmlns="http://www.w3.org/2000/svg"><path d="M33.032 38.862c-2.053 1.935-4.295 1.63-6.453.713-2.283-.937-4.379-.978-6.788 0-3.017 1.263-4.61.896-6.411-.713-10.225-10.245-8.716-25.847 2.89-26.417 2.829.143 4.798 1.507 6.453 1.63 2.473-.49 4.84-1.895 7.48-1.711 3.164.244 5.552 1.466 7.124 3.666-6.537 3.809-4.987 12.18 1.005 14.522-1.194 3.055-2.744 6.09-5.321 8.33l.02-.02zM22.515 12.323c-.315-4.542 3.478-8.29 7.836-8.656.607 5.255-4.903 9.165-7.836 8.656z" fill="#000" opacity=".7"/></svg>