<svg width="168" height="48" fill="none" xmlns="http://www.w3.org/2000/svg"><path d="M.008 29.217a17.727 17.727 0 015.2-12.543 17.755 17.755 0 0112.552-5.196v17.74H.008z" fill="#00A4F4"/><path d="M.008 29.217c0 2.467.459 4.91 1.351 7.188A18.89 18.89 0 005.207 42.5a17.722 17.722 0 005.76 4.071A16.912 16.912 0 0017.76 48V29.217H.008z" fill="#2CBEFF"/><path d="M35.513 29.217c0 2.467-.459 4.91-1.35 7.188a18.886 18.886 0 01-3.85 6.094 17.721 17.721 0 01-5.759 4.071A16.911 16.911 0 0117.76 48V29.217h17.753z" fill="#75D4FF"/><path d="M47 13.565c0 7.492-6.078 13.565-13.576 13.565H19.85V13.565C19.849 6.073 25.927 0 33.424 0 40.922 0 47 6.073 47 13.565z" fill="#0084D4"/><path d="M64.32 36h-4.2V17.24h4.2v7.448h9.8V17.24h4.2V36h-4.2v-7.532h-9.8V36zm23.701.28c-4.676 0-7.868-2.296-7.868-7.28 0-4.48 3.164-7.308 7.784-7.308 4.592 0 7.644 2.408 7.644 6.804 0 .504-.056.868-.112 1.344H84.045c.112 2.156 1.12 3.08 3.836 3.08 2.492 0 3.36-.644 3.36-1.848v-.28h4.2v.308c0 3.052-2.968 5.18-7.42 5.18zm-.168-11.312c-2.492 0-3.556.84-3.752 2.66h7.448c-.112-1.848-1.232-2.66-3.696-2.66zm13.821 11.312c-3.024 0-4.844-1.4-4.844-3.752 0-2.072 1.54-3.36 4.536-3.668l6.02-.616v-.532c0-1.82-.812-2.324-3.052-2.324-2.128 0-2.996.56-2.996 2.156v.112H97.11v-.084c0-3.472 2.912-5.88 7.532-5.88 4.676 0 6.888 2.408 6.888 6.076V36h-3.92v-3.22h-.224c-.644 2.184-2.604 3.5-5.712 3.5zm-.616-4.032c0 .756.588 1.064 1.82 1.064 2.856 0 4.396-.672 4.508-2.66l-4.872.56c-1.008.084-1.456.364-1.456 1.036zM117.859 36h-4.2V17.24h4.2V36zm6.399 0h-4.2V17.24h4.48l6.72 8.876 2.576 3.948h.308l-.196-3.78V17.24h4.2V36h-4.48l-6.916-8.96-2.38-3.528h-.28l.168 3.444V36zm23.564.28c-4.676 0-7.868-2.296-7.868-7.28 0-4.48 3.164-7.308 7.784-7.308 4.592 0 7.644 2.408 7.644 6.804 0 .504-.056.868-.112 1.344h-11.424c.112 2.156 1.12 3.08 3.836 3.08 2.492 0 3.36-.644 3.36-1.848v-.28h4.2v.308c0 3.052-2.968 5.18-7.42 5.18zm-.168-11.312c-2.492 0-3.556.84-3.752 2.66h7.448c-.112-1.848-1.232-2.66-3.696-2.66zM167.047 36h-3.472c-3.276 0-5.264-1.54-5.264-5.068v-5.488h-2.212v-3.472h2.212v-2.716h4.2v2.716h4.536v3.472h-4.536v5.012c0 1.4.532 1.764 2.016 1.764h2.52V36z" fill="#0069AB"/></svg>