<svg width="45" height="44" fill="none" xmlns="http://www.w3.org/2000/svg"><path d="M33.594 19.983c-5.866-3.483-15.675-3.85-21.266-2.108-.917.275-1.833-.275-2.108-1.1-.276-.917.274-1.833 1.1-2.108 6.508-1.925 17.233-1.559 24.016 2.475.825.458 1.1 1.558.642 2.383-.459.642-1.559.917-2.384.458zm-.183 5.134c-.458.641-1.283.916-1.925.458-4.95-3.025-12.466-3.942-18.241-2.108-.734.183-1.559-.184-1.742-.917-.184-.733.183-1.558.916-1.742 6.692-2.016 14.942-1.008 20.625 2.475.55.275.826 1.192.367 1.834zm-2.2 5.041c-.366.55-1.008.734-1.558.367-4.308-2.658-9.717-3.208-16.133-1.742-.642.184-1.192-.275-1.375-.825-.184-.641.274-1.191.825-1.375 6.966-1.558 13.016-.916 17.783 2.017.642.275.733 1.008.458 1.558zM22.778 3.667a18.333 18.333 0 100 36.666 18.333 18.333 0 000-36.666z" fill="#000" opacity=".7"/></svg>