<svg width="45" height="44" fill="none" xmlns="http://www.w3.org/2000/svg"><path d="M11.608 26.825a3.86 3.86 0 11-3.86-3.86h3.86v3.86zm1.93 0a3.86 3.86 0 017.72 0v9.649a3.86 3.86 0 01-7.72 0v-9.65zm3.86-15.439a3.86 3.86 0 113.86-3.86v3.86h-3.86zm0 1.93a3.86 3.86 0 010 7.72h-9.65a3.86 3.86 0 010-7.72h9.65zm15.438 3.86a3.86 3.86 0 113.86 3.86h-3.86v-3.86zm-1.93 0a3.86 3.86 0 01-7.719 0v-9.65a3.86 3.86 0 117.72 0v9.65zm-3.86 15.438a3.86 3.86 0 11-3.859 3.86v-3.86h3.86zm0-1.93a3.86 3.86 0 010-7.72h9.65a3.86 3.86 0 110 7.72h-9.65z" fill="#000" opacity=".7"/></svg>