<svg width="44" height="44" fill="none" xmlns="http://www.w3.org/2000/svg"><path d="M39.111 32.541c0 1.262-.693 3.691-2.25 5.026-.312.243-.623.105-.486-.248.453-1.125 1.49-3.726 1.004-4.325-.344-.455-1.764-.42-2.976-.316-.553.071-1.038.104-1.415.182-.35.028-.42-.283-.07-.526a5.257 5.257 0 011.489-.742c1.968-.597 4.242-.238 4.569.144.062.073.135.28.135.805zm-3.29 2.244c-.45.35-.924.669-1.418.954-3.631 2.213-8.336 3.372-12.42 3.372-6.577 0-12.46-2.459-16.922-6.573-.384-.316-.067-.774.381-.526 4.81 2.846 10.761 4.567 16.922 4.567 3.878 0 8.057-.736 12.04-2.318.278-.106.59-.25.862-.35.628-.287 1.18.42.556.874zM25.264 15.644c0-1.807.072-2.87-.519-3.784-.523-.751-1.425-1.202-2.685-1.131-1.365.076-2.832.984-3.205 2.648-.074.382-.293.757-.748.838l-4.167-.538c-.298-.069-.751-.3-.602-.904.895-4.774 4.918-6.438 8.724-6.662h.893c2.088 0 4.772.606 6.488 2.194 2.083 1.971 1.86 4.62 1.86 7.497v6.814c0 2.045.818 2.95 1.64 4.016.222.38.3.828-.075 1.137a134.079 134.079 0 01-3.281 2.87c-.3.23-.837.255-1.044.078-1.318-1.12-1.64-1.74-2.456-2.877-1.42 1.511-2.613 2.346-4.032 2.799a11.86 11.86 0 01-3.053.375c-3.577 0-6.409-2.261-6.409-6.733 0-3.556 1.866-5.974 4.62-7.117 2.756-1.146 6.76-1.51 8.051-1.517m-.816 9.01c.89-1.513.816-2.752.816-5.527-1.116 0-2.235.078-3.202.309-1.788.526-3.209 1.666-3.209 4.087 0 1.891.972 3.179 2.612 3.179.226 0 .424-.028.595-.078 1.147-.323 1.862-.906 2.388-1.97z" fill="#000" opacity=".7"/></svg>