<svg width="45" height="44" fill="none" xmlns="http://www.w3.org/2000/svg"><g opacity=".8" fill="#000"><path opacity=".7" d="M23.296 10.958a9.903 9.903 0 017.009 2.742l5.258-5.258a17.618 17.618 0 00-12.267-4.775A18.326 18.326 0 006.91 13.768l6.126 4.749a10.927 10.927 0 0110.259-7.56z"/><path d="M6.911 13.768a18.357 18.357 0 000 16.464l6.126-4.749a10.84 10.84 0 010-6.966L6.91 13.768z"/><path opacity=".5" d="M29.503 31.291a11.06 11.06 0 01-16.466-5.808l-6.124 4.749a18.326 18.326 0 0016.381 10.101 17.502 17.502 0 0012.133-4.442l-5.924-4.6z"/><path opacity=".25" d="M40.562 18.667H23.296v7.091h9.867a8.431 8.431 0 01-3.66 5.533l5.926 4.602a17.88 17.88 0 005.467-13.475c0-1.26-.11-2.514-.334-3.751z"/></g></svg>