<svg width="168" height="48" viewBox="0 0 168 48" fill="none" xmlns="http://www.w3.org/2000/svg">
<path d="M0.0078125 29.2174C0.0078125 26.8879 0.466975 24.5811 1.35914 22.429C2.25131 20.2767 3.55894 18.3212 5.20743 16.6739C6.85592 15.0267 8.81289 13.72 10.9667 12.8285C13.1206 11.9372 15.4291 11.4783 17.7604 11.4783V29.2174H0.0078125Z" fill="#00A4F4"/>
<path d="M0.0078125 29.2174C0.0078125 31.684 0.466975 34.1264 1.35914 36.4053C2.25131 38.6841 3.55894 40.7546 5.20743 42.4987C6.85592 44.2428 8.81289 45.6264 10.9667 46.5703C13.1206 47.5142 15.4291 48 17.7604 48V29.2174H0.0078125Z" fill="#2CBEFF"/>
<path d="M35.513 29.2174C35.513 31.684 35.0542 34.1264 34.1621 36.4053C33.2699 38.6841 31.9623 40.7546 30.3135 42.4987C28.665 44.2428 26.708 45.6264 24.554 46.5703C22.4002 47.5142 20.0917 48 17.7604 48V29.2174H35.513Z" fill="#75D4FF"/>
<path d="M47.0001 13.5652C47.0001 21.0571 40.9219 27.1304 33.4244 27.1304H19.849V13.5652C19.849 6.07338 25.927 0 33.4244 0C40.9219 0 47.0001 6.07338 47.0001 13.5652Z" fill="#0084D4"/>
<path d="M64.32 36H60.12V17.24H64.32V24.688H74.12V17.24H78.32V36H74.12V28.468H64.32V36ZM88.0211 36.28C83.3451 36.28 80.1531 33.984 80.1531 29C80.1531 24.52 83.3171 21.692 87.9371 21.692C92.5291 21.692 95.5811 24.1 95.5811 28.496C95.5811 29 95.5251 29.364 95.4691 29.84H84.0451C84.1571 31.996 85.1651 32.92 87.8811 32.92C90.3731 32.92 91.2411 32.276 91.2411 31.072V30.792H95.4411V31.1C95.4411 34.152 92.4731 36.28 88.0211 36.28ZM87.8531 24.968C85.3611 24.968 84.2971 25.808 84.1011 27.628H91.5491C91.4371 25.78 90.3171 24.968 87.8531 24.968ZM101.674 36.28C98.6502 36.28 96.8302 34.88 96.8302 32.528C96.8302 30.456 98.3702 29.168 101.366 28.86L107.386 28.244V27.712C107.386 25.892 106.574 25.388 104.334 25.388C102.206 25.388 101.338 25.948 101.338 27.544V27.656H97.1102V27.572C97.1102 24.1 100.022 21.692 104.642 21.692C109.318 21.692 111.53 24.1 111.53 27.768V36H107.61V32.78H107.386C106.742 34.964 104.782 36.28 101.674 36.28ZM101.058 32.248C101.058 33.004 101.646 33.312 102.878 33.312C105.734 33.312 107.274 32.64 107.386 30.652L102.514 31.212C101.506 31.296 101.058 31.576 101.058 32.248ZM117.859 36H113.659V17.24H117.859V36ZM124.258 36H120.058V17.24H124.538L131.258 26.116L133.834 30.064H134.142L133.946 26.284V17.24H138.146V36H133.666L126.75 27.04L124.37 23.512H124.09L124.258 26.956V36ZM147.822 36.28C143.146 36.28 139.954 33.984 139.954 29C139.954 24.52 143.118 21.692 147.738 21.692C152.33 21.692 155.382 24.1 155.382 28.496C155.382 29 155.326 29.364 155.27 29.84H143.846C143.958 31.996 144.966 32.92 147.682 32.92C150.174 32.92 151.042 32.276 151.042 31.072V30.792H155.242V31.1C155.242 34.152 152.274 36.28 147.822 36.28ZM147.654 24.968C145.162 24.968 144.098 25.808 143.902 27.628H151.35C151.238 25.78 150.118 24.968 147.654 24.968ZM167.047 36H163.575C160.299 36 158.311 34.46 158.311 30.932V25.444H156.099V21.972H158.311V19.256H162.511V21.972H167.047V25.444H162.511V30.456C162.511 31.856 163.043 32.22 164.527 32.22H167.047V36Z" fill="#0069AB"/>
</svg>
