<svg width="45" height="44" viewBox="0 0 45 44" fill="none" xmlns="http://www.w3.org/2000/svg">
<g opacity="0.7">
<path d="M11.6082 26.8246C11.6082 27.8482 11.2016 28.8299 10.4777 29.5537C9.75392 30.2776 8.77221 30.6842 7.74857 30.6842C6.72492 30.6842 5.74321 30.2776 5.01938 29.5537C4.29556 28.8299 3.88892 27.8482 3.88892 26.8246C3.88892 25.8009 4.29556 24.8192 5.01938 24.0954C5.74321 23.3715 6.72492 22.9649 7.74857 22.9649H11.6082V26.8246ZM13.538 26.8246C13.538 25.8009 13.9447 24.8192 14.6685 24.0954C15.3923 23.3715 16.374 22.9649 17.3977 22.9649C18.4213 22.9649 19.403 23.3715 20.1269 24.0954C20.8507 24.8192 21.2573 25.8009 21.2573 26.8246V36.4737C21.2573 37.4973 20.8507 38.479 20.1269 39.2029C19.403 39.9267 18.4213 40.3333 17.3977 40.3333C16.374 40.3333 15.3923 39.9267 14.6685 39.2029C13.9447 38.479 13.538 37.4973 13.538 36.4737V26.8246ZM17.3977 11.386C16.374 11.386 15.3923 10.9793 14.6685 10.2555C13.9447 9.53167 13.538 8.54995 13.538 7.52631C13.538 6.50266 13.9447 5.52095 14.6685 4.79712C15.3923 4.0733 16.374 3.66666 17.3977 3.66666C18.4213 3.66666 19.403 4.0733 20.1269 4.79712C20.8507 5.52095 21.2573 6.50266 21.2573 7.52631V11.386H17.3977ZM17.3977 13.3158C18.4213 13.3158 19.403 13.7224 20.1269 14.4462C20.8507 15.1701 21.2573 16.1518 21.2573 17.1754C21.2573 18.1991 20.8507 19.1808 20.1269 19.9046C19.403 20.6284 18.4213 21.0351 17.3977 21.0351H7.74857C6.72492 21.0351 5.74321 20.6284 5.01938 19.9046C4.29556 19.1808 3.88892 18.1991 3.88892 17.1754C3.88892 16.1518 4.29556 15.1701 5.01938 14.4462C5.74321 13.7224 6.72492 13.3158 7.74857 13.3158H17.3977ZM32.8363 17.1754C32.8363 16.1518 33.2429 15.1701 33.9668 14.4462C34.6906 13.7224 35.6723 13.3158 36.6959 13.3158C37.7196 13.3158 38.7013 13.7224 39.4251 14.4462C40.1489 15.1701 40.5556 16.1518 40.5556 17.1754C40.5556 18.1991 40.1489 19.1808 39.4251 19.9046C38.7013 20.6284 37.7196 21.0351 36.6959 21.0351H32.8363V17.1754ZM30.9065 17.1754C30.9065 18.1991 30.4998 19.1808 29.776 19.9046C29.0522 20.6284 28.0705 21.0351 27.0468 21.0351C26.0232 21.0351 25.0415 20.6284 24.3176 19.9046C23.5938 19.1808 23.1872 18.1991 23.1872 17.1754V7.52631C23.1872 6.50266 23.5938 5.52095 24.3176 4.79712C25.0415 4.0733 26.0232 3.66666 27.0468 3.66666C28.0705 3.66666 29.0522 4.0733 29.776 4.79712C30.4998 5.52095 30.9065 6.50266 30.9065 7.52631V17.1754ZM27.0468 32.614C28.0705 32.614 29.0522 33.0207 29.776 33.7445C30.4998 34.4683 30.9065 35.45 30.9065 36.4737C30.9065 37.4973 30.4998 38.479 29.776 39.2029C29.0522 39.9267 28.0705 40.3333 27.0468 40.3333C26.0232 40.3333 25.0415 39.9267 24.3176 39.2029C23.5938 38.479 23.1872 37.4973 23.1872 36.4737V32.614H27.0468ZM27.0468 30.6842C26.0232 30.6842 25.0415 30.2776 24.3176 29.5537C23.5938 28.8299 23.1872 27.8482 23.1872 26.8246C23.1872 25.8009 23.5938 24.8192 24.3176 24.0954C25.0415 23.3715 26.0232 22.9649 27.0468 22.9649H36.6959C37.7196 22.9649 38.7013 23.3715 39.4251 24.0954C40.1489 24.8192 40.5556 25.8009 40.5556 26.8246C40.5556 27.8482 40.1489 28.8299 39.4251 29.5537C38.7013 30.2776 37.7196 30.6842 36.6959 30.6842H27.0468Z" fill="black"/>
</g>
</svg>
