<svg width="22" height="23" fill="none" xmlns="http://www.w3.org/2000/svg"><path d="M14.668 15.985l1.894-1.895a1.852 1.852 0 011.979-.406l2.309.922A1.844 1.844 0 0122 16.298v4.23a1.837 1.837 0 01-1.928 1.82C3.893 21.34.629 7.635.012 2.389A1.837 1.837 0 011.845.35H5.93A1.826 1.826 0 017.623 1.5l.922 2.31a1.828 1.828 0 01-.398 1.98L6.253 7.685s1.09 7.387 8.415 8.3z" fill="url(#paint0_linear_70_77)"/><defs><linearGradient id="paint0_linear_70_77" x1="-121.5" y1="14.35" x2="13.946" y2="31.925" gradientUnits="userSpaceOnUse"><stop stop-color="#007DAA"/><stop offset=".627" stop-color="#15B2FF"/></linearGradient></defs></svg>