<svg width="45" height="44" fill="none" xmlns="http://www.w3.org/2000/svg"><path d="M10.328 10.094c1.182.925 1.63.86 3.863.716L35.236 9.6c.448 0 .075-.43-.075-.502l-3.497-2.423c-.665-.502-1.56-1.068-3.272-.932L8.019 7.175c-.746.065-.896.424-.597.71l2.906 2.209zm1.262 4.71V36.04c0 1.14.592 1.57 1.93 1.498l23.129-1.284c1.337-.072 1.493-.853 1.493-1.784V13.377c0-.932-.374-1.427-1.195-1.355L12.78 13.377c-.896.072-1.188.495-1.188 1.42l-.002.006zm22.831 1.132c.15.645 0 1.284-.672 1.361l-1.113.216v15.676c-.972.502-1.86.789-2.6.789-1.195 0-1.494-.359-2.383-1.427l-7.291-10.98v10.623l2.308.502s0 1.283-1.86 1.283l-5.132.286c-.15-.286 0-1.002.523-1.14l1.337-.358V18.724l-1.86-.143c-.149-.645.225-1.57 1.263-1.64l5.505-.36 7.59 11.124v-9.841l-1.936-.216c-.149-.781.442-1.354 1.189-1.42l5.132-.293zM6.31 5.25l21.193-1.5c2.6-.215 3.273-.072 4.908 1.068l6.769 4.565c1.113.781 1.487.996 1.487 1.85v25.023c0 1.57-.598 2.494-2.676 2.637L13.37 40.321c-1.555.072-2.302-.144-3.123-1.14l-4.984-6.207C4.372 31.834 4 30.98 4 29.984V7.745c0-1.283.597-2.351 2.308-2.494V5.25z" fill="#000" opacity=".7"/></svg>