<svg width="161" height="104" fill="none" xmlns="http://www.w3.org/2000/svg"><g clip-path="url(#clip0_116_904)"><path d="M33.446 33.962C27.631 50.92 21.815 67.915 17.882 85.713a34.016 34.016 0 009.275 1.864c1.197-4.364 2.393-8.728 3.58-13.092 0 0-.175-.139-.398-.185 2.384.48 4.545 1.836 6.363 3.516 1.818 1.679 3.33 3.69 5.009 6.006-.177 2.472 1.558 4.834 3.784 5.674 2.226.849 4.795.332 6.864-1.125a8.936 8.936 0 000 3.293c.092.47.213.941.426 1.366.446.895 1.234 1.568 2.087 2.03 1.456.784 3.172 1.033 4.916.72-.176 2.057 1.308 4.013 3.163 4.732 1.855.72 3.97.379 5.908-.378.297.711.622 1.439 1.17 1.965.62.591 1.465.849 2.3.951 1.994.24 4.062-.351 5.926-1.513 2.041 1.162 4.629 1.208 6.707.11a5.274 5.274 0 001.474-1.116c.844-.941 1.225-2.251 1.299-3.543.074-1.282-.14-2.574-.213-3.884 1.03 1.245 2.105 2.481 3.45 3.349 1.345.867 2.996 1.32 4.517.895 1.261-.36 2.337-1.301 3.033-2.464.696-1.153 1.048-2.51 1.15-4.06.51.877 1.067 1.717 1.679 2.52.566.756 1.187 1.485 1.948 2.02.76.535 1.688.867 2.597.766 1.41-.166 2.56-1.366 3.126-2.731.566-1.366.649-2.888.733-4.364.046-.858.092-1.716.055-2.593.742 1.467 1.494 2.943 2.486 4.235.992 1.292 2.245 2.417 3.747 2.98.371.139.752.24 1.132.342.612.166 1.317.304 1.846-.074.417-.305.584-.858.649-1.393.056-.526.028-1.07.325-1.606a217.02 217.02 0 0016.723-7.4c.547 2.086 1.15 4.153 1.957 6.145a49.02 49.02 0 0011.65-4.465c3.219-1.283 6.381-2.713 9.257-4.604-.464-16.792-3.2-33.806-10.556-48.753-.463-.94-.946-1.872-1.688-2.675a166.279 166.279 0 00-23.485 10.675c.213.424.427.858.408 1.328-7.828.582-15.48-2.177-22.873-4.908-2.347-.867-4.73-1.744-7.207-1.92-2.207-.156-4.406.25-6.873.471-2.616-1.66-5.547-2.712-8.496-3.57-1.78-.517-3.608-.969-5.454-.95-1.697.018-3.367.442-4.99.94-8.765 2.676-16.955 7.612-26.055 8.498.075-.636.149-1.273.214-1.919.037-.341.065-.729-.112-1.006-2.977-1.254-5.964-2.51-8.969-2.85z" fill="#fff"/><path d="M155.352 80.224c-.037 0-.065-.01-.102-.019l-8.023-3.155a.26.26 0 01-.148-.342.263.263 0 01.343-.147l8.023 3.155a.26.26 0 01.148.342c-.027.101-.129.165-.241.165zm2.718-3.147c-.028 0-.056-.009-.093-.018a119.835 119.835 0 01-13.004-5.508.27.27 0 01-.12-.36.271.271 0 01.361-.12 120.696 120.696 0 0012.949 5.49.259.259 0 01.157.341.267.267 0 01-.25.175zm.677-4.936c-.028 0-.056 0-.084-.018a183.586 183.586 0 01-14.562-5.684c-.139-.055-.195-.212-.139-.35.056-.139.223-.194.352-.139a183.778 183.778 0 0014.516 5.665.27.27 0 01.167.342.267.267 0 01-.25.184zm0-4.742c-.037 0-.065-.01-.102-.019-5.704-2.232-10.138-4.16-16.241-6.855-.139-.055-.195-.212-.139-.35.055-.139.222-.194.352-.139 6.103 2.685 10.518 4.613 16.223 6.846a.26.26 0 01.148.341c-.028.111-.13.176-.241.176zm-1.419-5.352a.337.337 0 01-.102-.018l-16.38-6.975c-.14-.055-.195-.212-.14-.35.056-.14.214-.194.353-.14l16.38 6.976c.139.055.195.212.139.35a.29.29 0 01-.25.157zm-.529-5.12a.246.246 0 01-.111-.028l-17.79-8.23c-.13-.064-.195-.221-.13-.35.065-.13.222-.194.352-.13l17.79 8.23c.13.065.195.222.13.351a.276.276 0 01-.241.157zm-1.734-6.44a.25.25 0 01-.112-.028l-17.947-8.424c-.13-.064-.195-.22-.13-.35a.268.268 0 01.352-.13l17.948 8.424c.13.065.195.222.13.351a.261.261 0 01-.241.157zm-4.035-8.424c-.037 0-.065-.01-.102-.018a387.47 387.47 0 00-13.514-5.13.258.258 0 01-.158-.341.261.261 0 01.343-.157 380.7 380.7 0 0113.533 5.13.268.268 0 01.148.35.281.281 0 01-.25.166zm-.353-5.923c-.037 0-.074-.01-.111-.019l-6.409-2.795c-.139-.056-.195-.212-.139-.35.055-.14.213-.195.352-.14l6.409 2.796c.14.056.195.213.14.351a.262.262 0 01-.242.157z" fill="#000"/><path d="M14.858 27.716c6.335 2.224 12.735 4.235 18.838 6.145-1.001 4.41-3.57 8.22-5.296 12.382-.918 2.205-1.595 4.502-2.263 6.809a1399.633 1399.633 0 00-9.034 32.44c-5.649-2.02-10.027-3.054-16.084-4.18C6.594 63.192 11.621 45.8 14.86 27.716z" fill="#ACD4F7"/><path d="M134.436 81.285c-.992.304-1.957.673-2.903 1.088a2.486 2.486 0 00-.64.056c-.482.083-.927.286-1.382.48-.501.175-.974.35-1.456.562-.195.074-.77.305-1.002.37-.074.018-.121.045-.176.064-.139.046-.288.101-.436.138h-.26a3.198 3.198 0 01-.287-.074h-.01a7.683 7.683 0 01-.575-.645c-.241-.314.028.046.121.166a8.575 8.575 0 00-.501-.637c-.056-.064-.093-.12-.13-.166-.167-.24-.315-.489-.464-.738a33.888 33.888 0 01-1.716-3.09c-1.113-2.243-2.133-4.54-3.311-6.745-.686-1.504-1.271-3.064-2.133-4.466-2.467-3.93-4.86-7.012-8.552-10.444-2.328-2.464-5.009-4.567-7.884-6.274-1.948-1.126-3.989-2.242-6.252-2.408-1.586-.379-1.966 2.076-.334 2.186 1.484.083 3.07.785 4.777 1.809-.158.406-.12.885.26 1.31 1.577 1.43 3.395 2.528 5.036 3.875-.074-.055.835.757 1.021.96.194.193.38.396.556.6a.78.78 0 00-.241.58c.111.71.872 1.55 1.224 2.215 1.809 2.87 3.933 5.545 5.464 8.59 2.031 4.18 3.506 8.34 4.183 13.94.352 1.763.547 4.974 0 5.896-.047.056-.093.111-.149.157-.046.028-.083.046-.111.065-.074.027-.139.046-.213.083-.037.009-.065.028-.102.037-.01 0-.019 0-.028.009-.149.01-.325 0-.436-.01-.056-.008-.111-.018-.167-.027-.612-.166-.278-.018-1.197-.535-1.419-.84-2.634 1.356-1.252 2.233 3.497 2.63 5.955 1.697 6.641-1.864.344-2.15.112-4.346-.25-6.486l.306.969c.204 1.273.371 2.472.529 3.542-.028.028-.056.056-.074.093-.399.655-.102 1.467.454 1.854.251.415.779.61 1.234.48.399-.13.612-.378.723-.683 3.822-1.568 7.615-3.257 11.131-5.49.825-.535.834-.59 1.521-.885.352-.157.788-.37 1.002-.71a2.04 2.04 0 00.454-.471c.659-1.449-.946-2.168-2.013-1.56zm24.45-4.125a1.39 1.39 0 00-.575.139c-.89.277-1.688.867-2.56 1.2-1.549.783-2.152.931-4.23 1.964-3.571 1.984-9.498 3.922-12.688 5.315-2.096.664-1.252 3.903.89 3.358 3.339-1.125 6.502-2.758 9.73-4.198 1.697-.82 4.935-2.039 7.624-3.413 1.253-.683 2.82-1.495 2.969-1.901.788-.932.018-2.5-1.16-2.464zM40.625 41.242c-1.354 5.12-3.747 8.913-5.51 14.55-1.066 3.294-1.873 6.661-2.485 10.075-.38 1.513-.677 3.045-.983 4.577-.223 1.356-.603 2.74-.371 4.115a2.218 2.218 0 002.903 1.55 52.997 52.997 0 002.282 2.315v-.101a49.211 49.211 0 01.046-4.53c-.306-1.061-.417-1.753-.482-2.62.296-1.67.677-3.322.872-5.01.76-5.435 2.235-10.721 3.923-15.907.51-1.55.9-3.146 1.549-4.64.454-1.348 1.206-2.722 1.206-4.171-.14-1.67-2.56-1.836-2.95-.203zm1.531 41.538c-.084.331-.39.58-.715.562.26.148.548.222.854.13.473-.13.788-.628.76-1.126-.297.147-.593.295-.9.433z" fill="#000" opacity=".129"/><path d="M31.285 74.558c-.028-.203-.056-.405-.074-.608-.01.212.018.415.074.608zM51.144 86.94c-.576.406-1.355.277-2.848.259-.992-.102-2.263-.019-3.376-.388-.733-.175-1.41-.766-2.18-.664-1.428.13-1.558 2.371-.176 2.74 1.002.406 2.013.766 3.07 1.006.89.212 1.8.424 2.699.194 1.122-.24 2.189-.739 3.19-1.31.409-.277.956-.499 1.114-1.006.213-.95-.844-1.43-1.493-.83zm15.165 2.03c-.501.175-.603.452-1.382.886-1.559.886-2.227 1.052-4.304 1.476-1.976.535-1.809.415-3.998.572a12.7 12.7 0 01-2.05-.092c-.445-.074-.89-.268-1.335-.166-1.8.184-1.957 2.952-.223 3.432 4.415 1.338 8.06 0 11.186-1.984.946-.59 1.883-1.208 2.69-2.002.436-.516.547-.424.65-1.125.018-.665-.631-1.172-1.234-.997zm18.551 9.503c-.928.139-.696.259-1.188.416-.39.11-.445.295-1.836.645-.956.176-.919.166-1.17.194a1.16 1.16 0 00.205-.885c-.037-.628-.621-1.108-1.206-1.117-.723.046-1.28.674-1.938.941-1.382.637-1.049.535-2.969 1.209-1.734.507-2.634.461-3.301.507-.631-.018-1.253-.452-1.828-.526 1.16-.47 2.273-1.116 3.33-1.799 1.215-.766 2.282-1.725 3.274-2.768.223-.203.353-.498.353-.802.009-.379-.204-.71-.501-.905a.991.991 0 00-1.224.166c.064-.055.231-.184.139-.12-.492.323-.993.637-1.494.95-2.884 1.938-6.697 3.073-9.173 3.47-.584.065-1.178.138-1.772.083-.046-.01-.074-.01-.102-.01-.018 0-.046-.008-.065-.008-.445-.047-.89-.277-1.335-.213-1.067.102-1.169 1.772-.13 2.049.937.341 1.883.673 2.866.765 1.039.12 2.096-.036 3.126-.156a8.12 8.12 0 001.642-.314c-.501.572-.483 1.642.26 2.057 2.69 1.421 5.592 1.126 8.273-.147.492-.203.965-.452 1.419-.729.019.849.65 1.698 1.558 1.661 1.68-.222 3.488-.323 4.907-1.384.417-.342.974-.628 1.16-1.172.454-.932-.307-2.076-1.28-2.058zm13.57-6.523c-1.03.545-.78.655-1.448 1.089-.992.72-.862.637-2.3 1.024-1.178.212-.464.166-1.484.185-.12 0-.232-.019-.352-.028-.13-.028-.297-.055-.418-.092-.853-.148-1.762-.812-2.597-.277-1.104.627-.872 2.5.352 2.814 1.123.35 2.282.692 3.47.609 1.41-.102 2.791-.646 3.978-1.458a20.768 20.768 0 001.624-1.365c.38-.323.751-.72.733-1.264.009-.822-.808-1.467-1.559-1.237z" fill="#000" opacity=".129"/><path d="M110.079 87.688c.009-.646-.408-1.283-1.029-1.44-.038-.009-.065-.009-.102-.018-.01-1.218.027-2.445-.269-3.626-.427-1.845-1.392-3.47-2.189-5.167-.733-1.78-1.689-3.497-2.913-4.954-.519-.48-1.4-.01-1.382.71.046.618.584 1.052.853 1.569 1.512 2.306 2.022 4.022 2.746 6.78.881 2.898 1.039 4.3.779 7.29 0 .037-.009.064-.009.092-.028.138-.047.268-.074.406-.01.065-.038.175-.075.286-.148.25-.296.489-.463.729-.204.249-.613.757-.844.978a3.314 3.314 0 01-.149.092c-.454.046-.798.028-2.013-.387-.343-.139-.417-.176-.027 0-.613-.222-1.169-.665-1.809-.785-1.438-.276-2.143 1.901-.872 2.63.445.24.937.47 1.373.673.092.49.352.95.807 1.21.102.064.213.11.324.156.037.6.381 1.172 1.113 1.402.613.176 1.253.351 1.893.203.222-.036.658-.24.723-.276.64-.286 1.299-.683 1.577-1.357a1.39 1.39 0 00.074-.996c.241-.259.38-.6.408-.95a7.95 7.95 0 001.317-2.925 12.71 12.71 0 00.232-2.215v-.129.019z" fill="#000" opacity=".129"/><path d="M26.694 88.444a.81.81 0 01-.149-.018c-4.563-.867-9.284-1.762-13.94-3.091-1.8-.627-3.544-1.043-5.38-1.476-2.004-.48-4.082-.969-6.196-1.744a.791.791 0 01-.473-1.024.798.798 0 011.03-.47c2.03.747 4.062 1.226 6.019 1.688 1.8.424 3.654.867 5.49 1.504 4.295 1.218 8.71 2.085 13.005 2.897 1.864-7.861 4.396-15.537 6.845-22.974 1.456-4.429 2.968-9.005 4.341-13.627.01-.019.01-.037.019-.056.463-1.2.955-2.38 1.428-3.515 1.299-3.082 2.523-6.006 3.126-9.383a.28.28 0 00-.074-.074.475.475 0 01-.25-.055c-4.036-1.606-8.256-2.778-12.337-3.903-4.832-1.338-9.832-2.722-14.692-4.853a.793.793 0 01-.408-1.052.793.793 0 011.057-.406c4.75 2.085 9.693 3.46 14.47 4.78 4.09 1.134 8.31 2.297 12.392 3.911.788.102 1.456.849 1.456 1.661a.7.7 0 01-.01.138c-.63 3.608-1.966 6.782-3.255 9.845a98.882 98.882 0 00-1.4 3.441c-1.383 4.641-2.885 9.218-4.35 13.646-2.635 7.99-5.12 15.528-6.985 23.583a.791.791 0 01-.78.627z" fill="#000"/><path d="M17.335 85.98c-.065 0-.12-.008-.186-.018a.801.801 0 01-.593-.96c4.248-17.695 10.23-36.508 16.417-51.602a.82.82 0 011.048-.443.804.804 0 01.445 1.042c-6.15 15.03-12.113 33.75-16.343 51.373a.818.818 0 01-.788.609zm121.238 4.715a.783.783 0 01-.77-.581c-2.94-10.564-6.047-21.119-9.349-32.301-1.698-5.767-3.46-11.736-5.213-17.78a.805.805 0 01.371-.913 154.19 154.19 0 0123.429-10.767.81.81 0 011.03.48.804.804 0 01-.482 1.024 151.521 151.521 0 00-22.641 10.352c1.697 5.83 3.394 11.588 5.036 17.16 3.209 10.888 6.242 21.185 9.118 31.481a229.799 229.799 0 0020.239-8.691.8.8 0 11.704 1.44 231.297 231.297 0 01-21.203 9.05.818.818 0 01-.269.046z" fill="#000"/><path d="M147.477 86.654a.802.802 0 01-.779-.6 819.638 819.638 0 00-14.627-50.597.797.797 0 01.519-1.006.798.798 0 011.011.517 822.65 822.65 0 0114.656 50.69.795.795 0 01-.585.969.713.713 0 01-.195.027zM65.613 63.671c-1.725 0-3.747-.784-4.647-2.602-1.595-3.22 1.4-6.846 2.384-8.036 4.062-4.917 8.264-9.992 13.486-13.83 5.909-4.336 12.364-6.292 18.18-5.527 2.977.397 5.797 1.486 8.533 2.538.881.341 1.79.692 2.681 1.014a54.694 54.694 0 0017.604 3.202.798.798 0 01-.009 1.596h-.009a56.06 56.06 0 01-18.115-3.294c-.918-.322-1.836-.682-2.727-1.024-2.643-1.024-5.38-2.076-8.162-2.445-5.398-.72-11.446 1.144-17.011 5.222-5.064 3.719-9.201 8.72-13.199 13.563-2.235 2.704-2.95 4.77-2.189 6.32.64 1.292 2.198 1.79 3.45 1.707 1.457-.092 2.83-.756 4.35-1.56 1.02-.534 2.041-1.06 3.062-1.595 6.214-3.23 12.085-6.283 17.66-10.38a.812.812 0 011.122.166c.26.35.186.849-.167 1.117-5.667 4.17-11.594 7.252-17.864 10.508-1.011.526-2.031 1.052-3.052 1.587-1.623.858-3.228 1.624-5 1.744-.13 0-.24.01-.361.01zm54.697 28.141a.797.797 0 01-.316-1.532 744.13 744.13 0 0015.954-7.076.806.806 0 011.067.396.798.798 0 01-.399 1.062 825.172 825.172 0 01-15.991 7.085.96.96 0 01-.315.065z" fill="#000"/><path d="M118.241 94.903c-.157 0-.306-.01-.436-.028-2.476-.277-4.915-1.984-6.678-4.696-1.122-1.725-1.901-3.645-2.662-5.508-.241-.59-.473-1.172-.723-1.753a47.02 47.02 0 00-8.06-12.742.79.79 0 01.074-1.126.8.8 0 011.131.074c3.46 3.894 6.261 8.332 8.339 13.175.25.591.491 1.19.733 1.781.723 1.79 1.474 3.635 2.513 5.232 1.503 2.306 3.516 3.755 5.51 3.976.287.028.482.019.565-.046.103-.065.26-.305.242-1.19-.269-8.95-3.089-17.946-7.949-25.336-4.851-7.372-11.873-13.35-19.766-16.82a.793.793 0 01-.408-1.051.8.8 0 011.057-.406c8.172 3.598 15.444 9.78 20.462 17.41 5.018 7.62 7.93 16.912 8.208 26.157.019.516.056 1.9-.955 2.574-.39.258-.816.323-1.197.323zm-36.934 8.47c-1.039 0-2.384-.176-3.85-1.292a.792.792 0 01-.148-1.116.801.801 0 011.123-.148c1.354 1.033 2.495.987 3.496.941l.112-.009c1.484-.065 3.042-.821 3.979-1.92.436-.516.927-1.337.797-2.334-.009-.037-.009-.064-.009-.101.01-1.652-.213-3.322-.408-4.604a.786.786 0 01.455-.84.816.816 0 01.946.203c1.113 1.292 2.272 2.62 3.682 3.497 1.447.904 3.052 1.163 4.294.692 1.726-.664 3.497-3.81 3.098-5.526a.796.796 0 01.603-.96.807.807 0 01.965.6c.575 2.5-1.605 6.421-4.09 7.371-1.735.665-3.822.36-5.723-.83-.863-.544-1.624-1.2-2.329-1.91.066.73.112 1.495.112 2.251.139 1.228-.26 2.446-1.169 3.516-1.233 1.458-3.2 2.408-5.138 2.491h-.102a8.124 8.124 0 01-.696.028z" fill="#000"/><path d="M105.646 97.052c-.631 0-1.225-.175-1.8-.405-2.82-1.145-4.304-4.328-5.741-7.41-.993-2.13-2.022-4.326-3.423-5.627a.789.789 0 01-.037-1.126.799.799 0 011.132-.037c1.623 1.513 2.717 3.857 3.775 6.126 1.363 2.934 2.662 5.702 4.888 6.607.983.396 2.105.848 3.682-1.929.436-.766.557-1.744.621-2.685.158-2.408-.454-4.89-1.057-7.298a64.543 64.543 0 01-.269-1.098.794.794 0 01.594-.96.794.794 0 01.964.591c.084.36.177.73.269 1.089.631 2.519 1.28 5.13 1.104 7.787-.074 1.126-.222 2.316-.825 3.368-1.317 2.316-2.644 3.007-3.877 3.007zm-48.084-.47h-.195c-2.365-.055-5.148-1.522-5.89-4.216-.24-.877-.25-1.763-.139-2.612-1.502.932-3.357 1.31-5.12.978-2.773-.516-5.101-2.887-5.537-5.628-.14-.904.018-1.605.482-2.085a.806.806 0 011.132-.018.796.796 0 01.018 1.125c-.055.056-.13.268-.055.73.334 2.094 2.124 3.902 4.248 4.308 2.068.388 4.276-.48 5.5-2.168a.807.807 0 01.918-.286c.26-.139.492-.23.65-.295A31.188 31.188 0 0162.83 84.2c3.219-.258 4.555.904 5.102 1.928.38.702.51 1.569.39 2.565a6.751 6.751 0 01-1.494 3.488c-.788.941-1.8 1.615-2.764 2.196-1.734 1.043-4.016 2.205-6.502 2.205zm-4.34-8.128c-.325 1.3-.502 2.426-.205 3.487.538 1.938 2.616 2.999 4.387 3.045 2.152.055 4.24-1.024 5.816-1.965.853-.508 1.725-1.08 2.356-1.846a5.238 5.238 0 001.14-2.657c.056-.461.066-1.107-.212-1.624-.594-1.098-2.264-1.2-3.562-1.098-3.005.24-5.964.95-8.775 2.095-.464.194-.77.378-.946.563z" fill="#000"/><path d="M64.815 101.804c-1.168 0-2.272-.286-3.2-.858-1.808-1.107-2.894-3.312-2.708-5.48a.802.802 0 01.872-.73.8.8 0 01.733.868c-.13 1.56.667 3.201 1.947 3.986 1.225.756 2.904.83 4.592.203 1.604-.6 3.005-1.68 4.424-2.842 2.022-1.651 3.914-3.497 4.081-5.822.01-.138.019-.341-.028-.461-.046-.11-.176-.23-.398-.37-1.42-.885-3.117-.663-3.998-.46-1.364.322-2.477.922-3.766 1.623l-.222.12a.798.798 0 11-.761-1.402l.223-.12c1.335-.72 2.597-1.403 4.164-1.772 1.948-.46 3.803-.23 5.222.665.325.203.789.544 1.02 1.107.177.424.168.858.149 1.18-.213 2.935-2.375 5.066-4.666 6.94-1.465 1.199-3.051 2.416-4.878 3.099a8.106 8.106 0 01-2.802.526z" fill="#000"/><path d="M73.441 104a6.728 6.728 0 01-3.098-.757c-1.113-.572-2.263-1.725-2.17-3.22a.802.802 0 01.844-.747c.445.028.78.406.751.84-.046.738.677 1.374 1.317 1.707a5.092 5.092 0 003.228.498c1.744-.305 3.256-1.504 4.508-2.639 1.42-1.282 2.022-2.344 1.901-3.34-.13-1.153-1.317-1.928-2.346-1.984-1.03-.055-2.087.388-3.34 1.412a.81.81 0 01-1.13-.11.8.8 0 01.11-1.126c.993-.812 2.533-1.892 4.453-1.772 1.706.102 3.608 1.393 3.84 3.396.24 2.039-1.271 3.662-2.421 4.705-1.336 1.209-3.145 2.648-5.306 3.026a5.89 5.89 0 01-1.14.111zM52.73 87.77a.795.795 0 01-.789-.664c-.26-1.568-1.91-2.51-2.866-2.934-2.792-1.227-5.222-1.19-7.216.12a.805.805 0 01-1.104-.212c-2.82-4.087-6.344-7.113-10.453-8.986a.803.803 0 01-.4-1.061.81.81 0 011.068-.397c4.174 1.9 7.763 4.9 10.675 8.922 2.329-1.227 5.046-1.181 8.08.157 2.16.95 3.515 2.417 3.802 4.133a.79.79 0 01-.658.913c-.056 0-.093.01-.14.01zM42.044 40.744a.81.81 0 01-.779-.61.794.794 0 01.594-.959c8.18-1.974 15.694-4.687 21.964-7.076l.556-.213c2.393-.913 4.87-1.863 7.486-2.168 6.02-.692 11.557 2.002 16.445 4.383a.8.8 0 01.37 1.07.807.807 0 01-1.075.37c-4.684-2.28-9.999-4.872-15.555-4.227-2.412.277-4.786 1.19-7.086 2.067l-.557.212c-6.326 2.408-13.894 5.14-22.159 7.142-.074.009-.139.009-.204.009zm113.308 39.48c-.037 0-.065-.01-.102-.019l-8.023-3.155a.26.26 0 01-.148-.342.263.263 0 01.343-.147l8.023 3.155a.26.26 0 01.148.342c-.027.101-.129.165-.241.165zm2.718-3.147c-.028 0-.056-.009-.093-.018a119.835 119.835 0 01-13.004-5.508.27.27 0 01-.12-.36.271.271 0 01.361-.12 120.696 120.696 0 0012.949 5.49.259.259 0 01.157.341.267.267 0 01-.25.175zm.677-4.936c-.028 0-.056 0-.084-.018a183.586 183.586 0 01-14.562-5.684c-.139-.055-.195-.212-.139-.35.056-.139.223-.194.352-.139a183.778 183.778 0 0014.516 5.665.27.27 0 01.167.342.267.267 0 01-.25.184zm0-4.742c-.037 0-.065-.01-.102-.019-5.704-2.232-10.138-4.16-16.241-6.855-.139-.055-.195-.212-.139-.35.055-.139.222-.194.352-.139 6.103 2.685 10.518 4.613 16.223 6.846a.26.26 0 01.148.341c-.028.111-.13.176-.241.176zm-1.419-5.352a.337.337 0 01-.102-.018l-16.38-6.975c-.14-.055-.195-.212-.14-.35.056-.14.214-.194.353-.14l16.38 6.976c.139.055.195.212.139.35a.29.29 0 01-.25.157zm-.529-5.12a.246.246 0 01-.111-.028l-17.79-8.23c-.13-.064-.195-.221-.13-.35.065-.13.222-.194.352-.13l17.79 8.23c.13.065.195.222.13.351a.276.276 0 01-.241.157zm-1.734-6.44a.25.25 0 01-.112-.028l-17.947-8.424c-.13-.064-.195-.22-.13-.35a.268.268 0 01.352-.13l17.948 8.424c.13.065.195.222.13.351a.261.261 0 01-.241.157zm-4.035-8.424c-.037 0-.065-.01-.102-.018a387.47 387.47 0 00-13.514-5.13.258.258 0 01-.158-.341.261.261 0 01.343-.157 380.7 380.7 0 0113.533 5.13.268.268 0 01.148.35.281.281 0 01-.25.166zm-.353-5.923c-.037 0-.074-.01-.111-.019l-6.409-2.795c-.139-.056-.195-.212-.139-.35.055-.14.213-.195.352-.14l6.409 2.796c.14.056.195.213.14.351a.262.262 0 01-.242.157z" fill="#000"/><path d="M14.858 27.716c6.335 2.224 12.735 4.235 18.838 6.145-1.001 4.41-3.57 8.22-5.296 12.382-.918 2.205-1.595 4.502-2.263 6.809a1399.633 1399.633 0 00-9.034 32.44c-5.649-2.02-10.027-3.054-16.084-4.18C6.594 63.192 11.621 45.8 14.86 27.716z" fill="#ACD4F7"/><path d="M40.625 41.242c-1.354 5.12-3.747 8.913-5.51 14.55-1.066 3.294-1.873 6.661-2.485 10.075-.38 1.513-.677 3.045-.983 4.577-.223 1.356-.603 2.74-.371 4.115a2.218 2.218 0 002.903 1.55 52.997 52.997 0 002.282 2.315v-.101a49.211 49.211 0 01.046-4.53c-.306-1.061-.417-1.753-.482-2.62.296-1.67.677-3.322.872-5.01.76-5.435 2.235-10.721 3.923-15.907.51-1.55.9-3.146 1.549-4.64.454-1.348 1.206-2.722 1.206-4.171-.14-1.67-2.56-1.836-2.95-.203zm1.531 41.538c-.084.331-.39.58-.715.562.26.148.548.222.854.13.473-.13.788-.628.76-1.126-.297.147-.593.295-.9.433z" fill="#000" opacity=".129"/><path d="M31.285 74.558c-.028-.203-.056-.405-.074-.608-.01.212.018.415.074.608z" fill="#000" opacity=".129"/><path d="M26.694 88.444a.81.81 0 01-.149-.018c-4.563-.867-9.284-1.762-13.94-3.091-1.8-.627-3.544-1.043-5.38-1.476-2.004-.48-4.082-.969-6.196-1.744a.791.791 0 01-.473-1.024.798.798 0 011.03-.47c2.03.747 4.062 1.226 6.019 1.688 1.8.424 3.654.867 5.49 1.504 4.295 1.218 8.71 2.085 13.005 2.897 1.864-7.861 4.396-15.537 6.845-22.974 1.456-4.429 2.968-9.005 4.341-13.627.01-.019.01-.037.019-.056.463-1.2.955-2.38 1.428-3.515 1.299-3.082 2.523-6.006 3.126-9.383a.28.28 0 00-.074-.074.475.475 0 01-.25-.055c-4.036-1.606-8.256-2.778-12.337-3.903-4.832-1.338-9.832-2.722-14.692-4.853a.793.793 0 01-.408-1.052.793.793 0 011.057-.406c4.75 2.085 9.693 3.46 14.47 4.78 4.09 1.134 8.31 2.297 12.392 3.911.788.102 1.456.849 1.456 1.661a.7.7 0 01-.01.138c-.63 3.608-1.966 6.782-3.255 9.845a98.882 98.882 0 00-1.4 3.441c-1.383 4.641-2.885 9.218-4.35 13.646-2.635 7.99-5.12 15.528-6.985 23.583a.791.791 0 01-.78.627z" fill="#000"/><path d="M17.335 85.98c-.065 0-.12-.008-.186-.018a.801.801 0 01-.593-.96c4.248-17.695 10.23-36.508 16.417-51.602a.82.82 0 011.048-.443.804.804 0 01.445 1.042c-6.15 15.03-12.113 33.75-16.343 51.373a.818.818 0 01-.788.609zm102.975 5.832a.797.797 0 01-.316-1.532 744.13 744.13 0 0015.954-7.076.806.806 0 011.067.396.798.798 0 01-.399 1.062 825.172 825.172 0 01-15.991 7.085.96.96 0 01-.315.065z" fill="#000"/><path d="M106.916 32.154a.796.796 0 01-.797-.803l.231-22.41a.808.808 0 01.798-.794h.009a.81.81 0 01.798.803l-.232 22.41a.804.804 0 01-.807.794z" fill="#42526D"/><path d="M102.408 15.436a.789.789 0 01-.519-.194.8.8 0 01-.093-1.126 42.918 42.918 0 004.805-6.855c.148-.258.436-.397.714-.406.297.01.566.176.696.434l.148.295c1.317 2.547 2.18 4.226 3.924 6.459a.799.799 0 01-.139 1.116.81.81 0 01-1.123-.138c-1.586-2.03-2.504-3.673-3.571-5.702a44.045 44.045 0 01-4.239 5.84.775.775 0 01-.603.277zM86.27 25.29c-.01 0-.01 0 0 0a.792.792 0 01-.798-.803l.232-22.411c0-.434.361-.794.797-.794h.01a.81.81 0 01.797.803l-.232 22.411a.81.81 0 01-.807.794z" fill="#42526D"/><path d="M81.752 8.58a.79.79 0 01-.52-.193.8.8 0 01-.092-1.126A42.942 42.942 0 0085.945.406a.803.803 0 011.41.028l.148.286c1.317 2.546 2.189 4.225 3.933 6.467a.799.799 0 01-.14 1.117.809.809 0 01-1.122-.139c-1.586-2.03-2.504-3.672-3.57-5.702a44.135 44.135 0 01-4.24 5.84.826.826 0 01-.612.278zM62.775 28.251a.792.792 0 01-.798-.803l.232-22.41a.808.808 0 01.798-.794h.009a.81.81 0 01.798.803l-.232 22.41a.803.803 0 01-.807.794z" fill="#42526D"/><path d="M58.267 11.533a.79.79 0 01-.52-.194.8.8 0 01-.092-1.125 42.934 42.934 0 004.804-6.856.833.833 0 01.715-.406c.296.01.565.176.695.434l.149.295c1.317 2.547 2.18 4.226 3.932 6.459a.799.799 0 01-.139 1.116.8.8 0 01-1.122-.138c-1.586-2.03-2.504-3.672-3.571-5.702a44.125 44.125 0 01-4.239 5.84.823.823 0 01-.612.277z" fill="#42526D"/></g><defs><clipPath id="clip0_116_904"><path fill="#fff" transform="translate(.5)" d="M0 0h160v104H0z"/></clipPath></defs></svg>