<svg width="181" height="181" fill="none" xmlns="http://www.w3.org/2000/svg"><g clip-path="url(#clip0_116_282)"><path d="M122.123 71.819l21.876 37.996 36.251-15.572-25-52.945-33.127 30.52z" fill="#8133F1"/><path d="M63.999 75.556l8.126 2.492 9.375-4.36s0-7.475 3.75-5.606l7.5 3.738s9.999.623 11.875 1.247c1.875.622 4.375 1.247 2.499 4.36-1.875 3.114 1.251 3.738 5.625 1.87 4.375-1.87 7.499-3.739 7.499-3.739l19.376 29.274-12.499 4.983s1.251 9.965 0 14.325c-1.251 4.361-8.126 2.492-8.126 2.492s2.5 4.982-.624 4.982c-3.125 0-7.5-1.246-7.5-1.246l-3.751 1.869-8.125-3.738-2.5-3.114.624 6.229-4.375 3.738-6.25-.622-6.251 3.114-6.875-1.869s-7.5.622-8.126-1.869c-.625-2.492-1.875-4.983-1.875-4.983l-5.625-7.474-5-4.983 1.876-6.851-11.25-6.23 20.627-28.028z" fill="#fff"/><path d="M54.312 111.989c.199-.015.398-.005.595.021a.352.352 0 00.184-.042.336.336 0 00.154-.099.368.368 0 00.1-.153.356.356 0 00.041-.183.482.482 0 00-.14-.338l-.097-.074a.467.467 0 00-.242-.065 2.893 2.893 0 00-.595-.021.352.352 0 00-.184.042.335.335 0 00-.154.099.368.368 0 00-.1.153.357.357 0 00-.041.183.483.483 0 00.14.338c.09.08.214.149.339.139z" fill="#222221"/><path d="M56.972 111.019c.95-.387 1.79-.971 2.717-1.403.482-.225 1.023-.361 1.525-.54a87.047 87.047 0 001.55-.565c2.066-.775 4.102-1.625 6.135-2.484.967-.408 1.933-.889 2.936-1.203.85-.265 1.78-.509 2.676-.364 1.485.24 2.404 1.5 2.49 2.904a4.17 4.17 0 01-.369 2.037c-.38.809-1.015 1.479-1.65 2.096-.698.681-1.446 1.313-2.106 2.035-.65.708-1.449 1.267-2.228 1.819-.784.556-1.58 1.109-2.274 1.776-.15.143-.28.316-.458.425a19.032 19.032 0 01-1.992 1.067 17.05 17.05 0 01-5.624 1.514c-.502.044-1.004.039-1.506.067-.446.027-.873.059-1.314-.032-.826-.172-1.747-.617-2.22-1.335-.222-.336-.34-.687-.49-1.063-.196-.483-.378-.97-.539-1.464-.314-.964-.548-1.961-.603-2.977-.012-.204-.044-.458.005-.637.052-.187.152-.367.207-.561.17-.592-.753-.844-.923-.254-.057.2-.16.387-.215.588-.066.252-.047.521-.036.777.025.557.098 1.113.205 1.66.209 1.071.569 2.108.977 3.12.169.416.31.851.55 1.233.28.445.65.798 1.088 1.085.843.551 1.827.874 2.843.849 2.118-.053 4.2-.309 6.214-.996.998-.34 1.969-.766 2.896-1.264.448-.241.989-.479 1.34-.852a9.893 9.893 0 011.103-.992c.796-.627 1.653-1.175 2.453-1.795.828-.643 1.508-1.418 2.272-2.13 1.36-1.27 2.893-2.583 3.26-4.498.296-1.533-.072-3.29-1.338-4.307a4.065 4.065 0 00-2.701-.886c-1.025.032-2.071.319-3.01.716-2.115.893-4.222 1.798-6.356 2.648-1.072.427-2.153.84-3.24 1.229-.55.197-1.114.365-1.66.573-.51.195-.988.477-1.461.746-.45.258-.903.52-1.383.716-.24.098-.408.317-.336.588.064.228.349.434.59.334z" fill="#222221"/><path d="M58.197 120.784c.057.917.063 1.843.235 2.747a5.244 5.244 0 001.201 2.478 4.795 4.795 0 002.274 1.472c.816.239 1.684.258 2.527.214.923-.049 1.84-.156 2.764-.193 1.088-.042 2.18-.038 3.262-.179a9.381 9.381 0 003.077-.932c.896-.452 1.72-1.029 2.515-1.638.8-.613 1.576-1.258 2.394-1.848.738-.534 1.41-1.109 1.977-1.825.602-.761 1.11-1.592 1.674-2.378.615-.856 1.25-1.703 1.726-2.646.364-.72.73-1.455 1-2.217.259-.727.43-1.554.21-2.314-.382-1.34-1.79-1.869-3.045-2.042a9.969 9.969 0 00-4.047.284c-1.16.328-2.397.915-3.048 1.978a2.717 2.717 0 00-.32.765c-.148.596.778.852.923.254a2.627 2.627 0 01.09-.288c-.017.04.048-.097.064-.126a3.59 3.59 0 01.103-.176c.03-.045.061-.091.094-.135-.056.074.036-.042.055-.067a3.338 3.338 0 01.504-.466 5.623 5.623 0 011.054-.572c1.162-.461 2.337-.627 3.57-.585.154.006.307.014.46.027a6.29 6.29 0 011.134.208c.125.036.245.077.366.122.025.01.052.019.077.031-.018-.008-.085-.038-.002 0 .06.027.118.055.178.084.23.118.44.263.607.464.402.479.372 1.124.224 1.724-.172.698-.486 1.347-.8 1.991a16.73 16.73 0 01-1.39 2.361c-.557.789-1.11 1.577-1.656 2.373-.448.653-.939 1.264-1.538 1.785-.698.607-1.483 1.123-2.21 1.696-1.447 1.141-2.955 2.363-4.76 2.888-1.884.548-3.9.367-5.836.525-1.508.124-3.194.378-4.563-.43a4.17 4.17 0 01-1.667-1.893c-.31-.709-.389-1.491-.435-2.255-.024-.422-.042-.846-.069-1.268-.034-.609-.992-.612-.953.002z" fill="#222221"/><path d="M62.003 128.951c.117 1.585.438 3.148 1.402 4.45 1.075 1.451 2.603 2.534 4.296 3.152 1.853.676 3.843.43 5.698-.109.896-.259 1.762-.609 2.643-.912.908-.313 1.73-.701 2.404-1.399.61-.634 1.077-1.39 1.707-2.005.45-.439.935-.848 1.392-1.279a44.654 44.654 0 003.11-3.228c1.045-1.209 2.032-2.488 2.837-3.872.73-1.254 1.32-2.613 1.501-4.06.163-1.297-.03-2.841-1.18-3.649-.948-.664-2.249-.572-3.342-.494-.282.021-.564.042-.845.057-.613.034-.617.989 0 .955.551-.031 1.101-.086 1.653-.103.561-.018.992-.01 1.479.133.057.017.113.036.168.056l.083.03c-.079-.032-.01-.004.005.004.112.055.217.114.319.183.086.057-.002-.011.072.059.042.04.087.081.127.123.023.022.103.12.094.106 0 .002.07.105.095.147.29.482.372 1.131.362 1.734-.019 1.22-.478 2.463-1.057 3.577-.678 1.304-1.538 2.513-2.47 3.649a40.965 40.965 0 01-2.976 3.228c-.95.932-2.015 1.77-2.845 2.812-.5.628-.984 1.323-1.68 1.754-.726.451-1.59.659-2.385.959-1.685.636-3.54 1.176-5.361.964-1.617-.189-3.217-1.121-4.358-2.245a6.525 6.525 0 01-1.291-1.743c-.305-.613-.475-1.285-.583-1.959-.057-.357-.09-.718-.116-1.078-.02-.258-.207-.478-.48-.478-.243.004-.498.224-.478.481z" fill="#222221"/><path d="M71.924 136.231c-.089.769.143 1.552.745 2.065.567.487 1.306.722 2.034.835 1.686.265 3.534.192 5.11-.482 1.008-.431 1.897-1.092 2.704-1.825a34.468 34.468 0 002.582-2.657c.835-.947 1.488-2.02 2.278-3.001.386-.481.78-.96 1.114-1.478a8.72 8.72 0 00.765-1.512c.46-1.147.684-2.415.155-3.575-.452-.993-1.423-1.973-2.596-1.913-.613.032-.617.987 0 .954.782-.04 1.403.676 1.728 1.356.4.836.2 1.788-.101 2.632-.355.993-.931 1.846-1.588 2.665-.368.46-.746.915-1.077 1.404-.31.454-.611.906-.963 1.332-.748.903-1.575 1.747-2.406 2.573-.704.701-1.456 1.354-2.322 1.847a6.22 6.22 0 01-2.707.822 13.94 13.94 0 01-1.862-.002c-.65-.047-1.408-.175-1.956-.502a2.26 2.26 0 01-.214-.143c.07.056-.002-.004-.017-.019a2.576 2.576 0 01-.108-.099l-.057-.061a1.576 1.576 0 01-.054-.063c.033.042.033.042 0-.002-.044-.063-.08-.13-.119-.197-.011-.019-.05-.105-.013-.021-.017-.04-.03-.082-.044-.124a1.805 1.805 0 01-.063-.265c.013.084-.002-.019-.002-.04-.004-.06-.008-.119-.008-.178 0-.109.008-.218.021-.326.029-.256-.241-.478-.479-.478-.285 0-.452.22-.48.478zM85.74 79.31c-.566-1.466-1.693-2.621-2.394-4.019a9.537 9.537 0 01-.988-4.4c.002-.12.01-.24.02-.361.01-.088-.005.019.01-.067.012-.061.023-.122.037-.183.023-.101.052-.2.086-.3.01-.027.054-.137.038-.101-.015.034.04-.082.056-.11.044-.085.094-.161.145-.24.06-.091-.02.018.031-.043.033-.04.067-.079.102-.117.057-.061.118-.114.182-.172.086-.078-.03.017.038-.032a2.89 2.89 0 01.473-.27c.083-.037.012-.005-.004.003l.075-.029a4.042 4.042 0 01.726-.183c.084-.014-.054.003.067-.01.111-.011.22-.02.331-.027.215-.01.428-.007.642.004.464.025.786.077 1.272.19a9.534 9.534 0 011.47.467c.091.036.013.004.08.034.097.044.195.088.293.134.193.092.381.19.567.298.165.095.328.198.483.309l.109.08c.067.05-.046-.04.036.029.134.114.268.227.399.347 1.212 1.113 2.185 2.454 3.423 3.544 1.212 1.067 2.597 1.922 3.804 2.995 1.123 1 2.11 2.193 3.41 2.978.463.28.969.481 1.448.731.448.235.845.487 1.086.896.136.229.203.479.244.754.038.256.362.395.59.334.273-.075.371-.33.335-.588a2.66 2.66 0 00-.87-1.62c-.433-.38-.946-.631-1.462-.877-.561-.268-1.097-.556-1.584-.945-.628-.502-1.193-1.077-1.768-1.636a20.378 20.378 0 00-1.837-1.583c-.66-.504-1.337-.987-1.986-1.506a17.63 17.63 0 01-1.895-1.749c-.584-.626-1.134-1.283-1.731-1.894-.753-.767-1.56-1.393-2.544-1.829a10.076 10.076 0 00-2.899-.805c-.917-.11-1.879-.061-2.735.309a2.83 2.83 0 00-1.628 1.911c-.157.618-.133 1.271-.08 1.901.066.825.216 1.646.472 2.434.255.781.602 1.535 1.03 2.236.426.695.926 1.342 1.355 2.035.198.319.387.647.523.999.094.24.322.406.59.334.224-.065.422-.348.328-.59z" fill="#222221"/><path d="M101.427 80.499a25.81 25.81 0 005.828-.367c1.668-.29 3.296-.708 4.863-1.355 2.962-1.224 5.584-3.074 7.979-5.181 2.41-2.121 4.595-4.479 6.833-6.776 1.417-1.454 2.787-2.958 4.193-4.425 1.412-1.468 2.829-2.932 4.233-4.408a261.9 261.9 0 002.102-2.23c.701-.754 1.32-1.584 1.965-2.388a1.73 1.73 0 01.41-.391c.222-.151.385-.302.544-.517.263-.356.538-.701.824-1.037a26.609 26.609 0 011.816-1.925c.31-.3.628-.595.946-.887.454-.416-.224-1.09-.678-.676-1.314 1.206-2.555 2.474-3.63 3.9a1.356 1.356 0 01-.368.355c-.186.126-.343.25-.485.426l-.982 1.226c-.328.408-.652.817-1.01 1.202-.343.369-.687.737-1.034 1.104-2.77 2.94-5.607 5.815-8.369 8.76-2.253 2.402-4.525 4.81-6.937 7.055-2.268 2.11-4.727 4.041-7.53 5.4-3.122 1.516-6.668 2.207-10.129 2.213-.462 0-.924-.013-1.385-.038-.615-.027-.613.928.001.96zm-31.4-2.634a17.446 17.446 0 002.25-.256c.367-.07.73-.159 1.087-.271.173-.054.349-.107.515-.182.198-.088.384-.212.577-.31 1.347-.696 2.822-1.104 4.243-1.62.835-.303 1.669-.616 2.496-.94.242-.094.408-.322.335-.589-.063-.229-.346-.428-.59-.334a104.24 104.24 0 01-4.296 1.575c-.73.248-1.449.51-2.151.83-.338.153-.652.344-.983.508-.313.155-.688.233-1.025.313-.806.193-1.63.273-2.456.321-.613.036-.619.99-.002.955zm20.617-7.003c.617 0 .617-.954 0-.954-.614 0-.616.954 0 .954z" fill="#222221"/><path d="M91.698 72.265c.927-.055 1.849-.208 2.78-.21.96-.002 1.877.29 2.812.474 1.005.198 1.996.301 3.021.254.917-.044 1.863-.16 2.775.01.655.121 1.289.404 1.904.654.502.206 1.106.492 1.592.832.198.138.412.32.598.53.086.094.117.135.199.266.036.058.069.115.1.176.046.092.044.086.063.14.213.587.144 1.194-.261 1.742-.274.373-.618.703-.944 1.031-.268.27-.609.394-.973.48-.841.196-1.709.263-2.333.935-.418.45.256 1.126.678.676.511-.55 1.32-.539 2.004-.714a2.913 2.913 0 001.12-.539c.333-.269.632-.616.914-.937.576-.657.952-1.403.854-2.295-.074-.68-.389-1.283-.871-1.766-.916-.92-2.203-1.368-3.389-1.827-.921-.355-1.864-.45-2.847-.412-1.017.04-2.028.145-3.043.002a24.103 24.103 0 01-1.763-.338c-.557-.124-1.11-.267-1.682-.31-1.107-.083-2.208.129-3.312.194-.609.034-.613.99.004.952zM69.3 78.82c1.894.268 3.817.306 5.706.62 1.002.166 1.998.341 3.01.458 1.003.116 2.012.194 3.022.248 1.94.101 3.885.107 5.83.118.98.006 1.959.014 2.94.035.915.02 1.823.078 2.739.135.46.029.915.036 1.373.082.445.044.887.098 1.328.16.961.138 1.915.316 2.864.52 1.563.338 3.088.733 4.543 1.407 2.692 1.248 4.998 3.138 7.05 5.252 2.08 2.144 3.917 4.505 5.806 6.815l.693.842c.165.198.506.17.678 0 .198-.197.165-.475 0-.676-1.919-2.31-3.746-4.698-5.787-6.903-2.034-2.2-4.31-4.23-6.965-5.659a18.511 18.511 0 00-4.327-1.68 42.928 42.928 0 00-5.584-1.004c-.921-.1-1.852-.131-2.78-.194-.948-.065-1.903-.065-2.855-.077-1.956-.023-3.912-.011-5.868-.067-1.994-.057-3.992-.183-5.965-.483-.994-.15-1.979-.347-2.979-.46-.963-.108-1.929-.173-2.894-.265a27.708 27.708 0 01-1.322-.15c-.257-.037-.515.062-.59.333-.061.231.077.558.333.594z" fill="#222221"/><path d="M116.716 95.829c-.184-.113-.27-.225-.27-.432l-.721.413c.797.546 1.381 1.38 1.916 2.167.571.838 1.12 1.685 1.716 2.504.73 1.003 1.347 2.079 1.956 3.156a77.853 77.853 0 001.847 3.112c.643 1.025 1.272 2.084 1.674 3.232.421 1.203.588 2.478.902 3.707.159.625.379 1.23.565 1.846.184.611.345 1.23.493 1.85.298 1.27.538 2.553.812 3.828.224 1.042.525 2.071.716 3.121.136.749.192 1.56-.195 2.19-.435.708-1.397 1.056-2.199 1.243-.876.202-1.843.181-2.648-.25-.394-.212-.768-.51-1.026-.878-.267-.38-.43-.814-.56-1.257-.285-.975-.425-1.981-.791-2.934-.864-2.249-2.293-4.209-3.427-6.321-1.228-2.285-2.306-4.645-3.567-6.911-1.237-2.224-2.735-4.268-4.256-6.305-.372-.499-.743-.997-1.111-1.497-.153-.208-.416-.311-.655-.172a.484.484 0 00-.173.653c1.117 1.947 2.523 3.706 3.826 5.531.647.908 1.272 1.836 1.816 2.812.59 1.057 1.061 2.178 1.542 3.287 1 2.308 1.942 4.643 2.992 6.93.465 1.014.977 2.006 1.423 3.028.422.962.799 1.995.887 3.047.077.916-.123 1.748-.479 2.586-.073.17-.151.336-.239.499a2.659 2.659 0 01-.131.217c-.08.119.096-.086-.044.054-.046.046-.09.095-.141.133-.326.241-.786.289-1.175.346-1.09.158-2.122.559-3.233.588-.504.013-1.029-.011-1.502-.199-.331-.131-.594-.347-.847-.614-.685-.722-1.306-1.539-1.865-2.36-.654-.958-1.228-1.966-1.797-2.974-1.119-1.988-2.305-3.937-3.452-5.907-1.142-1.962-2.326-3.912-3.787-5.658-.722-.863-1.485-1.684-2.178-2.572-.694-.886-1.368-1.789-2.12-2.629a15.27 15.27 0 00-1.162-1.17c-.38-.345-1.078.111-.752.579.65.935 1.451 1.739 2.277 2.521a41.298 41.298 0 012.435 2.499c1.605 1.808 3.111 3.712 4.569 5.64 1.444 1.907 2.817 3.871 4.02 5.941 1.102 1.896 2.314 4.005 2.427 6.246.044.878-.078 1.921-.68 2.578-.494.538-1.189.784-1.931.893-.745.109-1.63.061-2.369-.05-.981-.145-1.95-.401-2.829-.864a8.553 8.553 0 01-2.291-1.766c-.315-.344-.495-.749-.669-1.174a19.567 19.567 0 00-.741-1.598 59.95 59.95 0 00-1.74-3.095c-.61-1.021-1.316-1.982-2.032-2.93a113.222 113.222 0 01-4.283-6.134c-.644-.983-1.286-1.968-1.933-2.95-.619-.939-1.26-1.867-1.992-2.722a11.688 11.688 0 00-1.094-1.128l-.58.75c.737.531 1.252 1.445 1.712 2.228.253.429.494.865.753 1.29.297.487.622.957.915 1.447.656 1.098 1.232 2.244 1.774 3.4.552 1.176 1.107 2.356 1.617 3.551.5 1.173.902 2.385 1.387 3.563.249.603.513 1.197.818 1.773.276.523.57 1.037.831 1.569.259.527.456 1.07.607 1.637.13.483.33.943.487 1.416.069.21.14.426.172.645a.793.793 0 01-.053.478c-.108.276-.427.605-.722.836-.83.653-1.72.991-2.707 1.254-1.341.357-2.726.422-4.105.498-.613.033-.617.987 0 .955 2.327-.126 4.746-.292 6.787-1.535.795-.485 1.659-1.187 1.762-2.174.052-.499-.14-1.02-.305-1.48a37.109 37.109 0 01-.51-1.562c-.375-1.21-1.058-2.273-1.618-3.402-.592-1.195-1.02-2.458-1.5-3.699-.488-1.268-1.067-2.497-1.63-3.733-.553-1.214-1.122-2.424-1.768-3.594-.632-1.15-1.37-2.234-2.029-3.37-.591-1.021-1.22-2.109-2.197-2.814-.44-.317-.982.39-.58.75 1.678 1.507 2.833 3.504 4.057 5.367 1.418 2.157 2.808 4.33 4.358 6.397.73.976 1.48 1.936 2.159 2.95.682 1.015 1.27 2.094 1.866 3.161.289.517.57 1.042.823 1.579.244.517.416 1.075.7 1.573.488.859 1.36 1.546 2.156 2.104 1.625 1.134 3.686 1.632 5.655 1.619.87-.006 1.759-.14 2.542-.531a3.293 3.293 0 001.653-1.934c.744-2.236-.182-4.677-1.183-6.674-1.1-2.19-2.424-4.259-3.849-6.252a104.273 104.273 0 00-4.546-5.873 54.148 54.148 0 00-2.497-2.84c-.792-.833-1.665-1.583-2.46-2.413a10.913 10.913 0 01-1.077-1.295l-.752.579c1.733 1.565 2.976 3.558 4.51 5.299.761.865 1.503 1.722 2.165 2.667.667.951 1.28 1.938 1.874 2.936.592.997 1.165 2.007 1.753 3.007.592 1.008 1.21 2.001 1.787 3.018.584 1.035 1.155 2.078 1.791 3.082.615.971 1.314 1.867 2.042 2.756.559.684 1.182 1.268 2.071 1.476 1.197.281 2.49.076 3.658-.246.485-.134.966-.208 1.46-.29.492-.082.973-.229 1.36-.554.33-.277.521-.678.692-1.063.176-.401.339-.814.459-1.235.625-2.194-.398-4.483-1.331-6.43-1.076-2.247-2.069-4.525-3.04-6.819-.958-2.265-1.862-4.571-3.195-6.646-1.243-1.936-2.713-3.715-3.985-5.632a27.49 27.49 0 01-.902-1.454l-.827.481c1.546 2.109 3.176 4.165 4.547 6.397 1.402 2.281 2.525 4.721 3.747 7.1a55.11 55.11 0 001.831 3.285c.64 1.062 1.286 2.121 1.809 3.248.237.513.452 1.042.603 1.586.138.495.236 1 .355 1.501.245 1.029.593 2.05 1.408 2.775 1.601 1.426 4.064 1.293 5.842.258.847-.492 1.372-1.277 1.492-2.245.113-.912-.113-1.85-.327-2.732-.617-2.526-1.01-5.11-1.745-7.606-.186-.633-.416-1.252-.585-1.89-.168-.643-.298-1.294-.44-1.943-.136-.624-.274-1.252-.483-1.858a12.899 12.899 0 00-.78-1.775c-.588-1.122-1.31-2.165-1.952-3.257-.641-1.094-1.237-2.216-1.9-3.297-.599-.977-1.308-1.878-1.938-2.835-.594-.899-1.171-1.821-1.889-2.629a6.038 6.038 0 00-1.104-.987c-.306-.21-.72.071-.72.413-.002.548.284.973.743 1.254.541.31 1.021-.517.497-.836z" fill="#222221"/><path d="M126.163 112.967c1.906.191 3.06-1.583 4.42-2.551 1.913-1.363 4.055-2.371 6.126-3.467a360.722 360.722 0 013.8-1.989c.548-.283.064-1.105-.482-.825a543.091 543.091 0 00-6.42 3.36c-.999.533-1.99 1.087-2.936 1.709-.784.515-1.45 1.126-2.151 1.745-.671.593-1.427 1.157-2.357 1.065-.258-.027-.478.239-.478.477 0 .277.22.449.478.476zM85.81 133.533c.074.546.434 1 .8 1.392.17.181.347.357.51.546l.06.07.018.023c.033.04.025.031-.019-.024.002.03.079.108.096.133.07.103.128.21.176.323.098.231.458.298.656.172.24-.155.277-.407.172-.653-.2-.468-.582-.833-.927-1.195a6.066 6.066 0 01-.24-.264c-.015-.017-.084-.126-.107-.13.044.058.05.065.02.025-.007-.007-.012-.017-.018-.025l-.052-.074a1.998 1.998 0 01-.092-.153l-.04-.078-.02-.04.02.046c.008-.035-.046-.13-.055-.168a1.508 1.508 0 01-.035-.178c-.035-.248-.366-.405-.59-.334-.274.088-.37.319-.333.586zm-10.54-22.918c.014.107.029.212.042.319l.893-.241c-.755-1.34-1.657-2.671-2.942-3.559-.989-.683-2.408-.897-3.558-.536-2.747.861-2.1 4.84-.63 6.561a3.247 3.247 0 001.703 1.064c.747.175 1.525.078 2.247-.155.146-.048.31-.17.335-.334.021-.135.04-.271.062-.407.038-.253-.064-.513-.336-.588-.226-.061-.55.077-.59.335l-.06.406.334-.334c-.492.159-1.059.264-1.54.195a2.212 2.212 0 01-1.228-.592c-.752-.708-1.103-1.726-1.193-2.739-.086-.963.053-2.053.984-2.435.853-.349 1.998-.217 2.755.233 1.268.756 2.123 2.114 2.828 3.366.216.384.957.246.892-.24-.013-.107-.028-.212-.042-.319-.034-.256-.195-.478-.479-.478-.23 0-.511.22-.477.478zm7.979 5.601c-.74-.664-1.441-1.371-2.242-1.965-.724-.536-1.618-1.023-2.551-.845-1.119.212-1.7 1.353-2.07 2.312-.466 1.208-.587 2.751.327 3.793.739.842 1.952.655 2.948.617.614-.025.616-.98 0-.955-.426.017-.85.057-1.278.044-.32-.01-.58-.046-.833-.223.069.049-.056-.046-.056-.048a1.217 1.217 0 01-.07-.071.807.807 0 01-.139-.187 2.225 2.225 0 01-.256-.674c-.129-.574-.018-1.17.164-1.72.163-.496.378-1.023.705-1.437a2 2 0 01.357-.346.916.916 0 01.41-.176c.091-.021.03-.007.007-.005a1.799 1.799 0 01.37 0c-.079-.01.12.026.155.034.098.025.192.055.285.092.096.036.297.137.44.219.183.107.357.224.53.348.758.55 1.421 1.239 2.12 1.867.456.412 1.134-.262.677-.674zm3.948 4.519c-.295-.05-.533-.216-.774-.386a6.276 6.276 0 00-.814-.504c-.22-.109-.403-.357-.663-.466-.301-.126-.606-.061-.891.069-.5.227-.916.662-1.274 1.067-.27.306-.544.624-.745.981-.404.718-.613 1.543-.709 2.356-.094.792-.055 1.661.324 2.381.483.918 1.471 1.151 2.429.947.601-.128.347-1.048-.255-.92a1.55 1.55 0 01-.494.047l-.127-.007c.117.011-.011-.002-.032-.006a1.598 1.598 0 01-.253-.075c.117.046-.063-.04-.092-.055-.025-.013-.05-.032-.073-.048.1.069.008.006-.011-.011a2.59 2.59 0 01-.146-.149c-.076-.09.054.084-.01-.015a3.328 3.328 0 01-.076-.121 2.37 2.37 0 01-.1-.196c.046.107-.032-.103-.044-.138a3.081 3.081 0 01-.103-.475c.015.115-.002-.027-.002-.042a4.08 4.08 0 01-.02-.391c-.001-.18.007-.361.024-.539.019-.219.02-.229.063-.462a6.422 6.422 0 01.366-1.256 3.105 3.105 0 01.278-.513c.122-.187.122-.176.266-.35.29-.351.613-.725.975-.987a3.53 3.53 0 01.14-.093c.017-.01.176-.094.115-.067.042-.017.09-.023.132-.042-.058.025-.002.017-.03-.01.174.159.39.338.614.443.604.287 1.073.844 1.755.961.255.043.515-.067.59-.335.065-.234-.077-.549-.333-.593zm-2.263 5.904c.048.688.13 1.385.43 2.013a2.15 2.15 0 001.369 1.143c.41.117.849.13 1.272.099.249-.017.49-.206.479-.477-.012-.242-.21-.496-.48-.477-.18.013-.36.019-.54.009-.074-.003-.147-.013-.221-.019-.031-.002.095.018-.002-.002l-.123-.022a2.32 2.32 0 01-.28-.083c-.1-.034.07.035 0 .002a1.626 1.626 0 01-.23-.126c-.011-.007-.02-.015-.032-.021-.067-.044.011-.002.025.021-.025-.04-.088-.074-.123-.107-.042-.04-.078-.087-.119-.129-.04-.042.062.086.03.036l-.024-.031c-.015-.021-.028-.042-.044-.063a1.388 1.388 0 01-.098-.168l-.036-.07c-.054-.113.006-.002-.002.002a2.662 2.662 0 00-.069-.184 4.018 4.018 0 01-.153-.633l-.021-.13c-.017-.113.008.061-.004-.023-.021-.187-.04-.376-.054-.565-.017-.248-.207-.489-.478-.478-.238.016-.49.216-.472.483z" fill="#222221"/><path d="M69.382 78.97c3.084.239 6.173.103 9.261.078 1.562-.011 3.125.006 4.682.119 1.53.11 3.03.362 4.542.618 2.942.496 5.887.989 8.796 1.657 1.487.342 2.962.73 4.42 1.178 1.199.37 2.331.796 3.404 1.453 2.057 1.256 3.735 3.022 5.375 4.763.417.445.835.89 1.256 1.33.194.203.389.404.587.604.254.258.448.55.658.846a50.031 50.031 0 002.615 3.331 63.62 63.62 0 002.983 3.242c.484.494.948.947 1.272 1.567.285.548.477 1.136.693 1.712.23.611.483 1.224.868 1.757.4.551.889 1.015 1.373 1.493.2.196.443.401.6.632.188.276.345.567.557.83.43.531.784 1.113 1.119 1.71 1.418 2.53 1.92 5.502 2.312 8.341.201 1.453.347 2.913.502 4.372.081.756.163 1.51.253 2.266.042.357.071.722.155 1.073.09.374.167.754.219 1.136.097.722.101 1.455.013 2.178-.031.256.243.477.479.477.285 0 .448-.219.479-.477a9.033 9.033 0 00-.033-2.323c-.099-.731-.279-1.442-.368-2.175-.18-1.514-.327-3.033-.498-4.547-.168-1.483-.36-2.965-.63-4.433-.272-1.478-.592-2.988-1.13-4.395a14.859 14.859 0 00-.877-1.88c-.349-.632-.715-1.306-1.194-1.846a4.404 4.404 0 01-.49-.706c-.171-.291-.422-.533-.657-.772-.462-.466-.97-.901-1.358-1.433-.776-1.062-.983-2.41-1.606-3.553-.337-.623-.808-1.098-1.3-1.598a69.016 69.016 0 01-1.571-1.648 55.444 55.444 0 01-2.828-3.304 42.389 42.389 0 01-1.279-1.72c-.19-.268-.362-.527-.594-.76a75.164 75.164 0 01-.678-.697c-1.69-1.764-3.304-3.62-5.241-5.126-.969-.754-2.008-1.422-3.138-1.913-1.312-.57-2.722-.943-4.103-1.313-2.933-.787-5.917-1.348-8.907-1.862-1.522-.261-3.043-.547-4.571-.767a40.244 40.244 0 00-4.768-.374c-3.119-.073-6.24.112-9.358.027a46.057 46.057 0 01-2.298-.119c-.611-.051-.61.903.002.95zm-15.237 32.714a6.96 6.96 0 01-.008.565c-.011.17-.011.204-.055.366a1.112 1.112 0 01-.044.136c-.023.067.036-.071.004-.012-.008.016-.016.033-.025.048-.023.04-.048.078-.071.117-.065.103.027-.021-.04.051-.366.411-.734.842-.939 1.358-.236.591-.247 1.282-.218 1.909.028.609.097 1.246.287 1.829.38 1.158 1.237 1.983 2.356 2.441 1.061.435 2.255.523 3.39.529 1.1.004 2.198-.088 3.296-.13 1.574-.061 3.019-.55 4.342-1.393.738-.472 1.435-1.003 2.169-1.48.766-.5 1.54-.989 2.28-1.527a17.2 17.2 0 00.988-.766c.03-.023.06-.046.092-.068.07-.052.141-.102.212-.151.374-.26.753-.512 1.13-.766.95-.645 1.899-1.309 2.753-2.079.692-.622 1.49-1.422 1.592-2.394a1.463 1.463 0 00-.054-.576c-.174-.588-1.1-.338-.923.254.011.04.017.082.03.12-.022-.08-.001-.061-.001.011 0 .037 0 .073-.002.111 0 .021-.004.042-.006.063.002-.031.021-.09.002-.031-.025.083-.044.167-.07.247-.033.103.022-.038-.016.038-.023.046-.044.092-.07.135-.221.409-.438.644-.786.991-.769.766-1.602 1.365-2.489 1.98-.691.479-1.42.918-2.078 1.443-1.34 1.067-2.814 1.925-4.21 2.912-1.202.849-2.4 1.613-3.874 1.872-.59.103-1.191.103-1.79.136-.522.029-1.045.061-1.57.08-1.101.04-2.207.036-3.241-.21-.521-.124-.92-.265-1.355-.54a2.745 2.745 0 01-.934-.966c-.242-.418-.364-.918-.431-1.407-.083-.59-.115-1.275-.023-1.831.023-.132.052-.263.094-.391.007-.021.063-.159.028-.086a2.05 2.05 0 01.111-.201c.148-.248.25-.383.418-.576.295-.336.55-.657.634-1.107.065-.348.075-.701.067-1.052-.004-.617-.962-.619-.952-.002zm3.36-1.455c.764.076 1.536.201 2.24-.189.28-.156.528-.357.848-.433.306-.073.626-.056.938-.073.372-.021.73-.08 1.071-.233.307-.137.577-.359.841-.563.48-.372.918-.79 1.377-1.185.431-.371.887-.709 1.403-.951.628-.294 1.346-.369 2.025-.47.75-.112 1.505-.221 2.231-.452.75-.239 1.466-.567 2.218-.796.625-.189 1.38-.396 1.975-.304.112.017.28.063.35.096a.763.763 0 01.215.152.62.62 0 01.112.187c.05.147.053.279.047.438-.02.614.937.612.958 0 .021-.619-.205-1.209-.749-1.547-.473-.292-1.082-.336-1.62-.275-.791.088-1.556.315-2.3.584-.77.277-1.51.596-2.313.764-.79.166-1.594.246-2.385.397a5.166 5.166 0 00-1.868.749c-.532.349-1.01.775-1.484 1.198-.232.207-.464.413-.705.608-.236.19-.492.412-.774.528-.34.142-.724.119-1.084.136-.439.019-.862.086-1.257.288-.3.155-.567.403-.908.462-.456.078-.95-.027-1.402-.072-.259-.025-.479.236-.479.477 0 .281.22.452.479.479z" fill="#222221"/><path d="M53.212 113.679c.048-.132.098-.26.151-.39l-.047.115c.166-.393.365-.771.6-1.128a.48.48 0 00-.173-.653.49.49 0 00-.655.171 7.875 7.875 0 00-.8 1.633c-.083.235.097.532.336.588.266.057.496-.084.588-.336zm5.95 8.72c.23 1.573 1.036 2.887 2.107 4.036.512.548 1.046 1.09 1.617 1.579.444.38.94.737 1.523.869 1.513.345 2.99-.667 4.233-1.371.4-.227.805-.426 1.243-.565.422-.134.855-.224 1.286-.321.816-.183 1.607-.416 2.304-.893 1.194-.817 2.042-2.045 3.34-2.723 1.51-.788 2.92-1.775 4.116-2.995.446-.456.862-.945 1.289-1.42.45-.501.895-1.005 1.316-1.528.421-.523.835-1.061 1.165-1.649.29-.517.523-1.088.477-1.692-.115-1.483-1.38-2.655-2.558-3.417-.632-.408-1.325-.72-2.069-.867-.894-.177-1.808-.169-2.714-.141-.444.015-.89.033-1.335.033-.617.002-.617.956 0 .954 1.596-.004 3.366-.3 4.862.409.56.265 1.09.614 1.557 1.023.464.407.912.886 1.155 1.459.115.273.167.53.15.813-.006.08-.025.179-.054.277-.015.051-.03.101-.05.15l-.032.088-.02.046c-.243.537-.586 1.027-.94 1.495-.7.924-1.504 1.758-2.264 2.629a14.903 14.903 0 01-3.651 3.02c-.667.391-1.353.712-1.956 1.201-.529.425-.995.92-1.493 1.38-.47.433-.988.848-1.595 1.079-.791.301-1.644.397-2.452.641-1.548.47-2.791 1.726-4.414 1.978a1.766 1.766 0 01-1.178-.235c-.5-.292-.925-.729-1.356-1.153-.99-.978-1.985-2.003-2.429-3.352a6.477 6.477 0 01-.25-1.092c-.04-.256-.363-.396-.59-.335-.279.077-.376.333-.34.59z" fill="#222221"/><path d="M64.46 129.873c.175-.971-.204-1.855-.704-2.67-.234-.382-.928-.252-.893.24.056.777.092 1.56.228 2.329a6.86 6.86 0 00.736 2.06c.203.376.442.729.658 1.098.202.345.39.697.596 1.038.422.695.94 1.335 1.657 1.74 3.138 1.775 6.898.637 9.678-1.268.691-.475 1.35-1 1.967-1.567.305-.281.598-.571.931-.819.347-.256.71-.493 1.067-.733.736-.497 1.475-1.033 1.96-1.793.442-.695.605-1.522 1.055-2.217.864-1.332 2.266-2.21 3.157-3.526.364-.538.632-1.153.935-1.727.348-.661.69-1.329.977-2.02.241-.582.477-1.222.47-1.86a3.165 3.165 0 00-.7-1.945c-.799-.972-2.159-1.193-3.345-1.262a22.059 22.059 0 00-.892-.03c-.617-.012-.617.943 0 .954 1.078.019 2.231.025 3.116.603.385.252.661.659.786 1.161.065.264.093.531.059.8.01-.074-.015.082-.02.101a5.249 5.249 0 01-.184.661c-.413 1.206-1.095 2.302-1.66 3.442-.665 1.338-1.904 2.205-2.87 3.306a6.831 6.831 0 00-1.24 2.064c-.13.336-.26.67-.45.978-.217.347-.514.633-.828.893-.61.504-1.309.893-1.94 1.369-.643.483-1.194 1.065-1.815 1.573-2.325 1.905-5.53 3.45-8.578 2.52-.732-.224-1.427-.554-1.938-1.132-.483-.548-.797-1.23-1.165-1.854-.372-.632-.782-1.231-1.021-1.928-.209-.605-.295-1.222-.349-1.852-.032-.386-.055-.773-.084-1.159l-.893.241c.347.567.732 1.245.61 1.936-.047.254.068.513.335.588.235.065.547-.079.591-.333z" fill="#222221"/><path d="M73.521 135.975c-.013.758.117 1.548.53 2.199.369.578.913.987 1.547 1.237 1.308.517 2.862.313 4.172-.086 1.36-.414 2.691-1.098 3.684-2.128 1.436-1.489 3.26-2.664 4.216-4.555.297-.587.456-1.211.697-1.816.253-.636.605-1.229.86-1.865.546-1.365.259-2.776.251-4.198-.004-.615-.962-.615-.958 0 .008 1.153.28 2.371-.06 3.497-.162.542-.434 1.041-.68 1.548-.256.531-.432 1.071-.627 1.623-.318.894-.836 1.686-1.487 2.373-.67.708-1.433 1.321-2.144 1.986-.329.307-.635.639-.963.95a4.75 4.75 0 01-.644.522 8.552 8.552 0 01-1.72.908 9.18 9.18 0 01-1.973.527c-.151.023.094-.009-.057.008l-.138.015c-.077.008-.152.013-.228.019a5.76 5.76 0 01-.97-.009c-.028-.002-.055-.006-.084-.01-.14-.015.098.017-.04-.006a4.19 4.19 0 01-.71-.172l-.112-.04c-.122-.045.088.042-.029-.011-.07-.033-.14-.065-.206-.101a3.331 3.331 0 01-.292-.182c-.076-.053.054.052-.038-.028a3.11 3.11 0 01-.333-.329 2.57 2.57 0 01-.213-.334l-.046-.091c-.01-.019-.067-.155-.027-.058a2.852 2.852 0 01-.086-.244c-.126-.418-.147-.699-.14-1.151.016-.613-.942-.613-.952.002z" fill="#222221"/><path d="M86.662 134.234c.408 1.617 2.201 1.769 3.598 1.701.653-.033 1.3-.092 1.953-.107.818-.019 1.627-.288 2.364-.623.769-.347 1.525-.828 2.044-1.5.544-.705.556-1.545.49-2.398-.034-.441-.09-.88-.118-1.323-.035-.504-.01-1.012-.02-1.518a12.475 12.475 0 00-.566-3.457c-.2-.649-.43-1.29-.663-1.93-.222-.611-.418-1.239-.728-1.812-.523-.969-1.339-1.741-1.912-2.68-.249-.407-.88-.233-.892.241-.07 2.903 1.973 5.19 2.576 7.93.132.599 1.056.345.923-.254-.58-2.635-2.607-4.895-2.542-7.676l-.892.24c.48.787 1.124 1.449 1.632 2.215.576.868.867 1.907 1.21 2.882.36 1.025.717 2.079.83 3.164.1.964.02 1.932.105 2.896.067.761.253 1.685.071 2.392-.067.261-.224.487-.435.706a4.117 4.117 0 01-.83.649 6.431 6.431 0 01-2.11.834c-.502.1-1.169.077-1.747.121-.376.028-.751.055-1.127.063-.339.007-.777-.008-1.03-.052-.37-.063-.592-.132-.866-.319-.069-.045.079.073-.025-.019a2.064 2.064 0 01-.155-.154c-.09-.103.042.07-.034-.046a1.042 1.042 0 01-.18-.422c-.15-.594-1.075-.342-.924.256z" fill="#222221"/><path d="M95.087 123.644l.141-.41-.8.21c.709.903 1.44 1.787 2.155 2.684.645.809 1.253 1.647 1.873 2.476.58.777 1.196 1.531 1.885 2.216.638.634 1.355 1.247 2.174 1.631 1.131.528 2.429.756 3.661.899 1.331.154 2.728.158 4.032-.191 1.387-.372 2.6-1.239 3.004-2.665.167-.592-.757-.846-.923-.254a2.17 2.17 0 01-.307.697 2.292 2.292 0 01-.475.542c-.126.111-.119.105-.258.197a4.53 4.53 0 01-.355.21c-.26.137-.415.196-.724.292-1.182.362-2.431.37-3.697.248-1.046-.101-2.205-.323-3.253-.71-.751-.277-1.404-.814-1.978-1.358a17.036 17.036 0 01-1.786-2.012c-.682-.889-1.327-1.802-2.025-2.68-.77-.97-1.559-1.925-2.325-2.898-.24-.306-.697-.092-.8.21-.049.137-.095.273-.142.41-.085.245.095.521.335.588.26.073.504-.088.588-.332z" fill="#222221"/><path d="M112.748 131.469c.5-.007.786.056 1.276.157.498.103.993.227 1.491.328.994.203 2.084.367 3.047-.051 1.209-.525 1.548-1.821 1.778-2.999.174-.894.282-1.801.339-2.707.052-.84.08-1.684-.04-2.519-.209-1.437-.973-2.724-1.634-3.993-.761-1.463-1.697-2.822-2.665-4.153-1.891-2.602-3.929-5.158-5.03-8.216a23.731 23.731 0 01-.655-2.051c-.113-.441-.203-.885-.328-1.324-.255-.896-.705-2.034-1.778-2.137a1.651 1.651 0 00-.741.117c-.293.114-.442.406-.285.7.339.64.722 1.253 1.069 1.887.343.624.622 1.263.846 1.939.431 1.308.79 2.648 1.722 3.706.171.193.502.173.679 0 .193-.193.17-.481 0-.676-.864-.981-1.138-2.301-1.55-3.503-.471-1.373-1.263-2.562-1.939-3.836-.096.233-.191.468-.285.701.105-.04.212-.078.325-.094-.09.012.033.006.064.004.019-.002.04.002.059.002-.065-.004-.046-.013.008.004.042.013.084.023.126.038-.078-.03-.015-.006.021.017.014.01.119.082.077.05-.037-.029.061.059.082.08.033.035.065.069.094.107-.055-.069.021.034.037.057a2.874 2.874 0 01.258.504c.042.115.084.231.121.348.136.429.232.872.337 1.309.138.583.326 1.154.515 1.721a20.464 20.464 0 001.906 4.135c.814 1.347 1.749 2.617 2.682 3.885.937 1.271 1.875 2.544 2.691 3.896.408.674.765 1.373 1.127 2.071.299.577.611 1.153.827 1.768.506 1.43.376 3.005.213 4.488a15.99 15.99 0 01-.448 2.436c-.132.481-.324.869-.678 1.173-.058.049.025-.01-.062.045-.036.023-.072.048-.111.071-.044.025-.088.05-.134.073-.025.013-.052.024-.078.036.044-.019.03-.014-.008 0a3.437 3.437 0 01-.295.088 4.578 4.578 0 01-.153.03c-.108.019.011.004-.098.014a4.736 4.736 0 01-.663.007c-.115-.007-.23-.019-.345-.03-.025-.002-.049-.006-.074-.01.071.01-.014-.002-.023-.004-.067-.009-.136-.021-.203-.032-.975-.162-1.924-.456-2.904-.573a4.493 4.493 0 00-.602-.036c-.622.006-.624.96-.008.952zm8.751-4.36c.617 0 .617-.954 0-.954s-.617.954 0 .954z" fill="#222221"/><path d="M121.258 127.044c1.383.686 2.658 1.59 4.12 2.117.607.218 1.303.376 1.94.199.698-.193 1.133-.775 1.339-1.441.144-.462.188-.961.198-1.442.013-.708-.002-1.42-.006-2.128-.004-.737.033-1.482-.015-2.215a11.588 11.588 0 00-.29-1.796c-.143-.627-.304-1.251-.354-1.892-.057-.718-.044-1.44-.153-2.154-.107-.704-.345-1.39-.544-2.071-.201-.693-.422-1.388-.583-2.092-.149-.651-.222-1.318-.354-1.972-.126-.625-.299-1.255-.72-1.747-.337-.394-.795-.668-1.219-.959a2.978 2.978 0 01-.505-.401c-.159-.158-.23-.274-.276-.475-.136-.599-1.059-.345-.923.254.212.934 1.147 1.344 1.84 1.875.307.235.531.494.663.878.186.542.274 1.115.366 1.678.213 1.311.602 2.57.969 3.845.186.641.362 1.266.408 1.936.048.693.043 1.384.15 2.071.182 1.176.576 2.295.584 3.495.004.709-.004 1.415.002 2.123.004.672.031 1.35-.008 2.02-.021.384-.071.754-.228 1.13.037-.087-.044.086-.057.109a2.29 2.29 0 01-.113.176c-.042.059.077-.08-.004.002-.025.025-.046.051-.071.076l-.074.069c-.083.072.084-.052-.008.006a3.486 3.486 0 01-.169.095c-.094.05.077-.025.01-.004a1.176 1.176 0 00-.077.027 1.798 1.798 0 01-.193.044c.14-.027-.069.004-.111.004a2.18 2.18 0 01-.198-.004c-.034-.002-.241-.029-.115-.01a4.034 4.034 0 01-.473-.105c-.758-.215-1.406-.567-2.139-.971-.707-.392-1.401-.812-2.125-1.171-.552-.277-1.036.546-.484.821zM84.126 78.21a1.02 1.02 0 01-.502-.246 2.11 2.11 0 01-.414-.521c-.247-.413-.406-.833-.588-1.266-.435-1.039-1.172-2.03-1.335-3.163-.065-.462.054-.838.276-1.249.264-.487.601-.931.967-1.346.694-.786 1.504-1.592 2.55-1.863 1.214-.317 2.358.189 3.308.916 1.032.79 1.908 1.774 2.732 2.77.9 1.087 1.75 2.217 2.718 3.246.889.945 1.868 1.815 3.073 2.333.526.227 1.07.399 1.622.551.586.163 1.163.27 1.672.615.495.336.931.71 1.491.94.477.194.986.316 1.446.551a1.4 1.4 0 01.513.397c.161.203.51.168.678 0 .2-.198.161-.473 0-.676-.362-.452-.948-.677-1.478-.868-.539-.193-1.018-.342-1.485-.672-.546-.388-1.038-.789-1.697-.97-.598-.164-1.2-.311-1.786-.512-1.243-.424-2.224-1.187-3.132-2.119-1.038-1.063-1.932-2.25-2.877-3.396-.889-1.08-1.83-2.117-2.944-2.969-1.103-.843-2.385-1.359-3.795-1.126-1.226.202-2.209 1.023-3.034 1.898-.782.83-1.676 1.886-1.785 3.066-.117 1.25.674 2.453 1.203 3.528.22.446.38.912.616 1.407.242.507.552.996 1.01 1.336.213.158.46.271.72.326.604.13.862-.79.257-.918z" fill="#222221"/><path d="M91.499 72.296h2.83c.932 0 1.87-.03 2.802.017.823.044 1.636.174 2.45.303.843.134 1.682.228 2.53.306 1.197.109 2.376.514 3.209 1.403.425.454.724 1.01.965 1.58.109.262.205.531.274.805.065.265.081.33.079.586 0 .063-.004.124-.01.185.01-.101-.006.03-.013.069-.012.05-.027.099-.04.148-.039.125.019-.01-.033.079-.025.044-.048.09-.075.131a.8.8 0 01-.044.063c-.04.058.075-.08-.009.012a1.961 1.961 0 01-.24.227c.067-.053-.063.042-.084.055a2.922 2.922 0 01-.531.268 7.13 7.13 0 01-1.063.296c-.253.053-.4.349-.335.588.073.261.335.385.59.334 1.084-.228 2.4-.659 2.756-1.837.154-.506.087-1.06-.051-1.561a7.183 7.183 0 00-.837-1.898c-.761-1.207-1.962-1.993-3.345-2.312-.803-.185-1.628-.195-2.442-.3-.89-.116-1.772-.286-2.663-.395-1.088-.132-2.18-.11-3.276-.11h-3.396c-.615.003-.615.958.002.958z" fill="#222221"/><path d="M103.374 81.016c1.749.14 3.53.092 5.241-.318 1.8-.432 3.375-1.388 4.973-2.287 1.618-.911 3.277-1.738 4.863-2.704.778-.473 1.546-.964 2.318-1.449.795-.5 1.63-.954 2.408-1.477.676-.455 1.228-1.039 1.716-1.684.521-.687.899-1.46 1.355-2.188.927-1.48 1.994-2.864 3.026-4.269.525-.714 1.012-1.441 1.631-2.079.588-.607 1.224-1.18 1.718-1.87.245-.344.448-.716.697-1.06.238-.33.49-.647.751-.96.534-.644 1.096-1.266 1.617-1.919.527-.66 1.019-1.336 1.599-1.951a21.79 21.79 0 011.807-1.693c.639-.542 1.3-1.058 1.959-1.573.688-.537 1.378-1.058 1.996-1.675l.924-.918c.436-.435-.24-1.11-.678-.676-.617.615-1.213 1.247-1.897 1.789-.661.525-1.329 1.037-1.988 1.564-1.28 1.019-2.519 2.096-3.556 3.365-.54.665-1.045 1.352-1.603 2.003-.542.634-1.09 1.264-1.59 1.932-.251.336-.488.681-.707 1.038-.214.352-.482.657-.766.955-.569.6-1.186 1.153-1.695 1.808-.562.723-1.079 1.483-1.625 2.22-.513.693-1.028 1.386-1.523 2.094a30.56 30.56 0 00-1.385 2.154c-.21.364-.4.737-.643 1.082-.219.31-.45.607-.709.884a5.48 5.48 0 01-.85.754c-.372.262-.784.475-1.171.712-.776.474-1.544.962-2.314 1.447a76.83 76.83 0 01-2.295 1.402c-.814.473-1.651.897-2.48 1.344-.801.43-1.59.883-2.383 1.326-.797.443-1.596.919-2.452 1.24-1.609.603-3.332.788-5.042.748a22.48 22.48 0 01-1.247-.067c-.259-.021-.479.235-.479.477 0 .277.22.458.479.48z" fill="#222221"/><path d="M121.02 71.819l-.046.41c-.054.466.697.659.893.24.308-.66.708-1.126 1.22-1.637.504-.506 1.05-.968 1.555-1.47l-.678-.676-.929.926a.486.486 0 000 .675.487.487 0 00.678 0l.929-.925a.486.486 0 000-.676.487.487 0 00-.678 0c-1.038 1.029-2.295 1.943-2.927 3.302l.893.24.046-.41c.029-.255-.241-.477-.479-.477-.282 0-.448.22-.477.478z" fill="#222221"/><path d="M122.876 71.034c.63-.107 1.238-.367 1.776-.705.172-.108.287-.334.22-.538-.061-.189-.247-.368-.461-.351l-.412.034a.519.519 0 00-.339.14.482.482 0 00-.14.337c.011.24.211.5.479.478l.412-.035-.242-.89a5.015 5.015 0 01-.595.323l-.081.037.033-.014-.056.023a4.154 4.154 0 01-.849.24.484.484 0 00-.285.22.49.49 0 00-.048.369c.086.265.324.376.588.332zm3.962 41.61c2.869-2.745 6.369-4.708 9.936-6.405a148.789 148.789 0 013.377-1.541c.236-.105.291-.448.172-.652-.141-.243-.417-.277-.655-.172-3.77 1.672-7.555 3.419-10.878 5.887a27.598 27.598 0 00-2.63 2.207c-.445.426.233 1.102.678.676zM50.536 65.305c2.565 3.052 5.624 5.66 8.977 7.82a49.72 49.72 0 005.185 2.901c1.856.903 3.772 1.659 5.678 2.45 2.306.954 4.634 1.952 7.1 2.41.552.104.803-.545.37-.872-.84-.632-1.892-.433-2.836-.756-.499-.17-.956-.435-1.437-.645-.51-.222-1.046-.369-1.573-.542a36.51 36.51 0 01-5.727-2.473c-1.92-1.025-3.768-2.19-5.611-3.344a97.73 97.73 0 01-5.437-3.633c-1.975-1.43-3.87-2.967-5.635-4.649l-.34.815.378.033c.259.023.479-.235.479-.477 0-.277-.22-.455-.479-.478-.126-.011-.25-.02-.377-.032-.42-.036-.625.542-.34.815 3.186 3.032 6.79 5.588 10.496 7.944 3.646 2.317 7.331 4.604 11.415 6.078.577.208 1.161.401 1.747.582.561.174 1.069.455 1.603.692a5.605 5.605 0 001.723.456c.534.057 1.026.107 1.47.439l.37-.873c-2.18-.404-4.252-1.237-6.294-2.077-1.881-.777-3.78-1.515-5.62-2.382-3.529-1.661-6.904-3.69-9.9-6.193a37.77 37.77 0 01-4.703-4.683c-.167-.199-.506-.172-.678 0-.201.195-.17.475-.004.674zm-8.381 38.92c1.316 1.153 3.014 1.556 4.508 2.404.774.437 1.371 1.071 2.067 1.613.735.574 1.578.895 2.42 1.283.951.439 1.895.943 2.978.75.255-.046.398-.355.335-.588-.073-.267-.333-.38-.59-.334-.793.141-1.588-.355-2.278-.67-.77-.353-1.58-.64-2.252-1.169-.673-.527-1.259-1.149-1.996-1.594-.692-.42-1.445-.719-2.186-1.038-.822-.353-1.65-.739-2.328-1.333-.193-.17-.486-.191-.678 0-.174.176-.195.506 0 .676z" fill="#222221"/><path d="M55.875 109.338c-1.412.181-2.797.603-4.234.471l.242.065c-3.305-1.653-6.205-3.971-9.057-6.287-.201-.162-.481-.194-.678 0-.169.168-.202.512 0 .676 1.61 1.308 3.23 2.61 4.925 3.805a37.91 37.91 0 002.572 1.674c.424.25.855.491 1.291.72.242.126.477.279.75.305.267.027.538.031.806.021 1.145-.038 2.25-.351 3.383-.496.256-.032.479-.197.479-.477 0-.233-.22-.512-.48-.477zm19.835.973c-.166-.683-.674-1.184-1.212-1.605a26.463 26.463 0 01-1.517-1.291c-.465-.424-.962-.861-1.57-1.06-.639-.208-1.29-.021-1.811.375-.983.744-1.584 1.977-2.017 3.1-.178.464-.366 1.002-.316 1.508.06.607.377 1.144.793 1.579.465.487 1.046.861 1.615 1.214.513.319 1.084.636 1.484 1.004.452.416 1.132-.257.678-.675-.77-.709-1.756-1.129-2.584-1.761-.371-.284-.71-.605-.913-1.017a1.489 1.489 0 01-.09-.254c-.008-.027-.037-.185-.025-.09-.006-.044-.006-.088-.006-.132 0-.047.004-.097.008-.145.007-.087-.01.039.007-.053.021-.117.048-.233.08-.348.14-.505.355-.988.596-1.454.123-.237.253-.47.393-.697a6.577 6.577 0 01.322-.474c-.027.037-.025.031.002-.001.191-.231.406-.459.66-.621.208-.13.393-.195.594-.191.17.004.355.075.535.176.222.126.423.282.617.45.528.457 1.019.943 1.574 1.369.47.359 1.037.749 1.184 1.352.142.592 1.067.34.92-.258zm6.414 5.878c-.027-.002-.184-.025-.07-.004a2.152 2.152 0 01-.156-.034c-.046-.013-.09-.029-.134-.044-.013-.004-.092-.038-.038-.013.057.025-.058-.029-.058-.029a4.392 4.392 0 01-.282-.16c-.043-.029-.088-.058-.13-.088l-.075-.054c-.118-.085.035.029-.032-.022-.402-.317-.76-.682-1.138-1.028-.712-.652-1.65-1.382-2.68-1.025-1.078.374-1.78 1.516-1.969 2.593-.19 1.069-.025 2.232.557 3.161.305.489.732.924 1.253 1.18.619.304 1.28.359 1.954.242.255-.043.399-.357.335-.588-.074-.269-.333-.376-.59-.334a2.484 2.484 0 01-.676.014c-.082-.01.063.011-.015-.004l-.071-.013c-.054-.012-.107-.023-.161-.039a1.492 1.492 0 01-.241-.08l-.012-.005a2.496 2.496 0 01-.276-.153c-.044-.029-.088-.057-.13-.09l.008.006c-.029-.023-.058-.048-.087-.073a2.426 2.426 0 01-.39-.431c-.276-.401-.399-.716-.502-1.191a2.838 2.838 0 01-.077-.625 4.087 4.087 0 01.014-.515c.002-.025.023-.191.011-.117a3.65 3.65 0 01.17-.681c.048-.136.045-.124.1-.241a2.85 2.85 0 01.177-.313c.114-.179.239-.328.44-.508a1.13 1.13 0 01.218-.166c.054-.034.11-.063.165-.091l.025-.012c-.05.021.065-.021.063-.021.04-.011.08-.023.121-.032l.078-.016c-.019.004-.097.006-.01.004.04 0 .08-.004.118-.002.038.002.17.023.065.002.09.017.178.044.266.071.075.025-.044-.027.054.021.055.029.113.055.166.086.083.046.161.097.24.151.123.084.132.091.213.158.18.147.352.304.522.462.753.701 1.562 1.59 2.663 1.642.62.032.619-.922.004-.951zm4.213 5.586c.128-.473.11-.987-.146-1.416-.242-.401-.634-.663-1.065-.825-.832-.311-1.902-.218-2.65.269-.825.537-1.007 1.417-1.08 2.335a11.01 11.01 0 00.215 3.18c.193.89.603 2.179 1.638 2.396.252.054.517-.074.59-.334.065-.237-.08-.534-.336-.588a.663.663 0 01-.09-.023c-.019-.005-.038-.013-.06-.021 0 0 .089.042.043.017-.042-.024-.195-.133-.105-.055a1.995 1.995 0 01-.161-.155c-.012-.013-.079-.097-.042-.049a1.2 1.2 0 00-.062-.092c-.22-.345-.297-.584-.41-1.002-.241-.893-.312-1.764-.29-2.711a9.913 9.913 0 01.063-.918.951.951 0 01.005-.04l.023-.138a4.17 4.17 0 01.113-.454c.01-.034.04-.097.008-.029a1.65 1.65 0 01.055-.109c.02-.034.043-.068.064-.101.046-.074.007-.015-.004 0 .017-.021.032-.042.051-.061.054-.059.112-.114.173-.166.057-.051-.042.023.048-.034.04-.025.078-.052.12-.077a1.929 1.929 0 01.204-.103 2.144 2.144 0 01.222-.072c.09-.025.18-.042.27-.061a.686.686 0 01.063-.01c-.008.002-.079.01-.021.004.058-.006.113-.012.17-.013a3.662 3.662 0 01.405.007.682.682 0 01.063.008c.075.009-.077-.014-.002 0 .102.019.201.04.3.069.045.013.089.028.135.043.105.035-.03-.022.067.029.078.042.155.086.23.134.09.055-.025-.037.048.038.028.03.06.059.09.088l.036.04c.044.049-.046-.067-.01-.012.027.04.05.082.075.123.058.085-.004-.037.02.034.015.048.028.093.041.141l.012.056c.013.068-.006-.083-.004-.012.002.048.004.094.004.141 0 .031-.021.18-.006.088a2.117 2.117 0 01-.042.183c-.163.598.76.852.921.258zm53.981-17.852c-1.157-2.224-2.404-4.444-4.121-6.296-.814-.878-1.844-1.613-2.461-2.655-.608-1.025-.828-2.232-1.28-3.324-.963-2.329-2.473-4.33-3.806-6.45-.701-1.117-1.228-2.316-1.814-3.492-.554-1.115-1.278-2.12-2.029-3.106-.862-1.133-1.624-2.326-2.199-3.628-.546-1.24-1.08-2.487-2.021-3.49-.421-.45-1.097.226-.678.676.803.858 1.276 1.942 1.741 3.003a17.89 17.89 0 001.845 3.269c.722 1.011 1.511 1.968 2.132 3.05.653 1.138 1.134 2.364 1.78 3.507.616 1.092 1.354 2.116 2.04 3.166.666 1.023 1.306 2.067 1.827 3.174.519 1.104.797 2.287 1.274 3.404.498 1.163 1.364 2.003 2.264 2.864 2.019 1.93 3.4 4.36 4.678 6.813.286.544 1.113.061.828-.485z" fill="#222221"/><path d="M140.936 105.14a88.59 88.59 0 00-.411-.814.49.49 0 00-.286-.219.502.502 0 00-.37.047.494.494 0 00-.22.285.524.524 0 00.048.368c.138.271.276.542.412.814a.488.488 0 00.285.219.497.497 0 00.37-.048.484.484 0 00.22-.284l.018-.126a.463.463 0 00-.066-.242zm.663 2.785c.678 1.262 1.964 3.089 3.655 2.514.492-.168.891-.508 1.316-.796.462-.315.933-.619 1.41-.911a43.69 43.69 0 012.883-1.615c1.944-1.002 3.946-1.884 5.946-2.77 1.011-.448 2.021-.897 3.025-1.363.48-.223.952-.479 1.446-.67.492-.189 1-.344 1.511-.473 1.15-.292 2.335-.432 3.483-.73.255-.066.485-.215.728-.317.132-.055.27-.097.402-.148.157-.062.291-.165.429-.258l.868-.577c.052-.034.107-.068.157-.105.082-.09.113-.112.094-.067l-.004.006a.507.507 0 01.218-.004v-.954c-.41.004-.831-.002-1.237.067-.421.07-.667.574-.284.878.182.143.451.132.673.124.327-.011.657-.057.977-.13.534-.122.406-.933-.127-.937-2.193-.017-4.252.704-6.283 1.451a68.479 68.479 0 00-6.007 2.552c-.964.464-1.877.987-2.781 1.558-.876.552-1.74 1.124-2.623 1.665-.452.276-.908.546-1.373.8-.435.238-.891.528-1.372.658-1.015.277-2.113.244-3.096.647-.446.184-.852.441-1.283.655-.341.17-.806.349-1.186.229-.81-.259-1.141-1.256-1.364-1.979-.18-.587-1.105-.336-.923.253.251.817.588 1.686 1.28 2.234.381.302.818.491 1.31.475.463-.015.894-.158 1.308-.359.385-.185.744-.421 1.134-.595.475-.208 1.014-.285 1.523-.363.533-.082 1.073-.143 1.592-.29.519-.145 1.011-.447 1.483-.703 1.89-1.027 3.635-2.296 5.497-3.373.964-.557 2.002-1.006 3.016-1.462.99-.447 1.992-.867 3.005-1.262a53.492 53.492 0 013.519-1.253c1.18-.366 2.385-.595 3.622-.586l-.126-.937a3.126 3.126 0 01-.19.04c-.038.008-.078.013-.116.02l-.05.007c.028-.004-.1.011-.132.013a5.39 5.39 0 01-.179.014c-.086.003-.17.007-.256.003-.031-.002-.071-.011-.102-.005-.038.007.107.017.081.01-.134-.035.195.089.249.202l.048.368v-.004l-.123.21c-.029.03-.278.157-.111.094-.123.047-.061.005-.01.002l.146-.012c.289-.02.58-.023.871-.026a.486.486 0 00.479-.478c0-.286-.22-.443-.479-.477-.503-.065-.873.25-1.266.51-.237.156-.473.315-.71.471-.223.147-.491.22-.736.329-.174.078-.339.177-.527.213-.285.056-.569.123-.854.18-.502.099-1.008.193-1.51.296-1.026.212-2.067.464-3.021.908-.982.459-1.961.921-2.95 1.364-3.905 1.746-7.878 3.403-11.436 5.809-.411.279-.835.693-1.335.8-.308.065-.617-.04-.914-.235-.657-.432-1.116-1.203-1.486-1.89-.285-.538-1.113-.057-.822.485z" fill="#222221"/><path d="M121.16 74.648c.793.802 1.682 1.51 2.417 2.367.726.846 1.263 1.842 1.784 2.822.555 1.046 1.074 2.113 1.615 3.167a57.293 57.293 0 001.743 3.123c2.471 4.17 4.8 8.419 7.191 12.634a129.847 129.847 0 004.189 6.89c.336.514 1.165.034.828-.481-2.659-4.068-4.994-8.322-7.375-12.552a407.773 407.773 0 00-3.626-6.329c-.61-1.035-1.23-2.058-1.79-3.121-.551-1.048-1.068-2.113-1.611-3.167-.591-1.15-1.199-2.306-1.999-3.328-.786-1.006-1.797-1.796-2.69-2.7-.431-.438-1.109.237-.676.675z" fill="#222221"/><path d="M139.787 105.327c-.17.673.071 1.29.45 1.844.169.246.353.483.51.739.036.061.073.122.105.185.015.028.031.057.044.086.019.038.046.103.015.026a2.193 2.193 0 01.102.333c.006.026.021.143.008.028.028.246.199.491.479.477.235-.009.509-.211.478-.477-.078-.668-.421-1.185-.8-1.722a4.177 4.177 0 01-.429-.704c.049.11.003 0-.004-.019-.012-.035-.023-.067-.031-.102-.007-.028-.013-.057-.021-.085-.015-.062-.008-.056-.002.003a1.748 1.748 0 01-.006-.217c.002-.031.027-.138 0-.025.01-.038.016-.078.027-.117.062-.242-.078-.528-.335-.588-.249-.055-.525.077-.59.335zm-96.971-1.789c3.488-3.419 7.172-6.669 10.23-10.492a39.069 39.069 0 002.19-3.002c.704-1.078 1.298-2.21 1.87-3.361.548-1.102 1.102-2.194 1.828-3.194.688-.947 1.479-1.812 2.25-2.692 1.663-1.896 3.589-4.337 2.558-7.004-.12-.314-.4-.415-.703-.285a7.52 7.52 0 01-1.04.34c-.598.15-.345 1.07.255.92.436-.11.854-.261 1.27-.435-.234-.096-.47-.191-.703-.285.852 2.205-.711 4.235-2.088 5.821-.768.882-1.556 1.747-2.272 2.673-.747.968-1.345 2.002-1.895 3.093-.56 1.11-1.1 2.231-1.75 3.294a33.68 33.68 0 01-2.09 2.996c-1.454 1.875-3.077 3.616-4.755 5.294-1.912 1.915-3.898 3.751-5.83 5.645-.442.431.235 1.105.675.674z" fill="#222221"/><path d="M62.123 75.411c-.12-.013-.013.006.012.014-.142-.035.011.023-.054-.023-.075-.054.058.088-.04-.044.013.019.07.12.01.002.005.011.019.05.019.067.007.124-.002-.11.005.023.006.085.004.171-.003.257-.01.147.01-.051-.004.04-.006.042-.014.082-.021.124a3.954 3.954 0 01-.06.26 6.649 6.649 0 01-.197.628c-.234.653-.54 1.274-.854 1.923-1.335 2.756-2.868 5.39-4.79 7.785-1.877 2.34-3.928 4.543-5.597 7.046-.825 1.237-1.524 2.555-2.373 3.778-.85 1.228-1.93 2.23-2.97 3.293-.501.516-.99 1.05-1.409 1.637-.414.58-.749 1.21-1.088 1.834-.33.611-.663 1.222-1.079 1.779-.377.508-.852.934-1.327 1.35-.487.428-.985.85-1.4 1.35-.34.408-.577.855-.845 1.309a2.43 2.43 0 01-.389.533c-.11.105-.222.166-.326.151-.264-.038-.526-.262-.743-.405-.306-.202-.601-.422-.906-.626-.624-.418-1.29-.771-1.912-1.193a27.772 27.772 0 01-1.81-1.346c-1.14-.918-2.257-1.827-3.5-2.61-1.222-.769-2.49-1.46-3.745-2.176a63.526 63.526 0 01-3.82-2.38c-2.645-1.776-5.216-3.662-7.913-5.361-1.277-.804-2.591-1.58-3.75-2.55-1.06-.889-1.94-1.93-2.745-3.046-.424-.59-.87-1.164-1.412-1.651l-.58.75c1.028.748 1.925 1.657 2.842 2.533.918.875 1.906 1.667 2.904 2.45.987.773 1.983 1.533 2.946 2.335.496.414.985.84 1.456 1.28.454.426.86.917 1.349 1.302.5.396 1.088.68 1.54 1.13.222.222.437.46.67.669.253.225.539.424.805.634 1.023.803 2.052 1.601 3.092 2.382 2.04 1.529 4.137 2.986 6.334 4.286 2.587 1.531 5.207 3.014 7.897 4.357.195.097.419.08.58-.075.232-.221.502-.395.745-.605.264-.227.397-.556.556-.859.3-.575.593-1.151.908-1.718.626-1.136 1.337-2.219 2.29-3.108.45-.42-.227-1.094-.678-.676-.963.899-1.706 1.993-2.348 3.135-.31.551-.6 1.114-.89 1.676-.14.267-.263.63-.478.842-.24.234-.538.404-.781.637l.58-.074c-2.383-1.19-4.706-2.493-7.007-3.837a73.26 73.26 0 01-6.479-4.252 136.125 136.125 0 01-3.057-2.327c-.515-.401-1.078-.78-1.54-1.241-.222-.221-.44-.452-.67-.668-.251-.233-.548-.416-.834-.603-.228-.15-.46-.294-.668-.468-.259-.214-.48-.475-.719-.712a28.62 28.62 0 00-1.392-1.287c-.947-.82-1.937-1.59-2.927-2.36-1.117-.87-2.25-1.733-3.28-2.705-1.059-.998-2.08-2.035-3.26-2.896-.439-.319-.98.39-.58.75.586.527 1.036 1.154 1.496 1.787.417.577.864 1.136 1.346 1.66 1.03 1.114 2.243 2.017 3.512 2.844 1.323.863 2.668 1.684 3.978 2.568 1.381.933 2.745 1.892 4.119 2.835 1.339.922 2.683 1.844 4.078 2.682 1.266.762 2.569 1.46 3.843 2.207 1.293.758 2.56 1.565 3.712 2.529 1.18.989 2.397 1.942 3.716 2.742.65.393 1.27.813 1.904 1.231.5.33 1.067.689 1.684.46.498-.185.826-.641 1.086-1.08.288-.487.537-.963.928-1.381.91-.977 2.013-1.714 2.785-2.825.827-1.19 1.335-2.581 2.249-3.713.97-1.205 2.18-2.194 3.185-3.37.977-1.141 1.732-2.442 2.508-3.72a36.38 36.38 0 012.71-3.872c.962-1.201 1.973-2.358 2.952-3.545.977-1.184 1.93-2.396 2.766-3.685.89-1.367 1.667-2.812 2.4-4.265.403-.798.803-1.603 1.144-2.43.287-.697.684-1.619.466-2.384-.12-.417-.447-.634-.862-.682-.257-.03-.48.24-.48.477.007.287.229.45.485.481z" fill="#222221"/><path d="M28.538 97.484c.003.023.02.147.007.025a2.2 2.2 0 01.01.347c-.002.039-.03.264-.012.15a6.378 6.378 0 01-.052.278c-.072.334-.18.66-.268.993-.184.687-.287 1.439.196 2.031.264.325.659.515 1.05.641.484.157 1 .233 1.505.159.841-.124 1.542-.703 1.967-1.417a3.67 3.67 0 00.464-2.491 2.682 2.682 0 00-.446-1.086c-.24-.336-.564-.55-.94-.705-.775-.315-1.666-.357-2.483-.235-.366.054-.742.157-1.062.346-.364.216-.574.525-.703.924-.339 1.052.188 2.108.962 2.814.76.697 1.743 1.186 2.772 1.313.256.033.479-.242.479-.477 0-.284-.22-.445-.48-.477.112.013-.034-.006-.047-.01-.046-.007-.09-.017-.134-.026a3.861 3.861 0 01-.715-.233 5.234 5.234 0 01-.97-.571 3.203 3.203 0 01-.758-.82c-.174-.287-.264-.566-.254-.881l.005-.1c.014-.156-.02.083.012-.074.019-.086.042-.172.07-.256.02-.055.05-.097.081-.17.012-.026.06-.059-.02.023.028-.028.06-.059.087-.09.048-.057-.004 0-.019.012.029-.02.056-.04.086-.059.052-.032.107-.06.161-.088.113-.057-.094.033.029-.013a2.777 2.777 0 01.362-.109 4.115 4.115 0 011.914.05 3.028 3.028 0 01.333.112c-.1-.04.025.014.036.02.058.03.117.058.173.095l.078.051a.424.424 0 00-.025-.019c.02.016.037.03.054.046.04.04.08.078.117.122-.073-.09.017.033.025.044.025.038.05.078.072.118.1.178.108.199.163.394.023.082.04.164.058.246.004.021.019.122.008.032a3.298 3.298 0 01.006.655c-.016.153.016-.091-.008.061a2.871 2.871 0 01-.082.37c-.05.176-.104.314-.152.417a3.03 3.03 0 01-.307.506 2.25 2.25 0 01-.24.256 1.779 1.779 0 01-.737.414c-.038.009-.245.046-.166.038-.079.01-.157.013-.236.012-.24-.002-.331-.027-.582-.086a3.338 3.338 0 01-.481-.157c-.067-.034-.13-.071-.195-.109-.016-.009-.12-.091-.033-.021-.038-.032-.073-.067-.11-.101-.016-.015-.032-.036-.047-.053.082.093-.008-.018-.023-.044-.012-.019-.02-.04-.03-.059-.039-.062.017.085-.012-.039-.01-.044-.035-.234-.027-.099-.004-.069-.01-.135-.008-.204 0-.035.004-.071.006-.105.002-.014.02-.155.008-.08-.012.08.007-.042.01-.046l.028-.15a8.43 8.43 0 01.119-.461c.197-.7.418-1.409.274-2.144-.05-.254-.353-.397-.59-.334-.265.069-.383.33-.333.584zm-7.249-5.974c-.385-.624-.97-.908-1.697-.794-.155.025-.301.188-.335.335-.251 1.091-.405 2.466.157 3.491.488.896 1.706 1.352 2.662 1.487.56.08 1.136.073 1.653-.177.441-.214.717-.634.803-1.106.182-1-.092-2.182-.588-3.062a2.058 2.058 0 00-1.442-1.029c-.694-.118-1.397-.002-2.094-.002v.955a6.447 6.447 0 011.75.2c.572.142 1.135.306 1.715.403.255.042.515-.067.59-.334.063-.229-.079-.544-.335-.588-.602-.1-1.184-.273-1.776-.418a7.254 7.254 0 00-1.944-.22c-.615.02-.619.955 0 .955.538 0 1.078-.07 1.616-.05.391.016.744.134.977.426a2.756 2.756 0 01.31.611c.04.103.074.206.104.311.138.453.21.82.21 1.268a2.4 2.4 0 01-.014.288c-.006.057 0-.004.002-.013l-.012.067a2.25 2.25 0 01-.034.147c-.006.017-.052.145-.031.097.021-.048-.027.05-.037.065-.01.017-.074.101-.038.059.037-.042-.051.046-.067.061.075-.067-.159.09-.13.076.036-.017-.065.023-.086.031a1.93 1.93 0 01-.154.04c-.023.006-.134.025-.057.013a2.385 2.385 0 01-.17.016 3.027 3.027 0 01-.943-.105 4.968 4.968 0 01-.603-.199 3.602 3.602 0 01-.69-.387c.06.044-.021-.017-.04-.035a1.83 1.83 0 01-.184-.181c-.033-.036.006.01.01.015-.025-.032-.047-.067-.07-.103a1.798 1.798 0 01-.084-.156c.017.038-.032-.083-.04-.105a3.127 3.127 0 01-.147-.957 6.383 6.383 0 01.172-1.604l-.335.335a.593.593 0 01.312.042c.12.059.218.177.303.313.325.523 1.155.044.83-.481z" fill="#222221"/><path d="M32.124 100.011c13.653 0 24.72-.646 24.72-1.444 0-.797-11.067-1.443-24.72-1.443-13.652 0-24.72.646-24.72 1.443 0 .798 11.068 1.444 24.72 1.444z" fill="#F5F5F5"/><path d="M34.306 97.39a.174.174 0 01-.17-.14l-2.422-11.928h-4.219L25.073 97.25a.174.174 0 01-.34-.069l2.45-12.067a.175.175 0 01.17-.14h4.501a.173.173 0 01.17.14l2.451 12.067a.173.173 0 01-.135.204l-.034.004z" fill="#2F80ED"/><path d="M27.535 97.39a.175.175 0 01-.17-.14l-2.422-11.928h-4.22L18.302 97.25a.173.173 0 11-.339-.069l2.452-12.067a.174.174 0 01.17-.14h4.5a.172.172 0 01.168.14l2.452 12.067a.173.173 0 01-.135.204l-.034.004z" fill="#2F80ED"/><path d="M28.482 85.15H20.73a2.718 2.718 0 01-2.718-2.664l-.288-11.78a1.979 1.979 0 011.978-2.022h4.86a1.982 1.982 0 011.968 1.757l1.952 14.709z" fill="#2F80ED"/><path d="M24.254 83.658h7.586a1.063 1.063 0 011.062 1.062v.037a.383.383 0 01-.382.382h-8.266v-1.481z" fill="#2F80ED"/><g opacity=".3" fill="#000"><path d="M34.306 97.39a.174.174 0 01-.17-.14l-2.422-11.928h-4.219L25.073 97.25a.173.173 0 01-.34-.069l2.45-12.067a.174.174 0 01.17-.14h4.501a.174.174 0 01.17.14l2.451 12.067a.173.173 0 01-.135.204l-.034.004z"/><path d="M27.535 97.39a.175.175 0 01-.17-.14l-2.422-11.928h-4.22L18.302 97.25a.173.173 0 11-.339-.069l2.452-12.067a.173.173 0 01.17-.14h4.5a.172.172 0 01.168.14l2.452 12.067a.173.173 0 01-.135.204l-.034.004z"/><path d="M28.482 85.15H20.73a2.718 2.718 0 01-2.718-2.664l-.288-11.78a1.979 1.979 0 011.978-2.022h4.86a1.982 1.982 0 011.968 1.757l1.952 14.709z"/><path d="M24.254 83.658h7.586a1.063 1.063 0 011.062 1.062v.037a.383.383 0 01-.382.382h-8.266v-1.481z"/></g><path d="M26.325 68.034s1.083 1.415.382 4.233c-.701 2.818-4.32 1.288-4.539-1.252-.255-2.993 3.106-.93 3.698-3.591l.459.61z" fill="#263238"/><path d="M25.538 67.194c-.47.331-.657.813-.137 1.285s1.263.457 1.487.263c.224-.194.18-1.178.18-1.178l-1.53-.37z" fill="#2F80ED"/><path opacity=".8" d="M25.538 67.194c-.47.331-.657.813-.137 1.285s1.263.457 1.487.263c.224-.194.18-1.178.18-1.178l-1.53-.37z" fill="#fff"/><path d="M31.48 73.466c.012.057.034.146.054.222l.061.24c.044.16.09.32.14.481a31.946 31.946 0 00.653 1.933c.06.16.12.32.184.48l.074.19a.382.382 0 00.057.091c.182.184.403.323.647.408.297.12.605.216.918.286.324.075.656.137.993.19.336.052.682.094 1.014.127l.011.686c-.727.075-1.46.075-2.188 0a6.427 6.427 0 01-1.123-.218 3.784 3.784 0 01-.579-.228 2.22 2.22 0 01-.581-.41 1.61 1.61 0 01-.255-.33c-.02-.03-.036-.065-.054-.097l-.033-.068-.059-.128a18.467 18.467 0 01-1.014-2.507c-.052-.175-.103-.35-.15-.53l-.07-.269c-.02-.097-.04-.177-.06-.292l1.36-.257z" fill="#E58A7B"/><path d="M31.046 72.017c.547.14.928 2.388.928 2.388l-1.506 1.02s-1.444-2.27-1.02-2.87c.435-.617.8-.737 1.598-.538z" fill="#2F80ED"/><path opacity=".5" d="M31.046 72.017c.547.14.928 2.388.928 2.388l-1.506 1.02s-1.444-2.27-1.02-2.87c.435-.617.8-.737 1.598-.538z" fill="#fff"/><path opacity=".2" d="M30.85 72.583l-1.31 1.038c.255.63.565 1.237.927 1.813l1.044-.71-.662-2.14z" fill="#2F80ED"/><path d="M31.046 72.017s.637.222-.638 8.003h-5.383c.09-2.191.093-3.543-.953-8.042a15.962 15.962 0 012.286-.301 17.194 17.194 0 012.446 0c1.05.1 2.242.34 2.242.34z" fill="#2F80ED"/><path opacity=".5" d="M31.046 72.017s.637.222-.638 8.003h-5.383c.09-2.191.093-3.543-.953-8.042a15.962 15.962 0 012.286-.301 17.194 17.194 0 012.446 0c1.05.1 2.242.34 2.242.34z" fill="#fff"/><path d="M36.077 78.108l.94-.954.127 1.344s-.705.477-1.192.22l.125-.61z" fill="#E58A7B"/><path d="M38.126 77.013l.042 1.13-1.025.355-.124-1.344 1.107-.141zm-1.608 19.14h1.326l.204-3.072h-1.326l-.204 3.072zm-5.132 0h1.326l.426-3.072h-1.326l-.426 3.072z" fill="#E58A7B"/><path d="M32.795 95.998h-1.49a.104.104 0 00-.106.09l-.17 1.18a.215.215 0 00.213.236c.52-.009.765-.04 1.424-.04.403 0 1.437.043 1.994.043.558 0 .587-.551.355-.601-1.04-.224-1.649-.532-2-.826a.34.34 0 00-.22-.082zm5.152 0H36.46a.106.106 0 00-.106.09l-.169 1.18a.213.213 0 00.213.236c.519-.009.765-.04 1.424-.04.404 0 1.237.043 1.794.043.557 0 .586-.551.354-.6-1.039-.225-1.448-.533-1.797-.827a.345.345 0 00-.225-.082zm-7.958-29.754c.477.03.719 2.423-.68 2.284-1.398-.14.68-2.284.68-2.284z" fill="#263238"/><path d="M38.048 93.081l-.106 1.584h-1.326l.105-1.584h1.327zm-6.236 0h1.327l-.22 1.584h-1.327l.22-1.584z" fill="#CF6F64"/><path opacity=".2" d="M24.61 74.48c.127.652.218 1.216.287 1.723l.315-2.437-.602.713z" fill="#2F80ED"/><path d="M26.6 68.928c.154.787.308 2.229-.242 2.754 0 0 .215.798 1.678.798 1.607 0 .765-.798.765-.798-.879-.21-.856-.86-.703-1.471L26.6 68.928z" fill="#E58A7B"/><path d="M27.745 72.65l.49-.175-.066-.134-.424.31zm.95-.101l-.46-.074.099-.15.36.224z" fill="#263238"/><path d="M26.536 71.31l-.333.325a.055.055 0 000 .076l1.403 1.598c.067-.38.27-.721.571-.962-1.16-.438-1.462-.892-1.566-1.02a.045.045 0 00-.033-.03.044.044 0 00-.042.014zm2.004.246l.414.112a.074.074 0 01.05.052c.117.524.095 1.07-.063 1.582-.059-.216-.255-.735-.607-.976.382-.264.228-.604.173-.733a.027.027 0 010-.015.028.028 0 01.018-.022.029.029 0 01.016 0z" fill="#2F80ED"/><path d="M27.213 69.45l.893.76a2.641 2.641 0 00-.076.433c-.335-.049-.795-.416-.83-.765a1.16 1.16 0 01.013-.427z" fill="#CF6F64"/><path d="M26.515 66.855c-.152 1.307-.245 1.858.29 2.638.803 1.174 2.443 1.075 2.982-.16.486-1.113.652-3.06-.521-3.805a1.795 1.795 0 00-2.751 1.327z" fill="#E58A7B"/><path d="M29.503 64.696c-2.161-.853-3.784.11-4.12 1.478-.526 2.124 1.156 2.273 1.156 2.273l.21-.543c.302.183 1.148.102.893-1.475-.15-.892.979.35 2.412.212.381-.037.903-1.37-.55-1.945z" fill="#263238"/><path d="M30.239 65.222c-.285-.438-.866-.813-2.07-.99 0 0 .625.142.828.6.203.457 1.585.916 1.242.39z" fill="#263238"/><path d="M26.099 67.986a.959.959 0 00.233.696c.223.255.517.098.608-.208.082-.277.065-.74-.233-.88-.298-.141-.584.08-.608.392z" fill="#E58A7B"/><path d="M30.412 80.025s8.892.828 8.805 4.87c-.09 4.208-.99 9.464-.99 9.464h-1.838s-.157-4.447-.21-8.59c-.027-2.157-8.619-2.59-8.619-2.59l-1.11-3.154h3.962z" fill="#263238"/><path d="M28.99 80.025s5.746 1.906 5.89 4.265c.267 4.343-1.641 10.072-1.641 10.072h-1.81s.104-3.799.32-7.733c.272-4.945-8.451-.07-6.724-6.6l3.964-.004zm-.585-12.457c-.019.104.022.2.09.213.07.012.14-.064.159-.169.019-.104-.022-.201-.09-.213-.07-.011-.137.063-.159.169zm1.19.212c-.02.105.021.2.09.213.07.013.14-.063.16-.168.019-.104-.022-.201-.09-.213-.07-.011-.141.063-.16.169z" fill="#263238"/><path d="M29.722 67.612l.267-.028s-.16.175-.267.028z" fill="#263238"/><path d="M29.248 67.904c.051.257.137.506.255.74a.462.462 0 01-.383 0l.128-.74z" fill="#DF5753"/><path d="M28.682 68.984a.902.902 0 01-.66-.478.02.02 0 01.01-.027.021.021 0 01.027.011.858.858 0 00.623.455.022.022 0 01.017.024.02.02 0 01-.017.015zm-.556-1.887a.037.037 0 01-.03-.013.038.038 0 01-.008-.043.037.037 0 01.009-.013.597.597 0 01.528-.16c.01.003.018.01.023.018a.04.04 0 01-.002.044.04.04 0 01-.026.016.518.518 0 00-.47.14.043.043 0 01-.024.011zm2.119.209a.039.039 0 01-.022-.006.039.039 0 01-.015-.018.525.525 0 00-.36-.311.041.041 0 01-.033-.046.04.04 0 01.048-.033.596.596 0 01.418.358.041.041 0 01-.02.054l-.016.002z" fill="#263238"/><path d="M24.876 73.902c-.116.382-.24.765-.352 1.157-.11.393-.228.776-.329 1.164-.1.39-.196.774-.267 1.148a7.227 7.227 0 00-.085.552c-.01.088-.015.17-.016.247 0 .018 0 0-.013-.029a.32.32 0 00-.064-.093c-.065-.056-.089-.046-.06-.037a.598.598 0 00.164.017 2.75 2.75 0 00.51-.066c.38-.083.754-.19 1.12-.32a32.025 32.025 0 002.263-.883l.33.6c-.707.464-1.445.876-2.21 1.235a9.405 9.405 0 01-1.223.475c-.233.071-.472.12-.714.144a1.787 1.787 0 01-.454-.011 1.163 1.163 0 01-.29-.083 1.002 1.002 0 01-.318-.22 1.037 1.037 0 01-.284-.688 3.233 3.233 0 010-.37 6.87 6.87 0 01.06-.677c.06-.436.14-.856.237-1.275.097-.418.2-.822.314-1.227.113-.406.235-.804.382-1.21l1.3.45z" fill="#E58A7B"/><path d="M33.249 96.221a1.55 1.55 0 01-.348-.048.021.021 0 01-.011-.006.022.022 0 01.004-.034c.044-.029.442-.286.593-.219a.096.096 0 01.056.082.168.168 0 01-.048.158.371.371 0 01-.246.067zm-.287-.079c.246.051.431.045.502-.021a.127.127 0 00.036-.119c0-.01-.004-.02-.01-.028a.055.055 0 00-.022-.02c-.097-.042-.366.102-.506.188z" fill="#2F80ED"/><path d="M32.906 96.174h-.011a.023.023 0 01-.012-.02c0-.016 0-.393.143-.518a.147.147 0 01.127-.04.1.1 0 01.099.08c.026.137-.196.42-.335.498h-.011zm.224-.538a.11.11 0 00-.075.03c-.1.09-.121.343-.127.443.127-.092.298-.324.276-.427 0-.017-.013-.038-.058-.045h-.016zm5.316.585a2.319 2.319 0 01-.417-.047.023.023 0 01-.012-.007.021.021 0 01.007-.035c.058-.03.582-.298.742-.212a.095.095 0 01.048.077.163.163 0 01-.053.144.488.488 0 01-.315.08zm-.343-.079c.17.03.51.072.627-.033a.128.128 0 00.033-.05c.007-.018.009-.038.007-.058a.049.049 0 00-.025-.042c-.105-.056-.457.093-.642.183z" fill="#2F80ED"/><path d="M38.034 96.174a.021.021 0 01-.013 0 .027.027 0 01-.01-.02c0-.016.032-.369.195-.51a.218.218 0 01.167-.051c.082.007.105.048.111.08.023.147-.286.427-.441.497l-.01.004zm.315-.538a.169.169 0 00-.114.044c-.12.099-.161.337-.174.433.167-.093.395-.333.382-.43 0-.011 0-.04-.07-.046h-.024z" fill="#2F80ED"/><path d="M27.717 76.78l1.257-.32-.6 1.208s-.85.037-1.13-.437l.473-.452z" fill="#E58A7B"/><path d="M29.99 76.918l-.556.984-1.06-.234.6-1.208 1.016.458z" fill="#E58A7B"/><path d="M28.532 67.4l.266-.029s-.164.175-.266.028z" fill="#263238"/><path d="M24.945 79.71l-.043.481c-.018.038.025.077.088.077h5.449c.048 0 .088-.025.092-.055l.048-.482c0-.033-.04-.061-.092-.061h-5.454a.099.099 0 00-.088.04z" fill="#2F80ED"/><path d="M25.678 80.32h-.146c-.03 0-.052-.015-.05-.033l.069-.628c0-.017.028-.033.057-.033h.142c.029 0 .05.016.05.033l-.07.628c.002.018-.024.033-.052.033zm4.35 0h-.146c-.03 0-.051-.015-.05-.033l.069-.628c0-.017.028-.033.057-.033h.146c.029 0 .05.016.05.033l-.07.628c0 .018-.028.033-.056.033zm-2.175 0h-.146c-.03 0-.051-.015-.05-.033l.069-.628c0-.017.028-.033.057-.033h.145c.03 0 .052.016.05.033l-.069.628c-.002.018-.026.033-.056.033z" fill="#263238"/><path d="M24.072 71.983c-.54.164-1.189 2.022-1.189 2.022l1.74 1.7s1.118-1.754.893-2.451c-.238-.727-.828-1.457-1.444-1.271z" fill="#2F80ED"/><path opacity=".5" d="M24.072 71.983c-.54.164-1.189 2.022-1.189 2.022l1.74 1.7s1.118-1.754.893-2.451c-.238-.727-.828-1.457-1.444-1.271z" fill="#fff"/><path d="M52.99 78.7H42.848v19.73H52.99V78.7z" fill="#2F80ED"/><path opacity=".6" d="M52.99 78.7H42.848v19.73H52.99V78.7z" fill="#fff"/><path d="M33.34 78.7H23.195v19.73h10.143V78.7z" fill="#2F80ED"/><path opacity=".6" d="M33.34 78.7H23.195v19.73h10.143V78.7z" fill="#fff"/><path d="M53.37 78.7h-.836v19.73h.837V78.7z" fill="#2F80ED"/><path opacity=".3" d="M53.37 78.7h-.836v19.73h.837V78.7z" fill="#000"/><path d="M33.46 80.181h20.17v-1.48H33.46v1.48z" fill="#2F80ED"/><path opacity=".3" d="M33.46 80.181h20.17v-1.48H33.46v1.48z" fill="#000"/><path d="M33.72 78.7h-.836v19.73h.837V78.7z" fill="#2F80ED"/><path opacity=".3" d="M33.72 78.7h-.836v19.73h.837V78.7z" fill="#000"/><path d="M33.412 83.42h19.54v-4.262h-19.54v4.263z" fill="#2F80ED"/><path opacity=".3" d="M33.412 83.42h19.54v-4.262h-19.54v4.263z" fill="#000"/><path d="M52.996 99.005h-5.632a1.443 1.443 0 01-1.442-1.442V79.795a1.275 1.275 0 00-1.275-1.275h-1.685v-.128h1.684a1.402 1.402 0 011.402 1.403v17.768a1.315 1.315 0 001.315 1.314h5.633a.455.455 0 00.271-.82l.075-.103a.583.583 0 01-.346 1.05z" fill="#2F80ED"/><path opacity=".3" d="M52.996 99.005h-5.632a1.443 1.443 0 01-1.442-1.442V79.795a1.275 1.275 0 00-1.275-1.275h-1.685v-.128h1.684a1.402 1.402 0 011.402 1.403v17.768a1.315 1.315 0 001.315 1.314h5.633a.455.455 0 00.271-.82l.075-.103a.583.583 0 01-.346 1.05z" fill="#000"/><path d="M53.817 84.522h-.128v2.465h.128v-2.465z" fill="#2F80ED"/><path opacity=".3" d="M53.817 84.522h-.128v2.465h.128v-2.465z" fill="#000"/><path d="M53.817 83.067h-.128v.648h.128v-.648z" fill="#2F80ED"/><path opacity=".3" d="M53.817 83.067h-.128v.648h.128v-.648z" fill="#000"/><path d="M44.479 72.81h-9.453l-1.37 5.582h9.452l1.37-5.582z" fill="#2F80ED"/><path opacity=".4" d="M44.479 72.81h-9.453l-1.37 5.582h9.452l1.37-5.582z" fill="#fff"/><path d="M33.946 78.392l-.038.309H30.2l.038-.309h3.71z" fill="#2F80ED"/><path opacity=".4" d="M33.946 78.392l-.038.309H30.2l.038-.309h3.71z" fill="#fff"/><path d="M43.399 78.392l-.038.309h-9.453l.038-.309H43.4z" fill="#2F80ED"/><path opacity=".5" d="M43.399 78.392l-.038.309h-9.453l.038-.309H43.4z" fill="#000"/><path d="M44.77 72.81h-9.453l-1.37 5.582H43.4l1.37-5.582z" fill="#2F80ED"/><path opacity=".5" d="M44.77 72.81h-9.453l-1.37 5.582H43.4l1.37-5.582z" fill="#000"/><path d="M48.42 77.294s-1.391-2.398.534-4.306c0 0 .504.329.496.764-.008.437-.54.554-.426.921.114.367.617.73.287 1.035-.33.305.054.575.03.948-.022.372-.921.638-.921.638z" fill="#2F80ED"/><path d="M48.526 77.514s.563-2.715-1.87-3.917c0 0-.374.47-.228.893.147.422.686.354.694.74.008.386-.355.886.055 1.071.409.185.127.564.269.91.141.347 1.08.303 1.08.303z" fill="#2F80ED"/><path opacity=".5" d="M48.526 77.514s.563-2.715-1.87-3.917c0 0-.374.47-.228.893.147.422.686.354.694.74.008.386-.355.886.055 1.071.409.185.127.564.269.91.141.347 1.08.303 1.08.303z" fill="#000"/><path d="M46.394 76.912s.047 1.785 1.82 1.785c1.774 0 1.82-1.785 1.82-1.785h-3.64z" fill="#2F80ED"/><path opacity=".5" d="M46.394 76.912s.047 1.785 1.82 1.785c1.774 0 1.82-1.785 1.82-1.785h-3.64z" fill="#000"/><path d="M36.86 65.216l-1.514-1.956-1.514 1.956h.712v2.534h1.604v-2.534h.713zm4.444 2.302a3.57 3.57 0 013.57-3.57v.93a2.637 2.637 0 00-2.639 2.637l-.93.003zm0 0h.931a2.64 2.64 0 003.958 2.285l.466.812a3.57 3.57 0 01-5.355-3.092v-.005z" fill="#2F80ED"/><path opacity=".5" d="M41.304 67.518h.931a2.64 2.64 0 003.958 2.285l.466.812a3.57 3.57 0 01-5.355-3.092v-.005z" fill="#fff"/><path d="M44.874 64.877v-.932a3.57 3.57 0 011.785 6.67l-.465-.807a2.637 2.637 0 00-1.32-4.93z" fill="#2F80ED"/><path opacity=".7" d="M44.874 64.877v-.932a3.57 3.57 0 011.785 6.67l-.465-.807a2.637 2.637 0 00-1.32-4.93z" fill="#000"/><path d="M41.522 58.758H38.27a.438.438 0 00-.438.437v6.014a.437.437 0 00.438.433h4.163a.438.438 0 00.436-.437v-5.1l-1.347-1.347z" fill="#263238"/><path d="M41.331 65.044h-2.704a.19.19 0 110-.38h2.705a.191.191 0 01.191.19.192.192 0 01-.192.19zm-1.275-5.301h-1.43a.191.191 0 01-.134-.325.191.191 0 01.135-.056h1.43a.191.191 0 01.176.264.19.19 0 01-.177.117zm.934.757h-2.363a.192.192 0 01-.192-.19.191.191 0 01.192-.19h2.365a.19.19 0 01-.001.38zm1.087.758h-3.45a.191.191 0 01-.135-.326.191.191 0 01.135-.056h3.451a.192.192 0 01.176.265.191.191 0 01-.177.117zm0 .757H40.07a.191.191 0 01-.191-.19.19.19 0 01.191-.191h2.007a.191.191 0 01.135.325.191.191 0 01-.135.056zm-2.927 0h-.523a.191.191 0 01-.135-.325.19.19 0 01.135-.056h.524a.19.19 0 11-.002.381zm2.927.757h-3.45a.191.191 0 01-.192-.19.192.192 0 01.192-.19h3.451a.19.19 0 11-.001.38zm-1.332.758h-2.118a.19.19 0 110-.382h2.119a.191.191 0 01.135.326.191.191 0 01-.136.056zm1.332 0h-.566a.191.191 0 01-.135-.326.19.19 0 01.135-.056h.566a.191.191 0 010 .382zm0 .757h-3.45a.19.19 0 110-.381h3.451a.191.191 0 01.177.263.19.19 0 01-.178.118z" fill="#2F80ED"/><path d="M41.331 65.044h-2.704a.19.19 0 110-.38h2.705a.191.191 0 01.191.19.192.192 0 01-.192.19zm-1.275-5.301h-1.43a.191.191 0 01-.134-.325.191.191 0 01.135-.056h1.43a.191.191 0 01.176.264.19.19 0 01-.177.117zm.934.757h-2.363a.192.192 0 01-.192-.19.191.191 0 01.192-.19h2.365a.19.19 0 01-.001.38zm1.087.758h-3.45a.191.191 0 01-.135-.326.191.191 0 01.135-.056h3.451a.192.192 0 01.176.265.191.191 0 01-.177.117zm0 .757H40.07a.191.191 0 01-.191-.19.19.19 0 01.191-.191h2.007a.191.191 0 01.135.325.191.191 0 01-.135.056zm-2.927 0h-.523a.191.191 0 01-.135-.325.19.19 0 01.135-.056h.524a.19.19 0 11-.002.381zm2.927.757h-3.45a.191.191 0 01-.192-.19.192.192 0 01.192-.19h3.451a.19.19 0 11-.001.38zm-1.332.758h-2.118a.19.19 0 110-.382h2.119a.191.191 0 01.135.326.191.191 0 01-.136.056zm1.332 0h-.566a.191.191 0 01-.135-.326.19.19 0 01.135-.056h.566a.191.191 0 010 .382zm0 .757h-3.45a.19.19 0 110-.381h3.451a.191.191 0 01.177.263.19.19 0 01-.178.118z" fill="#fff" opacity=".5"/><path d="M41.522 58.758v.91a.436.436 0 00.438.437h.909l-1.347-1.347z" fill="#2F80ED"/><path opacity=".5" d="M41.522 58.758v.91a.436.436 0 00.438.437h.909l-1.347-1.347z" fill="#fff"/></g><defs><clipPath id="clip0_116_282"><path fill="#fff" transform="translate(.25 .5)" d="M0 0h180v180H0z"/></clipPath></defs></svg>