<svg width="181" height="181" fill="none" xmlns="http://www.w3.org/2000/svg"><g clip-path="url(#clip0_116_390)"><path d="M112.082 158.049c-4.212-1.848-14.207-37.066-14.207-37.066l8.726-2.112s7.13.634 9.175-1.418c2.043-2.053 13.748-16.211 13.748-16.211l28.889 47.311s-24.541 19.057-46.331 9.496z" fill="#0FA6A6"/><path d="M33.398 124.424L73.36 42.936l6.728-7.763.94 3.145s6.457-7.55 8.764-7.63c2.306-.082 2.831.84 2.644 4.395-.19 3.555 4.569.986 4.569.986s1.285-3.305 2.335-.354-1.814 7.859-1.814 7.859l9.664-4.902.449 5.675-11.193 13.965-30.334 87.708s-25.614-2.423-32.714-21.596z" fill="#6FCFA1" stroke="#6FCFA1" stroke-miterlimit="10"/><path d="M130.235 22.787L97.689 56.453 77.797 91.796s-5.677 7.029-1.64 7.104c4.037.077 13.735-5.598 13.735-5.598l-10.054 19.794 2.727 1.836 8.504-9.401-4.713 12.535 3.881.668 5.172-3.964.836 5.164 3.933.261 4.491-2.334 3.311.767 12.244-9.711 35.242-56.625 5.821-21.605c-.002.004-20.917-14.422-31.052-7.9z" fill="#AFE8D9" stroke="#AFE8D9" stroke-miterlimit="10"/><path d="M19.405 53.019s35.076 16.355 39.047 20.346c3.972 3.99 26.867 19.567 26.867 19.567s17.637 6.502 19.138 6.768c1.501.265 3.281-.939 3.281-.939l-4.105-7.928 5.902 2.605s.208-2.267 2.518-3.997c3.38-2.536 1.592-7.534 1.592-7.534l-12.611-13.816s6.852 4.675 9.63 4.392c2.779-.282 1.207-3.76-.379-5.84-1.588-2.082-60.806-37.664-60.806-37.664S21.092 42.12 19.405 53.02z" fill="#fff"/><path d="M127.905 22.958a129.805 129.805 0 00-7.054 5.615 129.43 129.43 0 00-6.582 6.036 128.8 128.8 0 00-6.169 6.506 129.991 129.991 0 00-5.697 6.919 127 127 0 00-5.8 8.21c-.331.51.49.982.819.474a125.997 125.997 0 0110.651-14.143 128.646 128.646 0 0112.556-12.569 126.98 126.98 0 016.876-5.58c.292-.22.586-.439.88-.657.205-.152.309-.406.17-.643-.119-.2-.443-.322-.65-.168zM77.83 89.678a5.41 5.41 0 01.283-.514c.322-.517-.489-.982-.819-.474-1.034 1.597-2.156 3.132-3.032 4.827-.834 1.615-1.776 3.758-1.037 5.573.311.762.961 1.449 1.759 1.71.707.231 1.501.115 2.199-.085 1.942-.551 3.716-1.734 5.35-2.88a64 64 0 002.795-2.09c.597-.468 1.312-1.05 1.843-1.457l-.713-.406c-.148 2.898-2.168 5.242-3.578 7.644-1.615 2.754-3.13 5.607-4.268 8.591-.465 1.219-1.052 2.594-.952 3.925.095 1.251.921 2.195 2.216 2.295 1.341.106 2.566-.619 3.512-1.495 1.12-1.04 2.022-2.323 2.975-3.508l7.377-9.176-.745-.57c-1.211 1.894-1.941 4.031-3.037 5.987-1.142 2.039-2.742 3.832-4.182 5.666-.73.929-1.483 1.855-2.136 2.838-.558.841-.973 1.876-.671 2.888.326 1.093 1.554 1.89 2.63 2.14 2.21.516 4.369-.854 6.004-2.172 2.161-1.744 3.967-3.909 5.656-6.093 1.492-1.928 2.832-3.959 4.278-5.919.316-.429-.393-.973-.745-.57-1.778 2.033-3.491 4.136-4.932 6.422-.68 1.081-1.325 2.206-1.823 3.382-.42.997-.735 2.103-.625 3.194.257 2.526 2.842 3.511 5.079 2.795 2.278-.732 4.094-2.656 5.466-4.526 1.634-2.223 2.778-4.753 3.902-7.255.245-.546-.476-.989-.819-.474-1.808 2.727-3.652 5.572-4.181 8.856-.047.295.122.596.457.594.766-.004 1.414.378 2.121.611.675.222 1.336.202 2.026.07 1.368-.261 2.652-.92 3.792-1.698 2.497-1.705 4.517-4.003 6.456-6.289 2.301-2.712 4.471-5.502 6.463-8.445 2.168-3.206 4.11-6.552 6.26-9.77 2.168-3.247 4.372-6.464 6.451-9.768a511.786 511.786 0 006.137-9.97c1.999-3.35 3.936-6.738 5.762-10.186 1.783-3.367 3.496-6.775 5.232-10.168 1.702-3.326 3.345-6.691 4.676-10.184 1.376-3.608 2.286-7.372 3.466-11.042.302-.938.614-1.875.935-2.808l-.931-.124-.023.322c-.043.603.904.601.948 0l.023-.322c.042-.555-.766-.602-.931-.124-1.258 3.653-2.244 7.38-3.421 11.058-1.137 3.553-2.676 6.964-4.33 10.308-1.638 3.309-3.374 6.57-5.042 9.864-1.747 3.45-3.62 6.838-5.564 10.18-3.861 6.636-7.907 13.196-12.223 19.55-1.097 1.615-2.196 3.227-3.254 4.868-1.025 1.59-1.992 3.214-3.006 4.809-2.014 3.168-4.147 6.272-6.529 9.183-1.873 2.29-3.785 4.611-5.98 6.605-1.068.968-2.225 1.864-3.519 2.516-.61.307-1.253.55-1.922.695a3.322 3.322 0 01-2.06-.166c-.663-.26-1.287-.515-2.013-.512l.457.595c.517-3.211 2.318-5.965 4.086-8.63l-.819-.474c-1.732 3.856-3.642 8.267-7.363 10.644-.951.608-2.096 1.067-3.246.879-1.03-.168-1.831-.841-2.038-1.87-.195-.961.097-1.992.451-2.882.434-1.091 1.043-2.133 1.659-3.132 1.433-2.328 3.16-4.458 4.96-6.513l-.745-.57c-2.718 3.683-5.176 7.556-8.533 10.723-1.434 1.355-3.32 2.984-5.403 3.102a3.266 3.266 0 01-2.358-.811c-.739-.645-.728-1.516-.3-2.355.507-.987 1.284-1.871 1.962-2.742 1.532-1.97 3.266-3.877 4.528-6.035 1.187-2.027 1.926-4.279 3.194-6.261.282-.442-.404-.994-.745-.57l-6.109 7.599c-1.01 1.256-2.007 2.524-3.032 3.769-.771.935-1.664 1.97-2.852 2.374-.61.209-1.4.301-1.949-.114-.409-.311-.526-.834-.528-1.317-.004-1.277.59-2.59 1.05-3.757 1.112-2.829 2.568-5.558 4.124-8.171 1.5-2.524 3.477-4.943 3.633-7.994.017-.327-.428-.624-.713-.406-2.763 2.118-5.44 4.507-8.661 5.93-1.204.533-2.767 1.031-3.683-.221-1.02-1.396-.1-3.507.56-4.853.896-1.829 2.1-3.465 3.204-5.17l-.818-.473a5.432 5.432 0 00-.283.513c-.257.536.56 1.014.825.467z" fill="#222221"/><path d="M49.24 29.386c1.377.951 2.713 1.96 4.115 2.874 1.443.94 2.983 1.717 4.492 2.545 3.125 1.711 6.241 3.448 9.308 5.26 5.936 3.51 11.718 7.258 17.71 10.676 5.685 3.239 11.431 6.386 16.867 10.031 2.757 1.85 5.428 3.826 7.954 5.978 1.153.982 2.129 2.274 2.824 3.61.256.49.646 1.26.432 1.79-.06.149-.256.27-.493.324-.638.15-1.25-.043-1.825-.32-2.89-1.392-5.646-3.07-8.701-4.102a19.121 19.121 0 00-2.304-.625c-.467-.096-.785.429-.461.786 1.105 1.22 2.674 1.821 3.912 2.877a203.795 203.795 0 014.077 3.568c2.189 1.975 4.198 4.106 5.589 6.717.587 1.104 1.137 2.334 1.241 3.594.066.787-.076 2.205-1.05 2.427-.881.201-1.914-.583-2.574-1.057-.883-.636-1.677-1.38-2.507-2.082-1.361-1.15-2.934-2.083-4.397-3.099a903.607 903.607 0 01-5.692-3.98l-.477.813c3.154 1.507 6.413 3.025 9.101 5.291 1.833 1.546 3.565 3.416 4.7 5.534.493.918.953 2.043.747 3.104-.087.448-.29.929-.736 1.126-.447.2-.989.102-1.442-.02-1.114-.301-2.124-.91-3.11-1.488a226.07 226.07 0 01-4.67-2.791c-3.671-2.27-7.253-4.688-10.695-7.29l-.477.813c3.424 2.575 7.452 4.221 10.579 7.199 2.03 1.932 4.35 3.8 5.68 6.31.474.892.923 2.222.142 3.086-.718.795-2.126.68-3.082.56-2.56-.32-5.113-1.335-7.414-2.466-4.54-2.233-9.038-4.548-13.59-6.758-2.095-1.018-4.132-2.054-6.064-3.362-1.857-1.258-3.614-2.65-5.384-4.023-3.777-2.93-7.767-5.51-11.813-8.057-4.079-2.567-8.051-5.299-12.189-7.77-4.17-2.493-8.545-4.624-12.671-7.193-2.006-1.25-4.079-2.297-6.19-3.356-1.947-.976-3.78-2.107-5.934-2.584a15.53 15.53 0 00-3.063-.345c-.61-.013-.61.928 0 .94a13.88 13.88 0 016.268 1.611c2.107 1.11 4.277 2.116 6.356 3.277 1.077.602 2.1 1.288 3.156 1.924 1.073.645 2.157 1.27 3.25 1.881 2.16 1.21 4.361 2.348 6.508 3.578 4.293 2.458 8.366 5.253 12.536 7.904 4.175 2.654 8.396 5.225 12.32 8.24 1.803 1.385 3.573 2.809 5.427 4.127a40.941 40.941 0 006.008 3.535c4.67 2.25 9.285 4.606 13.926 6.913 2.496 1.241 5.152 2.375 7.921 2.832 1.199.198 2.57.322 3.695-.239 1.105-.55 1.515-1.773 1.338-2.934-.217-1.428-1.12-2.697-2.007-3.798-.979-1.215-2.103-2.31-3.246-3.372-1.217-1.133-2.411-2.273-3.768-3.243-1.764-1.262-3.68-2.293-5.53-3.425a33.915 33.915 0 01-2.688-1.806c-.487-.367-.957.45-.477.812 3.3 2.496 6.728 4.82 10.242 7.009a207.194 207.194 0 005.047 3.028c1.067.625 2.16 1.278 3.36 1.612 1.09.305 2.325.256 3.004-.77.654-.988.534-2.309.178-3.377-.84-2.506-2.788-4.678-4.694-6.458-2.896-2.705-6.53-4.439-10.076-6.136a.471.471 0 00-.477.813 869.382 869.382 0 008.053 5.613c.589.406 1.207.784 1.757 1.243.885.74 1.726 1.524 2.657 2.209.839.618 1.891 1.326 2.985 1.301 1.122-.024 1.861-.999 2.102-2.01.301-1.27-.05-2.628-.52-3.811-1.074-2.705-2.875-5.04-4.937-7.079-1.524-1.506-3.176-2.874-4.789-4.285-.77-.673-1.526-1.3-2.394-1.847-.839-.53-1.694-1.038-2.367-1.78l-.46.787c3.339.68 6.32 2.35 9.315 3.892 1.222.63 2.507 1.469 3.944 1.17.744-.156 1.269-.687 1.311-1.452.044-.787-.341-1.584-.712-2.254-.434-.784-.969-1.516-1.534-2.212a12.422 12.422 0 00-1.662-1.672 82.827 82.827 0 00-4.037-3.185c-5.42-4.02-11.282-7.386-17.15-10.712-2.974-1.685-5.951-3.363-8.883-5.12-3.108-1.86-6.16-3.813-9.255-5.696a294.801 294.801 0 00-9.578-5.556 361.018 361.018 0 00-4.888-2.683c-1.545-.831-2.997-1.785-4.424-2.8-.697-.497-1.39-.997-2.096-1.485-.502-.338-.976.476-.48.82z" fill="#222221"/><path d="M31.696 121.822a124.043 124.043 0 013.967-10.646c1.476-3.478 3.1-6.896 4.83-10.257a204.922 204.922 0 015.63-10.182 318.39 318.39 0 016.247-10.139c.44-.687.913-1.36 1.32-2.065.25-.435.478-.883.713-1.325a26.74 26.74 0 01.937-1.638c.293-.465.543-.854.94-1.215.034-.032.07-.062.106-.092-.082.067.034-.023.053-.036.038-.025.078-.045.117-.068.067-.035-.092.028.03-.01.58-.18.332-1.088-.251-.906-.46.143-.817.502-1.113.867a12.086 12.086 0 00-1.037 1.543c-.551.948-1.01 1.952-1.605 2.874a340.263 340.263 0 00-6.39 10.244 217.12 217.12 0 00-5.81 10.317 159.758 159.758 0 00-4.996 10.363 127.636 127.636 0 00-4.154 10.754c-.152.455-.3.91-.445 1.367-.188.578.727.826.911.25zm39.785-78.75c0-.354.351-.775.598-1.086.24-.304.483-.603.67-.944a41.138 41.138 0 011.76-2.84c.407-.598.879-1.255 1.288-1.772.444-.56.91-1.106 1.42-1.608a10.34 10.34 0 01.746-.666c.033-.025.065-.047.097-.072.053-.037.104-.075.16-.11a3.771 3.771 0 01.528-.305l.09-.042c-.01.006-.1.04-.022.01a2.6 2.6 0 01.353-.106l.085-.015c-.011.002-.118.004-.042.006.055.002.112-.008.167-.008.046 0 .191.029.036-.003.053.01.106.018.157.033.082.023.122.05.053.014.046.022.091.045.135.071.028.019.154.119.045.026.052.044.101.087.148.136.087.092.165.201.245.357.062.122.127.318.167.512.038.184.055.361.058.583.004.256-.011.512-.041.766a9.27 9.27 0 01-.326 1.465 13.11 13.11 0 01-1.02 2.485c-.286.534.53 1.01.819.474 1.49-2.78 2.744-5.798 5.054-8.034.683-.66 1.386-1.3 2.129-1.89.81-.644 1.789-1.33 2.752-1.635a3.536 3.536 0 01.5-.122c.106-.02-.013-.006.093-.012.106-.005.212-.011.318-.005.027.002.15.015.1.007-.037-.005.101.02.135.03.046.012.09.027.133.042.108.034-.019-.015.053.022.047.025.095.051.14.08.036.022.144.108.061.037.066.054.123.117.184.177.081.08-.025-.044.02.024.03.043.06.085.086.13l.059.107c.011.023.07.162.024.05a2.845 2.845 0 01.15.545c.004.026.01.052.013.079a4.623 4.623 0 01.015.826 6.85 6.85 0 01-.07.667c-.168 1.08-.498 2.135-.871 3.16a33.656 33.656 0 01-1.119 2.692 76.198 76.198 0 01-1.595 3.224c-.414.794-.876 1.576-1.24 2.395-.296.665-.457 1.376-.716 2.055-.1.262-.224.538-.404.758l.745.096a.929.929 0 01-.074-.116c.043.075.007.022-.008-.032-.013-.045-.015-.126-.01-.03a1.926 1.926 0 01-.001-.149c0-.026.004-.05.006-.077-.002.019-.02.096 0 .006.01-.05.02-.096.032-.143.026-.1.081-.254.104-.309.178-.427.506-.916.802-1.324.292-.404.534-.7.845-1.099.36-.46.665-.96.991-1.446 1.615-2.4 3.385-4.693 5.57-6.612a24.99 24.99 0 011.727-1.386c.584-.427 1.196-.895 1.865-1.168a3.038 3.038 0 01.555-.166c.105-.02-.004-.01.099-.013.05-.002.098-.006.148-.004.034 0 .18.015.07-.002a.957.957 0 01.127.027c.028.007.184.066.072.015.074.032.142.073.208.118-.077-.054-.01-.007.021.025.036.037.072.073.106.113-.06-.072-.002-.002.02.032.022.035.045.071.064.109.024.043.045.088.066.133-.04-.09.011.034.023.068.03.09.055.182.076.275l.032.167c.004.017.013.092.002.006.003.03.007.058.009.088.021.235.027.47.015.707-.024.493-.11.954-.263 1.47-.457 1.538-1.321 2.94-2.125 4.318-.896 1.54-1.69 3.134-2.568 4.686-.434.767-.898 1.516-1.342 2.278-.29.496-.538 1.038-.924 1.47-.065.074-.19.2-.237.236-.055.041-.118.08-.179.11-.056.029-.028.016-.12.04l.598.454c.008-.416.12-.873.301-1.289.205-.472.516-.965.836-1.398.717-.97 1.602-1.82 2.5-2.622.872-.778 1.784-1.506 2.69-2.244.926-.754 1.817-1.551 2.795-2.244 1.16-.82 2.441-1.57 3.859-1.837a4.663 4.663 0 011.252-.063c-.077-.01.046.01.063.014.04.009.078.02.117.03.021.005.126.043.054.015-.072-.028.024.011.045.022l.082.047c.077.042.032.027.011.004.038.04.081.077.121.117.07.07-.006-.012-.002-.004.015.03.04.058.057.088l.044.083c-.002-.007.047.083 0 0 .021.068.045.134.062.203l.021.102c.012.056.013.101.004.011.007.081.015.16.017.241a3.838 3.838 0 01-.034.62c.011-.097-.002.008-.008.048a5.057 5.057 0 01-.055.293 9.214 9.214 0 01-.341 1.197c-.074.214-.155.426-.241.637-.087.215-.13.318-.238.551-.374.82-.802 1.618-1.283 2.38-.201.32-.414.634-.639.937-.025.031-.049.065-.074.097-.032.044.021-.026.021-.028-.013.017-.027.036-.042.053a3.764 3.764 0 01-.152.182c-.085.1-.174.198-.269.29l-.108.102c-.017.014-.038.03-.055.047-.051.052.105-.076.021-.017-.208.146-.307.41-.17.643.121.205.437.316.648.17.534-.377.929-.947 1.292-1.477a18.96 18.96 0 001.376-2.374c.425-.862.806-1.759 1.056-2.686.199-.738.358-1.58.142-2.333-.214-.75-.82-1.174-1.586-1.243-1.499-.137-3.017.485-4.287 1.217-1.291.741-2.445 1.685-3.575 2.645-.856.727-1.747 1.416-2.604 2.144-1.002.852-1.984 1.744-2.835 2.748-.758.895-1.484 1.92-1.744 3.081a4.143 4.143 0 00-.098.807c-.006.31.307.529.599.453.669-.17 1.12-.769 1.468-1.322.393-.623.75-1.272 1.126-1.905.982-1.652 1.84-3.364 2.777-5.038.89-1.591 1.886-3.132 2.547-4.838.417-1.078.661-2.264.483-3.42-.146-.953-.762-1.801-1.806-1.818-.627-.01-1.245.257-1.78.558-.733.416-1.412.94-2.077 1.456-2.48 1.926-4.501 4.306-6.288 6.868-.457.656-.89 1.328-1.338 1.988-.04.058-.082.115-.123.171l-.06.077c.031-.037-.064.083-.083.108-.17.214-.339.43-.508.647-.35.453-.69.918-.968 1.418-.248.448-.497.978-.47 1.503.011.242.076.49.224.688.163.217.532.354.744.096.486-.594.713-1.326.939-2.046.104-.331.2-.67.34-.988.186-.42.42-.822.632-1.226.69-1.317 1.38-2.636 2.013-3.98.904-1.92 1.764-3.922 2.181-6.007.19-.948.337-2.03.011-2.968-.324-.933-1.146-1.54-2.156-1.499-1.134.047-2.203.67-3.11 1.296-.933.642-1.795 1.38-2.622 2.152a17.348 17.348 0 00-2.733 3.235c-.907 1.396-1.645 2.89-2.405 4.368a62.15 62.15 0 01-.583 1.114l.818.474c.421-.789.768-1.622 1.04-2.47.296-.922.526-1.919.47-2.891-.047-.832-.323-1.69-1.032-2.194-.457-.325-1.037-.372-1.567-.222-.603.172-1.132.544-1.608.937-.559.463-1.057.995-1.527 1.546-1.016 1.193-1.912 2.487-2.745 3.811a37.065 37.065 0 00-.917 1.537c-.19.339-.413.636-.652.94-.375.478-.788 1.009-.79 1.645.017.603.965.603.965-.002zm6.041 70.079c-2.832 3.38-4.621 7.452-6.224 11.512-.806 2.04-1.566 4.1-2.392 6.134-.393.963-.8 1.92-1.238 2.862-.542 1.165-.997 2.363-1.45 3.565-.25.664-.502 1.328-.784 1.979-.283.649-.61 1.271-.925 1.903a8.275 8.275 0 00-.633 1.658c-.114.449-.214 1.015-.53 1.35-.418.442.251 1.108.67.666.686-.726.663-1.774 1.048-2.641.25-.564.55-1.106.82-1.661.29-.591.545-1.198.787-1.808.47-1.177.883-2.375 1.372-3.545.433-1.035.927-2.045 1.363-3.079 1.698-4.03 3.051-8.204 4.971-12.141 1.05-2.153 2.271-4.245 3.816-6.088.163-.196.193-.474 0-.666-.17-.168-.506-.198-.671 0zm31.228 47.256c-.396-2.65-1.185-5.217-1.95-7.779-.747-2.496-1.389-5.019-2.051-7.539a114.784 114.784 0 00-1.054-3.808c-.373-1.249-.809-2.475-1.22-3.713-.806-2.426-1.435-4.905-2.24-7.332-.89-2.682-2.214-5.208-2.84-7.975-.132-.591-1.048-.341-.913.25a24.075 24.075 0 001.126 3.549c.47 1.187.991 2.351 1.415 3.557.848 2.398 1.479 4.863 2.243 7.287.388 1.236.839 2.449 1.228 3.685a92.214 92.214 0 011.088 3.794c.674 2.526 1.29 5.069 2.029 7.579.846 2.87 1.78 5.729 2.224 8.696.037.252.358.389.583.329.271-.075.37-.327.332-.58zm45.234-13.577l-5.615-9.32-5.592-9.279-5.615-9.321c-.933-1.546-1.863-3.092-2.796-4.64-.883-1.465-1.736-2.951-2.695-4.368-1.77-2.612-3.807-5.073-5.255-7.889a17.652 17.652 0 01-.491-1.03c-.103-.234-.446-.286-.648-.17-.243.141-.273.41-.171.644 1.272 2.896 3.281 5.4 5.093 7.973.945 1.343 1.796 2.737 2.644 4.142l2.795 4.641 5.616 9.32 5.615 9.32 5.591 9.279.705 1.17c.313.521 1.132.049.819-.472z" fill="#222221"/><path d="M54.581 32.824a16.192 16.192 0 002.225 1.569c.366.212.747.382 1.068.658.17.147.344.292.543.403.184.101.383.176.565.282.322.186.569.485.84.732.309.28.652.534 1.054.665.218.072.46.074.67.166.171.073.325.194.473.3.358.259.742.443 1.146.623.385.174.752.365 1.08.63.341.28.631.614.993.868.154.107.319.195.482.29.085.048.17.097.254.152.028.019.055.041.085.058.02.017.038.032.057.05-.038-.069-.047-.078-.026-.031-.016.198.305.42.447.493.214.109.453.162.676.242.846.305 1.685.6 2.512.954.405.173.841.301 1.237.495.32.158.597.368.86.607.582.529 1.233 1.317 2.066 1.404.152.015.296-.01.425.077.14.094.25.252.362.378.271.303.612.543.963.748.728.424 1.499.74 2.193 1.223.763.532 1.484 1.06 2.355 1.409.848.34 1.735.547 2.546.976.394.21.777.437 1.173.642.404.21.826.383 1.236.587.801.398 1.633.84 2.327 1.408.673.55 1.257 1.21 1.998 1.676.364.23.784.352 1.146.587.177.113.332.254.512.363.193.117.4.21.605.305.74.352 1.315.884 1.965 1.37.328.244.67.449 1.052.6.4.157.766.362 1.152.55.192.093.387.168.565.285.154.101.296.216.459.3.326.172.682.262 1.03.373.325.104.592.24.812.504.163.196.5.168.67 0 .196-.194.166-.468 0-.666-.26-.312-.604-.515-.983-.66-.305-.119-.633-.179-.934-.307-.35-.15-.635-.415-.988-.571-.419-.188-.805-.433-1.232-.604a4.655 4.655 0 01-1.01-.53c-.303-.219-.582-.467-.875-.697a6.117 6.117 0 00-1.06-.69 8.02 8.02 0 01-1.158-.666c-.352-.252-.767-.378-1.14-.592-.363-.21-.677-.484-.984-.762-.67-.608-1.329-1.17-2.104-1.642-.798-.488-1.641-.854-2.472-1.276-.807-.41-1.565-.904-2.426-1.205-.871-.305-1.757-.544-2.545-1.037-.737-.46-1.399-1.03-2.174-1.433-.69-.36-1.474-.643-2.003-1.234-.275-.307-.557-.623-.987-.692-.179-.03-.37.002-.535-.075a2.422 2.422 0 01-.5-.337c-.59-.491-1.098-1.09-1.782-1.456-.386-.207-.813-.327-1.219-.497-.43-.178-.852-.374-1.288-.545-.425-.166-.863-.292-1.29-.45a10.83 10.83 0 00-.587-.205c-.041-.013-.083-.03-.127-.04-.024-.005-.155-.039-.06-.001.038.015.026.058.002-.013a.675.675 0 00-.148-.258c-.27-.305-.677-.463-1.014-.68-.343-.22-.61-.552-.927-.808a5.344 5.344 0 00-1.135-.705c-.385-.177-.78-.339-1.128-.581-.373-.262-.709-.478-1.163-.574a1.908 1.908 0 01-.965-.5c-.296-.27-.565-.569-.897-.794-.34-.234-.733-.346-1.05-.621-.345-.301-.716-.499-1.114-.724a14.28 14.28 0 01-2.18-1.505c-.195-.164-.477-.19-.67 0-.17.165-.198.498 0 .662zM55.9 73.6c.474-.093.62-.496.562-.925-.054-.38-.558-.41-.793-.207-.284.247-.43.623-.534.973-.112.376-.2.76-.279 1.143-.095.457-.193.909-.402 1.33-.212.427-.47.83-.71 1.24-.478.816-.783 1.72-1.263 2.534-.432.737-1.012 1.384-1.57 2.027-.567.653-1.142 1.306-1.627 2.022-.508.749-.819 1.575-1.192 2.391-.373.818-.893 1.55-1.36 2.318a15.1 15.1 0 01-.725 1.11c-.256.346-.566.646-.824.99-.247.332-.442.69-.73.988a5.944 5.944 0 00-.813 1.038c-.5.822-1.004 1.646-1.412 2.52-.432.925-.853 1.854-1.275 2.781-.404.886-.753 1.827-1.278 2.651-.252.396-.532.773-.784 1.17a10.05 10.05 0 00-.632 1.213c-.388.846-.76 1.693-1.262 2.483s-.728 1.713-1.145 2.545c-.45.899-.96 1.766-1.47 2.633-.495.841-.984 1.689-1.393 2.575-.398.862-.87 1.825-.872 2.792 0 .197.023.402-.01.6-.04.244-.15.485-.225.72a17.74 17.74 0 00-.385 1.4c-.106.457-.17.916-.337 1.354-.137.357-.267.688-.31 1.068-.016.156-.014.185-.05.324-.002.009-.029.088-.002.021-.015.037-.027.024-.01.028.023.005-.024-.004-.007.005-.023-.013.138-.045-.014-.022-.253.037-.392.354-.331.579.074.269.33.367.584.329.36-.054.6-.355.693-.688.044-.154.057-.316.074-.476.002-.021.025-.199.01-.109.013-.081.036-.158.06-.237.137-.421.326-.815.412-1.253.094-.493.208-.98.343-1.463.128-.461.339-.922.416-1.394.076-.455-.01-.91.105-1.362.235-.914.678-1.808 1.116-2.641.929-1.766 2.113-3.414 2.849-5.276.165-.418.31-.845.52-1.243.215-.409.484-.787.698-1.197.432-.833.749-1.728 1.215-2.545.465-.812 1.063-1.523 1.452-2.379l1.26-2.773c.421-.918.819-1.849 1.31-2.733.237-.425.487-.843.74-1.258.227-.375.437-.719.744-1.033.324-.33.563-.696.824-1.074.237-.34.531-.63.787-.956.551-.705.968-1.495 1.46-2.242.519-.79.888-1.621 1.262-2.485.337-.78.807-1.484 1.345-2.142.542-.664 1.126-1.29 1.666-1.958.28-.346.557-.7.796-1.076.264-.414.47-.858.673-1.304.195-.43.386-.861.62-1.273.235-.414.494-.813.716-1.234.432-.822.557-1.71.786-2.6.073-.28.14-.622.36-.812-.263-.07-.528-.14-.792-.207-.017-.072.01-.126.082-.162.106-.077.112-.102.019-.07-.25.051-.396.346-.332.58.08.265.34.383.592.335zm22.653 39.562v-.786h-.948c.059.474-.195.927-.386 1.345-.253.549-.554 1.07-.82 1.612a35.804 35.804 0 01-1.779 3.197c-.324.518-.752.905-1.19 1.325a5.173 5.173 0 00-1.037 1.418c-.284.551-.591 1.083-.847 1.65-.252.555-.495 1.115-.743 1.672a38.559 38.559 0 00-.762 1.798c-.225.583-.402 1.181-.606 1.772-.215.619-.476 1.223-.67 1.847-.177.578-.282 1.172-.431 1.757-.074.284-.148.578-.28.841-.132.273-.27.54-.35.835-.153.57-.256 1.161-.38 1.736-.132.613-.272 1.225-.531 1.8-.237.527-.522 1.031-.806 1.535-.565.997-1.076 1.987-1.4 3.087-.124.419-.256.873-.434 1.245a3.41 3.41 0 01-.152.288c-.042.07-.12.184-.125.194-.025.03-.051.06-.078.088-.013.013-.116.107-.085.083.05-.04-.063.039-.057.038a.667.667 0 01-.074.039c.05-.021.05-.021-.002-.004-.578.186-.33 1.095.252.907.83-.267 1.194-1.185 1.452-1.934.127-.367.227-.743.341-1.113.146-.472.353-.918.58-1.357.567-1.087 1.262-2.116 1.675-3.276.219-.612.323-1.255.47-1.885.133-.564.19-1.164.452-1.687.286-.572.441-1.172.581-1.793a14.01 14.01 0 01.53-1.834c.458-1.223.822-2.479 1.334-3.681.487-1.149.97-2.325 1.555-3.429.144-.273.302-.536.442-.811.129-.248.256-.508.434-.726.394-.483.921-.843 1.314-1.326.435-.534.737-1.147 1.087-1.736.362-.604.715-1.21 1.02-1.844.309-.641.661-1.26.96-1.905.247-.542.564-1.147.488-1.763-.03-.252-.195-.47-.474-.47a.477.477 0 00-.474.47c.002.262 0 .525 0 .787.006.598.954.6.954-.006z" fill="#222221"/><path d="M73.454 99.446c.308.308.641.605 1.045.778.428.185.86.196 1.32.213.501.019 1 .088 1.498.024.499-.064.878-.301 1.257-.615.14-.116.276-.24.426-.346.072-.05.188-.143.275-.16.057-.01.151.02.22.015.284-.017.504-.178.718-.346.186-.144.387-.24.608-.32.51-.18 1.035-.304 1.513-.57.214-.12.42-.255.638-.368.22-.115.457-.184.69-.27.432-.157.83-.38 1.128-.738.231-.279.415-.59.605-.896.174-.282.34-.553.574-.733a.763.763 0 01.34-.158c.054-.014.09-.014.18-.015.056-.002.185.022.238-.002-.148.068-.288-.185-.35-.264.009.012.02.127.003.014.012.079.023.16.03.24a2.3 2.3 0 01-.037.73c-.114.52-.406.963-.67 1.418-.253.439-.433.932-.748 1.334a8.81 8.81 0 00-.872 1.326c-.25.474-.512.935-.8 1.388-.27.431-.449.892-.678 1.342-.214.421-.506.784-.813 1.141-.355.412-.703.83-1.026 1.268-.331.45-.635.92-.887 1.418-.257.51-.53 1.035-.737 1.569-.185.476-.26.984-.413 1.471-.15.478-.354.937-.546 1.402-.364.887-.695 1.852-.464 2.817.121.506.41.916.737 1.311.298.358.612.702.98.99.41.32.874.568 1.408.575a1.448 1.448 0 001.287-.72c.093-.152.169-.301.286-.436.182-.211.385-.401.588-.593.39-.372.707-.798 1.073-1.191.331-.355.727-.639 1.051-1.004.319-.359.597-.753.872-1.146.66-.942 1.287-1.901 1.924-2.859.153-.231.3-.474.47-.692.153-.196.345-.361.53-.527.387-.344.711-.716 1.049-1.106.384-.44.78-.865 1.135-1.331a9.586 9.586 0 011.02-1.154c.356-.34.697-.696.938-1.128.295-.531-.523-1.005-.819-.474-.228.41-.563.718-.898 1.042-.387.37-.711.781-1.033 1.206-.34.447-.734.85-1.101 1.275a11.82 11.82 0 01-1.045 1.078c-.4.359-.693.777-.99 1.222l-.949 1.436c-.557.84-1.1 1.732-1.774 2.49-.324.365-.72.649-1.051 1.005-.347.372-.643.78-1.013 1.132-.358.34-.739.683-.989 1.115-.078.134-.129.277-.265.35-.182.102-.404.075-.593.01-.393-.136-.715-.457-.993-.749-.3-.314-.628-.656-.814-1.051-.375-.807-.01-1.74.296-2.506.178-.446.375-.882.534-1.336.165-.474.249-.97.4-1.448.162-.5.434-.984.666-1.456.239-.489.527-.952.843-1.394.576-.807 1.334-1.495 1.833-2.353.258-.442.415-.929.68-1.367.271-.446.548-.881.79-1.343.232-.444.463-.894.781-1.285.341-.418.567-.87.815-1.341.249-.472.544-.909.747-1.405.197-.484.28-1.024.218-1.543-.046-.376-.099-.809-.597-.852a2.04 2.04 0 00-1.052.179c-.663.32-1.004 1.025-1.38 1.612-.183.286-.343.508-.672.68-.415.219-.882.313-1.295.546-.214.12-.42.256-.64.369-.235.12-.493.19-.745.269a7.68 7.68 0 00-.741.265c-.249.107-.438.245-.652.405-.04.03-.103.082-.14.094-.1.028-.236-.017-.344.005-.223.045-.435.171-.62.305-.327.237-.627.598-1.01.749-.382.15-.871.07-1.27.043-.403-.026-.83.017-1.218-.113-.313-.105-.603-.378-.85-.624-.422-.435-1.09.23-.663.662zm10.074 18.426l.178.036-.332-.329c.065.195.067.397.099.598.028.184.085.359.153.532.154.39.357.722.69.986.601.476 1.507.801 2.282.737.366-.03.747-.182 1.084-.227.355-.049.673-.091.97-.307.332-.239.643-.435 1.04-.553.365-.109.74-.179 1.106-.284.42-.12.815-.28 1.15-.564.28-.237.484-.548.717-.828.273-.325.585-.617.862-.941.28-.331.525-.688.808-1.017.538-.627 1.188-1.142 1.796-1.697.307-.28.61-.572.868-.899.252-.318.448-.672.679-1.003.115-.163.25-.325.41-.447.162-.124.348-.211.503-.348.175-.156.304-.36.351-.589.042-.201.011-.412.053-.609.078-.377.404-.766.648-1.054.313-.368.664-.703 1.007-1.044l-.671-.666-.364.362c-.432.428.239 1.092.671.665l.364-.361c.432-.429-.237-1.093-.671-.666-.573.567-1.166 1.131-1.581 1.825-.214.357-.347.7-.364 1.117-.006.121.01.22-.064.309-.097.116-.277.18-.398.271-.626.459-.887 1.173-1.384 1.741-.529.604-1.165 1.103-1.757 1.644-.29.266-.568.542-.82.843-.262.312-.493.647-.757.958-.267.316-.572.598-.84.912-.221.261-.41.553-.663.788-.506.472-1.349.493-1.984.694-.402.128-.78.309-1.116.564-.112.085-.239.173-.338.2-.036.009-.138.03-.138.028-.019.004-.161.019-.22.026-.383.051-.758.228-1.145.219a2.784 2.784 0 01-1.074-.269c-.337-.16-.622-.371-.777-.715a2.138 2.138 0 01-.167-.512c-.036-.226-.036-.453-.108-.673-.05-.151-.167-.296-.332-.329l-.178-.036c-.25-.051-.511.071-.584.329-.056.237.088.532.338.583zM37.306 62.484c.546.314.954.809 1.501 1.123.518.295.891.754 1.378 1.089.243.167.514.282.783.4.314.142.61.313.913.474.56.3 1.138.569 1.754.729.655.17 1.315.327 1.961.532.313.1.633.2.935.329.27.117.47.325.727.463.267.14.561.205.845.303.32.109.622.28.914.447.552.32 1.084.66 1.57 1.076.467.4.91.832 1.396 1.213.55.433 1.154.783 1.738 1.167 1.198.788 2.386 1.582 3.597 2.349.595.376 1.17.786 1.742 1.196.567.407 1.158.785 1.713 1.208.539.41 1.022.886 1.56 1.294.544.412 1.134.754 1.695 1.142.542.374.976.873 1.512 1.254.216.155.459.219.69.335.307.155.599.335.91.486.574.274 1.163.543 1.696.895.462.307.718.764 1.107 1.142.434.425 1.014.574 1.5.918.482.338.799.869 1.216 1.275.206.201.435.391.708.493.28.105.499.188.728.391.463.408.868.758 1.446 1.003.573.242 1.172.41 1.757.615.64.224 1.149.577 1.727.914.564.327 1.173.596 1.76.882.641.312 1.36.422 1.998.736.582.284 1.075.709 1.66.993.601.291 1.154.664 1.725 1.008.58.35 1.194.611 1.795.92.6.308 1.186.647 1.797.937 1.25.59 2.592.968 3.837 1.576 1.183.577 2.224 1.48 3.488 1.888.564.183 1.163.168 1.722.377.62.231 1.193.485 1.839.645.608.148.97.59 1.491.897.599.354 1.238.346 1.898.478.314.062.614.18.928.246.328.068.662.102.997.111.61.017.61-.923 0-.94-.669-.02-1.258-.27-1.912-.363-.654-.094-1.211-.147-1.748-.563-.227-.177-.447-.378-.703-.517-.286-.158-.604-.235-.921-.307-.646-.148-1.215-.477-1.844-.673-.553-.173-1.14-.147-1.685-.365-.604-.243-1.162-.613-1.713-.954-1.17-.724-2.4-1.25-3.684-1.74-.643-.244-1.284-.487-1.898-.799-.602-.307-1.188-.647-1.798-.939a18.244 18.244 0 01-1.717-.916c-.588-.363-1.19-.675-1.797-1.006-.56-.305-1.027-.719-1.624-.96-.647-.26-1.314-.41-1.935-.73-.601-.308-1.234-.556-1.797-.932a7.178 7.178 0 00-1.685-.828c-.58-.201-1.184-.355-1.742-.619-.536-.252-.887-.703-1.366-1.038-.239-.167-.512-.207-.762-.338-.247-.132-.447-.394-.627-.6-.4-.46-.776-.915-1.318-1.218-.51-.284-.959-.46-1.334-.921-.373-.461-.75-.832-1.266-1.138-.54-.322-1.116-.578-1.681-.856-.28-.14-.544-.318-.828-.444-.271-.12-.495-.215-.726-.408-.514-.435-.986-.88-1.55-1.257-.55-.367-1.124-.701-1.636-1.123-.536-.442-1.042-.918-1.613-1.318-.557-.392-1.114-.777-1.668-1.174-1.158-.828-2.378-1.552-3.56-2.344-.594-.399-1.186-.805-1.786-1.196-.56-.365-1.134-.696-1.645-1.127-.472-.397-.912-.828-1.392-1.215-.5-.404-1.046-.752-1.607-1.068a7.283 7.283 0 00-.88-.427c-.287-.113-.606-.157-.869-.322-.216-.134-.394-.301-.627-.408a10.274 10.274 0 00-1.048-.386 27.255 27.255 0 00-1.9-.525c-.644-.16-1.226-.417-1.808-.733-.513-.279-1.122-.478-1.593-.82-.236-.172-.436-.386-.654-.576a5.451 5.451 0 00-.821-.57c-.508-.3-.887-.773-1.403-1.068-.532-.296-1.01.517-.483.82zm64.124 7.238c.385.194.766.384 1.117.636.366.263.71.553 1.065.83.373.29.754.567 1.146.834.357.241.726.467 1.032.772.288.288.553.587.869.844.336.273.687.529 1.013.813.303.261.578.538.79.878.235.378.453.753.728 1.104.498.636 1.061 1.223 1.525 1.883.239.34.449.698.616 1.08.167.38.307.775.539 1.123.5.76 1.099 1.447 1.698 2.127.475.542.796 1.27.9 1.98.059.398.047.827.03 1.23-.017.393-.085.782-.295 1.12-.361.585-1.16.817-1.812.811-.611-.004-.611.937 0 .94.746.006 1.548-.233 2.134-.699.688-.547.904-1.45.925-2.285.02-.854-.059-1.665-.398-2.457a4.966 4.966 0 00-.658-1.115c-.284-.362-.616-.68-.9-1.043-.277-.353-.561-.713-.808-1.087-.252-.383-.396-.822-.587-1.237-.375-.811-.957-1.505-1.532-2.184-.271-.322-.553-.638-.797-.98-.26-.362-.448-.768-.719-1.123-.557-.732-1.362-1.187-2.026-1.808-.375-.352-.692-.737-1.116-1.04-.455-.324-.927-.62-1.374-.954-.44-.327-.859-.683-1.298-1.014-.419-.316-.863-.558-1.331-.793-.54-.273-1.02.54-.476.814zm-5.464-12.511c.62.164 1.054-.329 1.34-.803.125-.209.232-.429.36-.636.025-.04.052-.079.078-.118l-.019.026.082-.083c.146-.144.3-.284.45-.42.638-.577 1.145-1.218 1.648-1.91.24-.331.43-.657.61-1.023.169-.348.398-.621.654-.907.275-.307.551-.615.785-.956.217-.318.409-.643.659-.938.51-.602 1.082-1.146 1.567-1.768.493-.632.922-1.31 1.416-1.942.487-.622 1.069-1.16 1.554-1.785.486-.626.829-1.316 1.232-1.992.41-.684.918-1.237 1.469-1.81.284-.293.544-.607.79-.93.12-.156.234-.316.347-.478.091-.13.177-.314.294-.421.123-.111.301-.068.442-.145.168-.092.329-.249.453-.395.229-.271.398-.612.682-.836.305-.24.644-.434.946-.68.312-.256.608-.529.904-.804a38.482 38.482 0 011.908-1.66c1.298-1.06 2.608-2.1 3.702-3.375.265-.31.515-.63.799-.922.275-.28.571-.543.859-.812.299-.28.58-.578.898-.837.305-.249.639-.463.969-.68.707-.464 1.378-.974 2.068-1.463.729-.517 1.466-1.023 2.198-1.54.354-.252.709-.506 1.058-.766l-.696-.53c-.008.043-.013.086-.021.128-.042.25.067.506.332.579.225.062.542-.077.584-.33l.02-.127c.031-.19-.005-.373-.17-.495-.138-.103-.375-.149-.527-.038-1.287.956-2.627 1.84-3.919 2.784-.605.442-1.225.856-1.843 1.277-.617.422-1.135.92-1.679 1.426a18.317 18.317 0 00-1.518 1.584 16.646 16.646 0 01-1.49 1.552c-1.152 1.052-2.437 1.952-3.587 3.008-.592.541-1.156 1.134-1.812 1.604-.32.23-.656.41-.91.719-.222.269-.39.611-.684.814.079-.02.159-.043.239-.064-.489.04-.829.254-1.1.655-.242.36-.492.715-.769 1.048-.557.667-1.207 1.23-1.708 1.948-.481.69-.815 1.467-1.3 2.156-.485.686-1.107 1.249-1.632 1.902-.544.679-1.006 1.416-1.54 2.1-.518.665-1.149 1.231-1.672 1.891-.281.356-.495.755-.771 1.11-.254.323-.546.615-.812.93-.293.35-.468.727-.676 1.128-.201.385-.49.731-.749 1.081-.288.39-.603.745-.959 1.075-.31.287-.665.554-.906.908-.167.246-.288.521-.445.773-.087.14-.104.162-.209.27-.01.01-.081.065-.034.033.048-.032-.043.023-.053.026.095-.04.027-.013.006-.013.03-.002.155.011.062-.013-.59-.154-.843.754-.254.91zm-16.771-15.14c0-.527.29-.999.436-1.495.163-.555.284-1.127.51-1.661.415-.992 1.154-1.8 1.869-2.587.358-.393.716-.765 1.106-1.126.436-.401.717-.871.997-1.385.13-.235.266-.464.385-.705.129-.262.245-.546.423-.779.136-.177.32-.316.477-.474.186-.188.33-.412.499-.615a7.486 7.486 0 012.164-1.793c.417-.231.857-.46 1.31-.617.386-.133.646-.08 1.075.064.407.138.862.282 1.192.57.352.307.48.79.523 1.238.026.256.028.514.028.77 0 .28.023.571-.017.848-.07.481-.263.944-.493 1.369-.153.284-.32.562-.455.856-.13.282-.214.574-.305.869-.178.58-.606.999-.881 1.53-.3.578-.546 1.19-.802 1.79-.11.256-.172.527-.275.784-.132.339-.238.598-.187.97.034.253.36.39.584.33.274-.075.365-.325.331-.58-.007-.05.07-.191.091-.246.051-.124.106-.246.15-.374.087-.26.17-.514.282-.764.245-.55.453-1.125.758-1.647.133-.228.3-.43.448-.646.174-.254.297-.528.392-.82.085-.267.146-.543.27-.795.128-.266.278-.522.418-.781.267-.497.49-1.029.586-1.588.098-.568.08-1.19.034-1.764-.044-.55-.15-1.129-.459-1.599-.322-.487-.811-.777-1.342-.995-.464-.192-.96-.387-1.47-.41-.484-.02-.927.184-1.356.378-.964.438-1.87.978-2.638 1.714-.371.355-.678.754-.999 1.153-.174.216-.403.38-.583.588-.203.234-.349.5-.486.775-.26.525-.53 1.06-.845 1.554-.293.461-.764.766-1.127 1.164-.867.948-1.807 1.902-2.38 3.063-.31.626-.482 1.292-.67 1.96-.18.641-.515 1.228-.515 1.909 0 .604.947.606.947 0zm25.003 73.645c-.006 1.012-.141 2.049.017 3.055.115.732.559 1.191 1.311 1.251.756.06 1.615.16 2.352-.062.427-.13.817-.38 1.206-.593.451-.244.917-.411 1.383-.62a6.528 6.528 0 002.286-1.723c.263-.318.498-.659.743-.992.301-.408.652-.761.995-1.136.659-.72 1.281-1.48 1.986-2.159.673-.649 1.478-1.116 2.183-1.729.294-.256.654-.438.933-.711.328-.323.547-.769.771-1.166.434-.773.823-1.576 1.338-2.3.25-.352.569-.651.809-1.011.264-.393.457-.776.793-1.119.297-.303.549-.634.792-.982.301-.43.633-.814.97-1.217.576-.69.772-1.58 1.429-2.227.309-.303.54-.602.688-1.01.148-.412.285-.734.531-1.098.224-.333.32-.678.438-1.058a7.05 7.05 0 01.57-1.307c.448-.82.99-1.584 1.496-2.368.231-.357.468-.717.625-1.112.159-.398.182-.82.303-1.226.279-.935.925-1.862 1.484-2.652.552-.78 1.266-1.432 1.786-2.233.24-.37.435-.773.716-1.116.305-.372.633-.707.906-1.108.536-.79 1.001-1.615 1.565-2.386.597-.817 1.223-1.612 1.818-2.43.569-.785 1.04-1.622 1.586-2.42.52-.758 1.168-1.43 1.721-2.165a57.005 57.005 0 001.884-2.612c.483-.725 1.151-1.33 1.535-2.118.182-.375.269-.78.43-1.161.19-.446.385-.89.577-1.336.183-.434.494-.748.798-1.1.322-.37.6-.78.866-1.193.246-.383.453-.79.712-1.166.294-.425.622-.824.912-1.253a6.42 6.42 0 00.616-1.154c.205-.493.476-.918.743-1.377.223-.384.371-.781.5-1.202.129-.424.322-.749.555-1.123.516-.826.859-1.74 1.371-2.568 1.008-1.63 1.838-3.422 2.522-5.212.362-.946.686-1.92.963-2.895.281-.984.432-1.992.688-2.98.256-.987.294-2.027.495-3.028.201-.999.375-2.003.659-2.983.296-1.022.692-2.013 1.014-3.025.139-.436.336-.833.508-1.257.176-.434.22-.902.385-1.339.337-.893 1.025-1.738 1.658-2.441.406-.452-.263-1.118-.671-.666-.638.713-1.22 1.493-1.667 2.34-.196.37-.309.752-.406 1.159-.116.481-.326.891-.514 1.346-.375.913-.644 1.893-.962 2.827-.321.94-.544 1.9-.738 2.875a41.926 41.926 0 00-.502 2.985c-.061.493-.178.96-.309 1.437-.133.481-.187.976-.29 1.463-.411 1.928-1.129 3.828-1.961 5.611-.406.867-.751 1.767-1.246 2.589a33.24 33.24 0 00-1.366 2.46c-.377.764-.872 1.418-1.12 2.24a4.81 4.81 0 01-.548 1.18c-.273.442-.479.882-.686 1.358-.371.846-1.001 1.527-1.511 2.289-.542.81-.987 1.629-1.635 2.368-.603.687-.895 1.531-1.257 2.355-.166.382-.248.796-.436 1.168-.204.407-.494.757-.782 1.104-.605.734-1.107 1.54-1.666 2.307a42.64 42.64 0 01-1.789 2.317c-.601.713-1.071 1.465-1.573 2.246-.518.803-1.09 1.569-1.665 2.33-.587.777-1.195 1.547-1.726 2.365-.508.78-.952 1.542-1.569 2.246-.609.692-.988 1.54-1.602 2.235a15.894 15.894 0 00-1.694 2.27c-.48.79-.935 1.595-1.101 2.51-.16.86-.705 1.56-1.181 2.277-.487.736-.978 1.475-1.344 2.28-.18.395-.318.796-.441 1.211-.116.392-.378.647-.567.999-.193.355-.224.794-.447 1.13-.243.367-.626.632-.88.999-.241.348-.422.726-.601 1.108-.208.444-.553.753-.854 1.133-.275.346-.505.722-.774 1.072-.276.359-.636.645-.896 1.017-.229.33-.389.693-.648 1.003-.29.342-.569.681-.813 1.059-.484.747-.867 1.55-1.318 2.316-.216.368-.413.66-.769.906-.36.248-.669.544-1.008.817-.355.284-.757.506-1.113.79-.35.278-.675.586-.985.908-.692.715-1.323 1.486-2.009 2.207-.62.652-1.062 1.45-1.691 2.089-.709.721-1.545 1.104-2.451 1.501-.82.358-1.495.935-2.422.952-.384.008-.767-.024-1.15-.047-.379-.021-.544-.049-.616-.449-.172-.947-.008-1.972-.002-2.927.002-.617-.946-.619-.949-.012z" fill="#222221"/><path d="M162.79 30.196c.61 0 .61-.94 0-.94-.609 0-.611.94 0 .94zm-65.776 92.019a3.714 3.714 0 00-.077-.459c-.288.121-.578.241-.866.363.15.237.12.542.2.806.101.327.294.615.454.914.303.57.492 1.189.72 1.79.117.311.23.61.307.933.072.305.186.616.204.928.02.331.038.639.188.944.123.25.284.433.305.717.025.325.093.607.273.882.085.13.186.25.264.384.1.173.17.366.252.549.276.624.52 1.254.769 1.89.243.623.567 1.21.807 1.832.247.634.249 1.287.389 1.943.136.636.307 1.263.516 1.88.217.647.494 1.266.754 1.898.244.598.407 1.226.603 1.841.221.69.479 1.369.689 2.064.089.295.163.59.203.895.046.348.048.703.114 1.049.121.636.451 1.218.62 1.842.075.284.185.564.227.856.042.299.059.592.163.878.108.296.269.566.398.852.144.32.26.651.379.979.135.364.301.724.417 1.096.106.346.176.702.317 1.038.115.279.305.537.358.836.068.38.06.776.1 1.158.078.721.205 1.454.357 2.162.153.714.449 1.384.559 2.11.072.472.807.423.913 0l.029-.111c.147-.587-.766-.837-.914-.25l-.028.111h.913c-.098-.649-.349-1.243-.504-1.875-.152-.616-.229-1.248-.337-1.872-.114-.651-.019-1.379-.273-1.998-.104-.255-.258-.489-.347-.75-.118-.346-.178-.709-.311-1.052-.244-.632-.47-1.273-.737-1.896-.114-.265-.271-.517-.374-.786-.113-.299-.111-.609-.168-.92-.112-.619-.336-1.23-.569-1.811-.113-.286-.233-.58-.28-.884-.055-.35-.061-.708-.112-1.057-.101-.676-.345-1.323-.567-1.966-.229-.66-.43-1.328-.642-1.994-.199-.623-.472-1.211-.715-1.817a17.799 17.799 0 01-.637-1.922 15.983 15.983 0 01-.216-.915c-.068-.333-.087-.669-.136-1.006-.099-.685-.423-1.319-.713-1.939-.286-.613-.502-1.249-.764-1.872-.267-.634-.51-1.292-.902-1.858-.087-.128-.16-.239-.182-.395-.02-.171-.019-.345-.062-.512-.082-.307-.326-.544-.404-.845-.045-.178-.025-.37-.043-.553-.021-.212-.08-.406-.133-.611-.087-.34-.148-.683-.275-1.012-.27-.701-.498-1.422-.824-2.101-.148-.307-.372-.594-.474-.922-.112-.351-.091-.703-.298-1.029-.286-.451-.995-.161-.866.363.017.07.034.14.044.209.03.252.197.471.474.471.23-.002.5-.219.471-.473zm28.554-21.067c.41.44.69 1.004.946 1.542.283.597.438 1.259.8 1.814.385.59.881 1.1 1.255 1.7.384.617.655 1.3.961 1.956.602 1.302 1.512 2.446 2.071 3.766.262.619.662 1.144.959 1.74.146.29.212.604.294.914.095.358.195.715.307 1.067.229.713.517 1.413.891 2.063.346.606.76 1.17 1.18 1.727.427.566.867 1.127 1.257 1.719.413.625.773 1.283 1.171 1.919.205.325.432.64.624.972.17.298.292.614.4.937.223.664.409 1.351.803 1.94.184.272.393.528.58.799.203.293.364.611.559.909.396.611.853 1.179 1.304 1.751.957 1.209 1.903 2.432 2.782 3.7.4.577.798 1.149 1.329 1.617.248.219.514.431.703.704.188.273.315.581.514.846.093.126.197.224.318.326.08.067.152.109.173.186.163.581 1.078.335.913-.25-.089-.316-.299-.487-.532-.698-.232-.209-.341-.527-.504-.786-.38-.61-.99-.992-1.448-1.53-.461-.541-.832-1.162-1.249-1.738a74.439 74.439 0 00-1.428-1.894c-.464-.598-.942-1.185-1.4-1.787a14.185 14.185 0 01-.635-.888c-.188-.287-.347-.594-.538-.88-.374-.557-.8-1.042-1.033-1.68-.247-.679-.419-1.388-.775-2.024-.188-.333-.417-.645-.622-.97a51.781 51.781 0 01-.612-1.005 21.553 21.553 0 00-1.196-1.817c-.849-1.142-1.772-2.249-2.316-3.577-.281-.687-.48-1.402-.665-2.119-.177-.675-.503-1.226-.865-1.817-.365-.594-.595-1.258-.942-1.864-.352-.617-.75-1.209-1.097-1.832-.364-.651-.644-1.343-.965-2.014-.322-.672-.718-1.259-1.18-1.844a8.051 8.051 0 01-.599-.824c-.182-.299-.277-.632-.404-.955a10.422 10.422 0 00-.86-1.736 4.854 4.854 0 00-.565-.751c-.408-.444-1.077.222-.664.666zm-22.854-10.635c.102.367.373.485.646.705.28.228.5.532.729.807.457.55.977 1.042 1.418 1.606.425.542.826 1.14 1.073 1.784.121.316.199.634.235.968.043.416.151.753.332 1.127.03.064.054.124.072.192.005.02.009.043.015.064.024.102-.008-.075 0-.002.011.117.019.235.021.352 0 .07-.002.139-.006.207l-.006.077c-.009.086.025-.096-.007.043-.01.036-.021.14-.027.107-.006-.035-.03.023.008-.01.022-.022.193-.106.121-.091-.25.052-.396.344-.332.58.072.257.332.38.584.328.61-.126.639-.955.608-1.439a2.252 2.252 0 00-.229-.88c-.167-.34-.195-.66-.246-1.03-.22-1.56-1.372-2.926-2.413-4.043-.305-.327-.589-.666-.883-1.005a3.664 3.664 0 00-.455-.455 2.817 2.817 0 00-.279-.197c-.034-.023-.066-.059-.06-.042-.169-.587-1.084-.338-.919.247zm-29.479 7.138c.722.1 1.173.81 1.87 1.01.648.185 1.425-.112 1.994-.412.286-.15.565-.342.756-.605.231-.32.332-.713.37-1.099.078-.788-.161-1.597-.478-2.312-.157-.355-.316-.745-.542-1.064-.318-.45-.758-.815-1.148-1.202-.432-.427-1.103.237-.671.666.305.303.629.592.917.91.216.239.326.55.466.833.267.542.484 1.129.516 1.737.015.282 0 .575-.118.837-.1.223-.195.287-.443.43a3.252 3.252 0 01-.99.369l-.113.019c-.057.004-.112.004-.167.005-.02 0-.095-.01 0 .004a.824.824 0 01-.097-.024c-.318-.09-.591-.346-.854-.54-.304-.222-.637-.42-1.016-.47-.254-.036-.508.06-.584.329-.06.22.076.543.332.58zm5.682 14.683c.35-.624.862-1.143 1.565-1.354.631-.19 1.44-.18 2.01.06.304.128.53.311.75.553.123.136.225.282.33.433.052.077.11.15.16.228.053.077.067.067.057.143-.005.048-.077.178-.132.28-.084.154-.177.304-.254.461-.133.263-.228.545-.328.822-.116.319-.2.564-.404.854-.006.009-.055.069-.011.017-.029.035-.06.067-.093.099a.62.62 0 01-.066.059c.053-.04-.002-.002-.03.013-.022.011-.107.043-.025.015a.76.76 0 01-.107.028c-.075.015.105.006-.036 0a2.574 2.574 0 01-.151-.011c-.254-.032-.474.239-.474.47 0 .28.218.438.474.47.89.109 1.395-.664 1.687-1.375.066-.16.125-.321.181-.483.029-.077.056-.155.084-.232l.034-.088.034-.085a.242.242 0 00-.005.013c.157-.355.405-.671.52-1.045.166-.531-.16-.95-.46-1.355-.275-.372-.591-.707-.99-.951-.772-.476-1.783-.537-2.66-.38-1.088.193-1.954.931-2.481 1.871-.294.525.523 1.001.82.47zm5.212 5.51c-.008.092 0 .007.019-.032-.027.054.032-.057.041-.072.069-.12.148-.237.233-.344.118-.148.258-.34.423-.44.222-.135.546-.09.794-.126.319-.045.578-.207.857-.354.453-.239 1.025.109 1.412.36.487.314.845.75.849 1.339.002.139.019.299-.023.421-.034.1-.1.188-.16.277-.06.092-.13.194-.192.274-.046.057-.105.106-.148.162-.055.074.053-.007.013 0-.597.126-.343 1.033.252.907.332-.07.567-.41.75-.664.198-.271.383-.551.433-.888.123-.848-.133-1.642-.768-2.231a3.97 3.97 0 00-1.006-.673c-.364-.171-.772-.333-1.181-.314-.42.018-.703.265-1.075.415-.33.134-.712.045-1.052.173-.377.141-.642.439-.885.745-.252.318-.498.653-.534 1.067-.023.254.235.47.474.47.275-.002.45-.218.474-.472zm10.937 1.49c-.005.064.02-.077.027-.098a.62.62 0 01.049-.094 1.33 1.33 0 01.25-.265c.195-.16.463-.3.707-.412.495-.23 1.154-.497 1.746-.536.348-.025.672.035 1 .15a4.378 4.378 0 01.643.29c.02.011.04.024.06.037.044.029-.032-.034.029.021.02.019.042.039.059.062-.006-.007-.038-.053-.012-.007.046.077.017.015.04.084.047.149.06.305.066.461.01.312-.03.602-.208.865.064-.094-.012.013-.04.047a6.536 6.536 0 01-.462.493c-.103.098-.205.198-.319.284.05-.037-.081.051-.098.064-.014.01-.036.015-.048.026.032-.035.051-.022.11-.026-.606.036-.61.976 0 .941.345-.021.618-.252.863-.472a6 6 0 00.648-.676c.538-.651.68-1.687.316-2.462-.155-.329-.449-.527-.77-.677-.45-.213-.905-.38-1.404-.435-.858-.094-1.717.234-2.494.563-.779.331-1.632.848-1.71 1.772-.02.254.234.47.474.47.277 0 .457-.216.478-.47zm10.204-.638l-.011.139c-.036.454.688.657.883.237.15-.32.281-.647.406-.978.075-.201.149-.438.286-.532.174-.119.375-.151.597-.215.271-.077.531-.178.784-.301.177-.086.383-.207.546-.22.224-.017.453.1.631.224.34.239.417.583.381 1.006-.022.254.233.471.474.471.275 0 .451-.217.474-.471.057-.632-.154-1.267-.66-1.676a2.199 2.199 0 00-.923-.458c-.375-.079-.718-.006-1.061.148-.28.126-.542.269-.839.356-.275.079-.56.144-.814.284-.682.37-.801 1.241-1.103 1.888l.884.237.011-.139c.021-.254-.231-.47-.474-.47-.271 0-.451.216-.472.47z" fill="#222221"/><path d="M107.12 96.745c-.343.054-.658.208-.963.37-.235.124-.477.267-.746.284-.235.015-.486-.058-.713-.107a7.26 7.26 0 01-.351-.088c-.125-.032-.032 0 .033.037-.023-.013-.04-.062-.004.008-.014-.027-.034-.05-.048-.076-.248-.451-.303-1.092-.612-1.574-.187-.29-.493-.649-.517-1.006-.017-.243.258-.405.415-.57.229-.241.407-.604.705-.77.335-.184.843-.062 1.213-.056.61.007.61-.933 0-.94-.472-.006-.98-.095-1.435.07-.415.148-.68.454-.946.787-.24.301-.581.54-.763.882-.251.469-.108.984.117 1.432.102.203.228.391.351.581.047.073.096.147.14.222-.002-.004.053.115.03.06-.019-.045.025.07.029.081.113.326.189.664.32.984.138.34.317.617.68.741.273.094.567.14.851.19a2.18 2.18 0 001.346-.167c.377-.168.705-.405 1.122-.47.252-.04.394-.354.332-.58-.078-.265-.334-.365-.586-.325zm4.628-5.976c-.286.001-.517.094-.783.178-.278.09-.574.034-.862.032-.121 0-.243.004-.364.004-.023 0-.043-.002-.066-.004.006 0 .078.017.024.004-.039-.01-.13-.045-.047-.006-.026-.013-.093-.067-.038-.02a1.186 1.186 0 01-.123-.13 1.832 1.832 0 01-.21-.34c-.124-.25-.184-.53-.258-.796-.07-.256-.159-.5-.254-.749-.089-.227-.197-.5-.226-.72a1.97 1.97 0 01-.002-.215.333.333 0 01.12-.216c.169-.15.417-.164.648-.166.313-.001.626.034.938.038.611.006.611-.935 0-.94-.661-.006-1.393-.157-1.995.203-.651.387-.759 1.117-.563 1.79.083.288.208.561.307.845.113.331.18.675.299 1.004.222.615.624 1.283 1.338 1.351.146.013.29.004.436.004.209-.002.417.022.627.015.215-.008.425-.043.626-.119.155-.058.275-.107.428-.109.61-.003.612-.944 0-.938zm2.574-6.386c-.434-.002-.853-.03-1.274.101-.28.089-.528.113-.824.119-.267.005-.372-.074-.481-.345-.116-.284-.175-.6-.256-.895-.095-.344-.088-.685-.12-1.034-.034-.37-.239-.728-.227-1.099.004-.135-.013.015.009-.102.019-.056.019-.064-.002-.024.029-.047.031-.053.004-.017a.938.938 0 01.211-.09c.261-.083.542-.177.815-.143.253.032.473-.24.473-.47 0-.28-.218-.439-.473-.47-.285-.036-.592.04-.865.116-.286.079-.597.165-.813.376-.532.517-.223 1.253-.095 1.86.072.337.042.7.099 1.042.053.318.154.636.243.947.191.671.585 1.266 1.351 1.29.343.011.711 0 1.04-.102.165-.048.323-.11.495-.124.229-.017.461.004.69.006.61 0 .61-.94 0-.942zm-3.216-16.603c-.283-.005-.584-.005-.834.147-.262.158-.413.43-.523.702-.245.596-.288 1.227-.002 1.811.273.555.733 1.024 1.141 1.48.441.5 1.01.934 1.719.845.254-.032.474-.193.474-.47 0-.23-.218-.502-.474-.47-.451.056-.718-.2-1.029-.546-.315-.351-.648-.701-.897-1.104a2.946 2.946 0 01-.138-.254 1.419 1.419 0 01-.049-.156c-.035-.137-.006.062-.012-.075a1.767 1.767 0 01.104-.615c.018-.05.033-.104.054-.153-.031.07.028-.054.036-.065a.748.748 0 01.077-.126c-.057.073.014-.017.032-.025-.049.036-.051.042-.007.015-.055.02-.065.027-.032.015a.511.511 0 01.053-.013c-.055.006-.065.006-.027.004.11-.011.22-.008.33-.004.614.01.614-.931.004-.942zm-34.441-33.4a.975.975 0 00-.722.65c-.082.245-.06.508-.055.762.01.47-.01 1.042.483 1.29.237.121.51.136.772.136.35.002.69.071 1.032-.047.33-.113.575-.314.781-.589.163-.214.296-.432.453-.622a8.415 8.415 0 001.223-1.955c.104-.231.068-.506-.17-.643-.202-.117-.545-.064-.649.17a7.68 7.68 0 01-.785 1.391c-.165.228-.35.435-.52.659a5.3 5.3 0 00-.196.276c-.026.04-.053.081-.081.12a1.55 1.55 0 00-.04.059c-.084.118.03-.03-.023.032a1.483 1.483 0 01-.091.098.432.432 0 01-.05.045c.02-.015.063-.038-.014.007-.08.047-.116.07-.222.087-.112.019-.26-.006-.385-.017-.129-.011-.256-.008-.383-.011l-.127-.008c-.09-.004.07.02-.034-.006-.019-.003-.12-.032-.043-.005.062.022.022.011.007.002-.068-.044.066.06.025.022-.067-.06.028.044.011.019-.047-.066.004.032.004.013.002-.03-.019-.077-.025-.107.023.1.002 0 0-.045a8.879 8.879 0 01-.011-.675c0-.023 0-.044.002-.066 0-.014.015-.126.004-.064-.008.045.02-.072.03-.094-.006.013-.036.06-.006.026.04-.043-.051.043-.05.041.007-.005.064-.028.022-.018a.757.757 0 01.085-.023c.593-.147.343-1.053-.252-.91zm12.092-5.719c-.006.288-.114.5-.26.743-.19.318-.345.645-.457 1-.119.373-.197.76-.346 1.122-.146.35-.273.675-.218 1.061.151 1.1 1.355 1.591 2.34 1.68.533.049 1.124-.023 1.587-.305.519-.316.043-1.13-.478-.813-.034.021-.07.04-.104.059-.076.041.043-.012-.04.019a2.344 2.344 0 01-.38.097l-.105.01a3.108 3.108 0 01-.326.003 2.466 2.466 0 01-1.075-.291 1.082 1.082 0 01-.356-.292.598.598 0 01-.13-.344c.003-.303.198-.59.29-.874.11-.332.185-.674.299-1.003.104-.305.276-.563.432-.84.18-.326.272-.661.28-1.032.006-.605-.942-.605-.953 0zm10.68 3.164c-1.281-.24-1.971 1.19-2.42 2.135-.262.55-.514 1.072-.596 1.682-.089.684.067 1.422.804 1.653.294.092.612.09.917.096.07.002.14.002.21.006l.067.004c.133.007-.085-.025.036.003.017.004.036.012.053.012.082.007.023.03-.004-.008.042.058-.017-.015-.025-.024-.016-.023-.075-.164-.054-.085.15.587 1.063.339.913-.25-.138-.54-.73-.589-1.194-.598a10.047 10.047 0 01-.347-.01c-.15-.01-.112-.002-.254-.034a.644.644 0 01-.085-.024c.008.002.063.03.013.005-.028-.013-.121-.088-.057-.031-.05-.046-.002.03-.026-.038a1.43 1.43 0 01-.04-.158c-.068-.483.138-1.01.347-1.431.208-.426.4-.858.65-1.263.15-.24.27-.41.485-.598.05-.041.002-.011.093-.064.025-.015.13-.064.102-.054-.049.019.146-.029.088-.021-.055.006.176.023.073.004.252.047.512-.07.584-.33.06-.229-.081-.53-.333-.579zm6.61 5.109c-.523.2-.964.737-1.192 1.236-.271.594-.51 1.23-.699 1.855a6.202 6.202 0 00-.264 1.497c-.026.54.08 1.217.683 1.405.29.09.574-.03.849.023.153.03.295.116.441.169.218.077.425.075.648.041.254-.037.393-.353.332-.58-.074-.268-.33-.366-.584-.328-.081.01-.202-.064-.28-.096a1.738 1.738 0 00-.557-.153c-.141-.009-.279.017-.417.027-.023.002-.122.018-.103.011-.058-.011-.072-.015-.041-.013.041.045.047.045.017.004l-.017-.034c.022.052.024.052.005 0a1.011 1.011 0 00-.026-.117c-.006-.043-.01-.214-.006-.306.008-.268.044-.497.097-.757.114-.556.322-1.083.519-1.614.112-.3.216-.617.398-.884.065-.094.148-.19.233-.28a1.74 1.74 0 01.144-.141c.004-.002.144-.09.072-.064.239-.09.404-.316.332-.58-.064-.22-.343-.411-.584-.321zm-5.833 71.332c-.04-.322.252-.472.458-.687.298-.308.472-.722.783-1.012.148-.137.328-.239.485-.365.144-.114.268-.25.385-.391.29-.342.586-.664.902-.982.322-.323.637-.653.936-.997.245-.282.457-.598.719-.865.475-.485 1.141-.905 1.319-1.601.15-.587-.764-.837-.914-.25-.06.239-.301.467-.508.66-.24.226-.504.435-.714.689a28.427 28.427 0 01-1.814 2.005c-.307.305-.544.677-.864.969-.15.135-.328.239-.485.365a2.453 2.453 0 00-.448.5c-.115.16-.216.333-.341.487-.123.152-.276.275-.413.414-.286.288-.485.645-.434 1.063.03.252.195.47.474.47.231-.002.504-.218.474-.472zm-7.31-5.446c.007.036.005-.011.026-.035.042-.051.137-.13.203-.187.174-.15.32-.312.453-.502.32-.457.51-.987.864-1.424.356-.44.764-.837 1.077-1.31.274-.418.504-.872.9-1.19.199-.16.167-.498 0-.666-.197-.195-.47-.16-.671 0-.447.36-.722.879-1.03 1.351-.338.52-.803.944-1.172 1.441-.34.455-.506 1.064-.906 1.469-.167.169-.358.303-.5.496a.962.962 0 00-.158.809c.129.589 1.044.339.914-.252zm14.75 7.812c.415-.545.679-1.185 1.096-1.725.193-.25.405-.485.593-.739.203-.273.345-.572.508-.867.343-.621.728-1.236.817-1.951.015-.128.032-.291.083-.376.015-.024.11-.122.163-.188.226-.271.281-.559.216-.903-.047-.25-.35-.391-.583-.329-.264.071-.379.327-.332.579.002.01-.019.042-.002.025a2.024 2.024 0 00-.237.278c-.191.263-.205.562-.252.873-.095.622-.521 1.181-.809 1.728-.285.544-.681.971-1.041 1.464-.386.527-.644 1.132-1.042 1.655-.156.203-.032.527.17.643.247.143.497.036.652-.167zm-10.06-33.698c.05 0 .012.011-.02-.019a3.318 3.318 0 00-.09-.085c-.094-.092-.183-.184-.293-.263-.1-.071-.213-.12-.302-.205-.094-.09-.17-.2-.252-.301-.388-.483-.964-.681-1.451-1.042-.467-.344-1.024-.546-1.475-.91-.477-.386-.92-.796-1.505-1.014-.498-.187-.855.637-.365.86.953.43 1.656 1.222 2.528 1.775.917.581 1.904 1.006 2.676 1.792.426.435 1.095-.23.67-.665-.81-.826-1.83-1.304-2.804-1.9-.904-.553-1.615-1.375-2.593-1.815-.121.286-.242.573-.366.86.53.197.933.673 1.38.998.243.177.51.312.773.455.283.153.531.34.798.514.245.16.521.273.758.44.216.154.35.395.53.587.185.197.43.308.623.496.218.213.462.38.78.38.61.002.61-.938 0-.938zm-6.648 4.469c-.112-.004.002.002 0 .004a.494.494 0 01-.08-.02c-.057-.016-.051-.018.002.005l-.097-.047a1.762 1.762 0 01-.208-.134c.05.036-.038-.03-.047-.037-.224-.183-.423-.392-.624-.597-.476-.483-1.035-.844-1.636-1.155a.482.482 0 00-.612.12c-.138.18-.138.458.038.618.047.043.095.086.14.13.182.167.493.191.671 0 .169-.181.196-.488 0-.666a9.387 9.387 0 01-.14-.13l-.574.74c.32.165.639.341.93.552-.002-.002.114.087.061.045.04.03.078.062.116.094.053.045.106.092.157.14.097.092.19.188.282.284.436.441.956.976 1.62.993.25.007.486-.222.475-.47a.48.48 0 00-.474-.469zM86.2 44.925c-.055.3-.279.562-.392.88-.06.167-.095.344-.133.517-.019.09-.04.18-.064.271a.818.818 0 01-.063.167c-.008.016-.042.064-.011.025a.584.584 0 01-.065.071c-.049.053-.102.102-.153.153a1.884 1.884 0 00-.307.374c-.095.164-.14.337-.144.525 0 .05 0 .101.004.152.005.077.02-.05.041-.084a.132.132 0 01.091-.093c.07-.033.072-.04.004-.017l.599.454c.004-.1.004-.019-.013.011.03-.054.022-.026-.015.002l-.696-.28c-.011-.047-.021.062-.004.01.015-.05-.023.04-.032.054a.435.435 0 01-.114.1l.648.169c.055.118.012.032.008 0-.013-.085-.011.071 0 .013.011-.06 0-.136.006-.198-.006.068-.006.038.003-.011.008-.034.014-.068.023-.101a3.156 3.156 0 01.154-.465c.03-.075-.004.007.015-.038a7.063 7.063 0 01.265-.536c.356-.653.851-1.213.847-1.998-.002-.605-.95-.605-.947 0 0 .157-.036.354-.087.461-.082.177-.192.34-.298.505a8.986 8.986 0 00-.453.784c-.307.61-.667 1.388-.354 2.06.106.227.447.291.648.169.43-.262.697-.722.585-1.227-.06-.274-.455-.459-.695-.28-.279.205-.427.452-.442.8-.013.308.313.532.6.453.238-.066.44-.216.52-.455.046-.14.04-.284.038-.43.002-.027 0-.026-.003.005-.008.035-.006.03.005-.015-.032.033-.004.015.011-.017.054-.104-.032.024.042-.063.021-.024.044-.047.067-.07.13-.133.263-.257.373-.407.235-.326.26-.74.366-1.114.094-.337.367-.647.438-1.029.045-.25-.069-.508-.332-.58-.231-.069-.538.072-.584.323zm6.846 2.893c.005-.076-.025.056-.004.015-.026.05-.055.101-.089.148-.055.08-.123.149-.19.22-.17.185-.35.36-.494.566-.3.431-.538.954-.732 1.441-.138.348-.244.71-.385 1.056a2.913 2.913 0 01-.216.428 1.326 1.326 0 01-.074.108c.063-.08-.018.015-.028.022-.072.058.076-.022-.013.011-.09.034.095-.026-.002-.001-.591.145-.341 1.053.252.906.419-.103.675-.508.843-.873.196-.419.332-.861.491-1.294l.044-.116c.013-.034.01-.025-.011.026.009-.02.018-.041.028-.06.066-.134.133-.267.199-.403.127-.257.282-.596.43-.79.356-.464.844-.782.897-1.412.02-.254-.234-.47-.474-.47-.271.001-.451.218-.472.472z" fill="#222221"/></g><defs><clipPath id="clip0_116_390"><path fill="#fff" transform="translate(19.25 21)" d="M0 0h144v140H0z"/></clipPath></defs></svg>