<svg width="161" height="104" fill="none" xmlns="http://www.w3.org/2000/svg"><g clip-path="url(#clip0_116_682)"><path d="M54.069 103.058c7.347.361 82.008-.123 84.814.018-15.179-22.503-30.085-45.877-45.647-68.424-15.007 21.798-28.42 44.45-39.167 68.406z" fill="#fff"/><path d="M73.365 103.956c-9.77 0-17.237-.035-19.347-.141a.896.896 0 01-.686-.352.676.676 0 01-.08-.687c9.98-22.247 22.807-44.662 39.227-68.52a.914.914 0 01.747-.37c.303 0 .585.14.747.37 9.153 13.258 18.206 26.992 26.956 40.278 6.116 9.279 12.443 18.875 18.69 28.145a.676.676 0 01-.01.784.906.906 0 01-.797.361c-1.049-.053-13.009-.009-26.865.035-12.757.053-27.219.097-38.582.097zm-18.035-1.62c7.297.167 35.605.079 56.637.009 11.818-.035 21.597-.071 25.382-.053-6.005-8.918-12.06-18.1-17.914-26.993-8.507-12.915-17.308-26.262-26.189-39.168C77.472 59.153 65.06 80.837 55.33 102.336z" fill="#000"/><path d="M93.236 34.652c-6.287 8.108-12 18.664-15.28 23.471 2.786.537 5.41-2.306 8.226-1.92 1.554.22 2.2 2.668 6.247 2.668 5.137 0 5.288-2.069 7.811-2.72 3.088-.801 5.621.59 8.659 1.514-5.409-8.724-10.253-16.225-15.663-23.013z" fill="#fff"/><path d="M92.439 59.637c-2.937 0-4.37-1.197-5.319-1.99-.413-.343-.777-.65-1.07-.686-1.1-.15-2.28.36-3.522.907-1.493.651-3.037 1.33-4.753 1.003a.872.872 0 01-.616-.44.688.688 0 01.051-.695c1.1-1.62 2.493-3.9 4.097-6.542 3.129-5.159 7.034-11.577 11.203-16.965a.904.904 0 01.716-.334c.273 0 .555.123.727.326 5.248 6.585 9.91 13.716 15.733 23.092a.684.684 0 01-.101.854c-.232.238-.615.326-.948.229a55.176 55.176 0 01-1.898-.634c-2.19-.766-4.077-1.426-6.216-.871-.737.193-1.252.545-1.837.95-1.19.793-2.634 1.796-6.247 1.796zm-6.802-4.234c.232 0 .464.017.696.044.828.114 1.403.59 1.998 1.091.878.731 1.878 1.568 4.108 1.568 2.997 0 4.037-.714 5.147-1.48.666-.457 1.362-.942 2.422-1.215 2.584-.669 4.834.036 7.004.793-5.016-8.02-9.204-14.368-13.766-20.205-3.855 5.115-7.458 11.058-10.395 15.89-1.261 2.079-2.391 3.936-3.36 5.433.726-.159 1.473-.484 2.25-.828 1.242-.537 2.503-1.091 3.896-1.091z" fill="#000"/><path d="M12.055 103.058s54.447-.062 62.32-.062C65.401 87 56.127 70.07 44.864 54.346 33.067 70.66 23.64 87.035 12.055 103.058z" fill="#ACD4F7"/><path d="M12.055 103.824a.916.916 0 01-.767-.396.682.682 0 01.03-.775c5.754-7.959 11.082-16.173 16.24-24.114 5.228-8.064 10.637-16.393 16.571-24.607a.904.904 0 01.737-.352c.303 0 .575.132.737.361 10.425 14.553 19.094 30.048 27.48 45.032l2.07 3.689a.699.699 0 01-.041.739.926.926 0 01-.737.361c-7.78 0-61.774.062-62.319.062zm32.8-48.043c-5.622 7.845-10.789 15.803-15.784 23.515-4.915 7.572-9.981 15.38-15.441 23.005 8.548-.009 49.148-.053 59.341-.062l-1.453-2.597c-8.175-14.597-16.611-29.669-26.663-43.86z" fill="#000"/><path d="M94.579 2.386c-.273 6.154-.535 12.308-.717 18.655 11.364-1.99 22.717-3.98 34.081-5.969-10.486-4.446-21.173-8.54-33.364-12.686z" fill="#fff"/><path d="M93.862 21.798a.986.986 0 01-.565-.176.746.746 0 01-.313-.598c.181-6.392.454-12.634.716-18.673a.749.749 0 01.394-.608c.232-.132.535-.158.797-.07 11.899 4.05 22.526 8.09 33.425 12.721.333.141.535.458.485.784-.051.326-.323.58-.697.651l-34.08 5.97h-.162zm1.544-18.32c-.232 5.396-.474 10.952-.646 16.621l30.458-5.335c-9.698-4.05-19.266-7.668-29.812-11.286zM159.622 104l-158.254-.326c-.485 0-.868-.343-.868-.766 0-.422.394-.757.868-.757l158.254.326c.484 0 .868.343.868.766 0 .422-.384.757-.868.757z" fill="#000"/><path d="M93.206 35.444h-.03c-.485-.017-.858-.37-.848-.783L93.63.74c.02-.423.434-.758.908-.74.484.018.858.37.848.784l-1.302 33.92c-.02.415-.404.74-.878.74z" fill="#000"/><path d="M55.008 69.568c-1.232.687-3.603 1.532-4.986 1.153-1.665-.457-2.755-2.394-4.48-2.2-1.404.158-2.15 1.663-3.473 2.112-2.3.775-4.783-1.972-7.034-1.082-.777.308-1.292.986-1.594 1.646 3.804-5.503 7.62-11.014 11.575-16.578 3.573 4.728 6.934 9.667 9.992 14.95z" fill="#fff"/><path d="M33.45 71.954c-.13 0-.262-.026-.393-.08-.404-.175-.585-.598-.424-.968a4.46 4.46 0 01.868-1.276c3.492-5.045 7.095-10.24 10.779-15.416a.932.932 0 01.726-.36c.303.017.575.123.737.343 3.865 5.141 7.145 10.054 10.031 15.037.202.352.071.774-.312.986-1.353.757-3.997 1.707-5.723 1.232-.878-.238-1.584-.783-2.21-1.25-.807-.616-1.342-.977-1.897-.916-.484.053-.918.432-1.423.872s-1.08.933-1.847 1.197c-1.483.502-2.907-.079-4.168-.58-1.1-.441-2.039-.82-2.816-.52a1.67 1.67 0 00-.484.308 64.5 64.5 0 00-.717 1.039c-.14.22-.434.352-.726.352zm12.343-4.217c1.201 0 2.1.687 2.907 1.303.545.414 1.05.801 1.584.95.788.22 2.332-.167 3.573-.721-2.574-4.385-5.46-8.734-8.81-13.241a1458.62 1458.62 0 00-8.79 12.58c.948.053 1.856.423 2.694.758 1.04.413 2.018.81 2.806.546.423-.141.817-.485 1.24-.855.637-.554 1.363-1.18 2.433-1.303.121-.008.242-.017.363-.017zm23.152 17.872a.35.35 0 01-.132-.027c-.14-.061-.201-.22-.12-.343a759.52 759.52 0 0013.502-23.577c.071-.123.243-.176.384-.123.141.062.202.211.141.334a760.373 760.373 0 01-13.503 23.595.357.357 0 01-.272.14zm4.48 4.067a.3.3 0 01-.12-.026c-.142-.062-.213-.212-.142-.335a557.474 557.474 0 0115.441-27.538c.07-.124.252-.168.394-.106.14.062.201.22.12.343a552.507 552.507 0 00-15.43 27.512.288.288 0 01-.263.15zm3.745 7.14a.3.3 0 01-.121-.026c-.142-.062-.202-.212-.142-.335A853.215 853.215 0 0094.73 62.076c.06-.132.232-.185.383-.132.152.053.212.202.152.334a854.51 854.51 0 01-17.833 34.406.311.311 0 01-.262.132zm5.853 3.187a.574.574 0 01-.121-.018c-.151-.052-.212-.202-.151-.334l19.608-38.878c.061-.132.243-.185.384-.132.151.053.212.203.151.334L83.285 99.853a.288.288 0 01-.262.15zm9.9-1.329a.406.406 0 01-.1-.018c-.152-.053-.222-.194-.162-.326a1511.714 1511.714 0 0114.442-31.465c.06-.132.232-.193.383-.14.152.052.222.202.162.334a1488.948 1488.948 0 00-14.432 31.456.345.345 0 01-.293.159zm7.368.193a.326.326 0 01-.091-.017c-.152-.044-.232-.194-.182-.326a365.075 365.075 0 0111.656-26.27c.061-.133.233-.186.384-.133.151.053.212.203.151.335A364.288 364.288 0 00100.573 98.7a.322.322 0 01-.282.167zm7.76-.334a.326.326 0 01-.09-.018c-.152-.044-.233-.194-.182-.326l8.265-21.014c.051-.132.222-.203.374-.159.151.044.232.194.181.326l-8.265 21.015a.314.314 0 01-.283.176zm6.893.079c-.03 0-.06 0-.091-.009-.151-.044-.232-.185-.191-.317l5.046-13.602c.05-.132.212-.202.363-.167.151.044.232.185.192.317l-5.046 13.602c-.031.106-.142.176-.273.176zm5.753.572c-.03 0-.051 0-.081-.008-.151-.036-.242-.185-.192-.317a178.144 178.144 0 013.21-8.699c.05-.132.222-.202.373-.158.151.044.232.194.182.326a167.304 167.304 0 00-3.2 8.671.332.332 0 01-.292.185zm6.317.009a.414.414 0 01-.101-.017c-.151-.044-.232-.194-.171-.326l1.494-3.566a.3.3 0 01.373-.15c.151.044.232.194.172.326l-1.494 3.566c-.04.097-.152.167-.273.167z" fill="#000"/><path d="M97.303 3.891c-.04-1.99-3.431-1.99-3.481 0 .302 4.71-.485 9.394-.475 14.095-.323 1.664 2.13 2.571 3.17 1.11.302-.423.231-.925.231-1.4-.01-1.136 0-2.272.081-3.407.333-3.46.585-6.929.474-10.398zm40.308 96.579c-.131-.159-.434-.52-.565-.66-.071-.08-.121-.133-.162-.177-1.594-1.91-3.078-3.891-4.4-5.96-4.511-6.858-9.759-13.267-14.007-20.293-1.645-2.764-3.2-5.573-4.905-8.32-.071-.29-.273-.563-.454-.827-2.089-3.064-3.785-6.312-5.713-9.455-2.23-3.75-4.733-7.37-7.064-11.076-.343-.924-1.322-1.065-1.988-.748-.797-1.391-1.605-2.764-2.412-4.147-.454-.792-.919-1.593-1.342-2.394-.202-.335-.283-.757-.677-.977-1.07-.784-2.644.422-1.917 1.47 1.312 2.676 2.886 5.247 4.33 7.87 1.18 2.316 2.422 4.596 3.915 6.77 1.595 2.615 3.169 5.239 4.804 7.827.02.035.03.062.05.097 3.543 5.326 6.278 11.031 9.81 16.349a328.8 328.8 0 0012.272 17.053c1.019 1.338 1.867 2.764 2.856 4.111 1.08 1.347 2.14 2.712 3.189 4.076.646.67 1.1 1.62 2.069 1.973 1.191.528 2.725-.397 2.685-1.541 0-.379-.122-.722-.374-1.021zm-62.218-1.788c-2.513-4.48-5.005-8.97-7.377-13.514-.444-.836-.898-1.663-1.342-2.509-.182-.343-.333-.73-.727-.933-1.302-.96-3.35.255-2.856 1.673.606 1.268 1.18 2.474 1.756 3.671l-.363-.634c-2.382-3.741-4.794-7.465-6.923-11.322-1.645-2.738-3.553-5.343-5.228-8.064-2.14-4.102-4.663-7.791-6.005-11.163-.605-1.814-3.764-1.092-3.22.775 1.02 2.764 2.584 5.335 3.917 7.985 1.473 3.09 2.876 5.749 5.58 10.089 2.443 4.323 4.794 8.69 7.65 12.827 1.585 2.412 2.826 4.983 4.199 7.501.938 1.54 2.028 3.011 3.068 4.508.585.81 1.281 1.558 1.846 2.377.283.317.465.704.858.924.565.44 1.474.458 2.11.132.393-.22.645-.484.787-.783.07.079.13.167.201.246.03.027.04.044.061.071.111.132.232.255.394.343 1.2.924 3.23.017 3.189-1.356-.06-1.1-1.15-1.866-1.575-2.844z" fill="#000" opacity=".129"/></g><defs><clipPath id="clip0_116_682"><path fill="#fff" transform="translate(.5)" d="M0 0h160v104H0z"/></clipPath></defs></svg>