<svg width="168" height="144" fill="none" xmlns="http://www.w3.org/2000/svg"><path d="M0 56c0-4.465.875-8.887 2.576-13.011a34.01 34.01 0 017.336-11.031 33.832 33.832 0 0110.978-7.37A33.708 33.708 0 0133.841 22v34H0z" fill="#00A4F4"/><path d="M0 56c0 4.728.875 9.409 2.576 13.777 1.7 4.367 4.193 8.336 7.336 11.679 3.142 3.343 6.873 5.995 10.978 7.804A32.088 32.088 0 0033.841 92V56H0z" fill="#2CBEFF"/><path d="M67.682 56c0 4.728-.875 9.409-2.575 13.777-1.701 4.367-4.194 8.336-7.337 11.679-3.142 3.343-6.873 5.995-10.979 7.804A32.087 32.087 0 0133.841 92V56h33.84z" fill="#75D4FF"/><path d="M89.579 26c0 14.36-11.587 26-25.879 26H37.822V26c0-14.36 11.586-26 25.878-26s25.88 11.64 25.88 26z" fill="#0084D4"/><path d="M7.98 139h-6.3v-28.14h6.3v11.172h14.7V110.86h6.3V139h-6.3v-11.298H7.98V139zm35.552.42c-7.014 0-11.802-3.444-11.802-10.92 0-6.72 4.746-10.962 11.676-10.962 6.888 0 11.466 3.612 11.466 10.206 0 .756-.084 1.302-.168 2.016H37.568c.168 3.234 1.68 4.62 5.754 4.62 3.738 0 5.04-.966 5.04-2.772v-.42h6.3v.462c0 4.578-4.452 7.77-11.13 7.77zm-.252-16.968c-3.738 0-5.334 1.26-5.628 3.99h11.172c-.168-2.772-1.848-3.99-5.544-3.99zm20.73 16.968c-4.536 0-7.266-2.1-7.266-5.628 0-3.108 2.31-5.04 6.804-5.502l9.03-.924v-.798c0-2.73-1.218-3.486-4.578-3.486-3.192 0-4.494.84-4.494 3.234v.168h-6.342v-.126c0-5.208 4.368-8.82 11.298-8.82 7.014 0 10.332 3.612 10.332 9.114V139h-5.88v-4.83h-.336c-.966 3.276-3.906 5.25-8.568 5.25zm-.924-6.048c0 1.134.882 1.596 2.73 1.596 4.284 0 6.594-1.008 6.762-3.99l-7.308.84c-1.512.126-2.184.546-2.184 1.554zM88.29 139h-6.3v-28.14h6.3V139zm9.597 0h-6.3v-28.14h6.72l10.08 13.314 3.864 5.922h.462l-.294-5.67V110.86h6.3V139h-6.72l-10.374-13.44-3.57-5.292h-.42l.252 5.166V139zm35.347.42c-7.014 0-11.802-3.444-11.802-10.92 0-6.72 4.746-10.962 11.676-10.962 6.888 0 11.466 3.612 11.466 10.206 0 .756-.084 1.302-.168 2.016H127.27c.168 3.234 1.68 4.62 5.754 4.62 3.738 0 5.04-.966 5.04-2.772v-.42h6.3v.462c0 4.578-4.452 7.77-11.13 7.77zm-.252-16.968c-3.738 0-5.334 1.26-5.628 3.99h11.172c-.168-2.772-1.848-3.99-5.544-3.99zM162.07 139h-5.208c-4.914 0-7.896-2.31-7.896-7.602v-8.232h-3.318v-5.208h3.318v-4.074h6.3v4.074h6.804v5.208h-6.804v7.518c0 2.1.798 2.646 3.024 2.646h3.78V139z" fill="#0069AB"/></svg>