<svg width="186" height="44" fill="none" xmlns="http://www.w3.org/2000/svg"><g clip-path="url(#clip0_142_5798)"><path d="M45.363 0H19.317v28.512h26.046V0z" fill="#B78AF7"/><path d="M32.124 28.512L26.512 44H0l7.97-22 6.82-18.835c.044-.117.089-.22.133-.324.044-.117.1-.208.155-.324 0-.013.01-.013.01-.026.045-.091.1-.182.156-.273.055-.09.1-.181.155-.26.088-.116.166-.246.266-.362.044-.065.1-.117.155-.182l.033-.039c.066-.078.133-.143.21-.22.089-.078.177-.17.266-.234.077-.065.155-.13.232-.182l.011-.013c.089-.051.166-.116.255-.168.088-.052.188-.117.277-.156.01-.013.022-.013.033-.026.077-.039.166-.078.254-.117.1-.038.2-.077.3-.103.099-.04.21-.065.31-.091.088-.026.187-.04.276-.052.022-.013.055-.013.078-.013.1.013.188 0 .287 0h.842c.055.013.1.013.155.026a4.982 4.982 0 01.598.182c.01 0 .021.013.032.013.067.025.133.051.189.077.21.104.42.22.608.35.144.104.277.208.41.325.033.039.078.065.1.09.055.053.1.104.155.143.144.143.276.299.398.467.033.04.056.078.089.117.155.22.288.441.42.688.034.051.056.116.089.181l.011.026c.033.065.067.13.089.195.033.103.077.194.11.298l6.797 18.77 2.358 6.512v-.013l.033.065z" fill="#9654F4"/><path d="M75.85 22l-7.163 19.769v.013l-.166.467v.013c-.133.298-.31.57-.51.804-.021.039-.054.065-.077.09a.561.561 0 01-.121.118 1.235 1.235 0 00-.122.116c-.11.091-.222.182-.343.247-.1.065-.222.117-.332.168-.178.078-.366.13-.554.17-.055.012-.11.012-.177.025-.077.013-.144.013-.221.013h-1.827l-.664-1.829a2.894 2.894 0 01-.122-.337v-.013l-5.269-14.529-1.528-4.202-.387-1.077h19.582V22z" fill="#CEB0FA"/><path d="M64.226 44H39.563c-.056 0-.11 0-.166-.013a1.1 1.1 0 01-.288-.039c-.044-.013-.1-.026-.144-.039l-.155-.039a2.657 2.657 0 01-1.107-.726 1.662 1.662 0 01-.188-.22c-.055-.079-.122-.157-.166-.247-.055-.078-.1-.169-.155-.26l-.133-.272c-.033-.09-.077-.182-.1-.286l-4.837-13.347L34.482 22l6.675-18.433c0-.013 0-.013.011-.026l.022-.065.166-.454.033-.116c0-.013.011-.013.011-.026s0-.013.011-.026l.034-.104v-.026l.01-.039.134-.363a4.83 4.83 0 01.509-.766c.066-.077.133-.168.21-.246.144-.156.299-.298.454-.428.155-.13.332-.26.51-.363l.265-.156c.088-.039.177-.09.266-.13h.01c.09-.039.167-.065.255-.103.022-.013.044-.013.067-.026.077-.026.144-.052.221-.065.1-.026.2-.052.288-.065.033 0 .055-.013.077-.013h.642c1.672 0 3.133 1.09 3.886 2.685l.365 1.012 6.63 18.303.388 1.077 1.528 4.202 5.269 14.529v.013c.033.116.078.233.122.337l.675 1.88zm59.148-38.213v32.644h-5.585V17.199l-7.468 21.232h-4.227l-7.51-21.232V38.43H93V5.787h6.35l8.858 24.278 8.858-24.278h6.308zm24.946 26.427h-11.096l-1.834 6.226h-5.864l10.01-32.701h6.505l10.018 32.692h-5.905l-1.834-6.217zm-1.514-5.243l-4.03-13.657-4.03 13.657h8.06zm32.052 11.459l-6.029-10.986-5.469 10.987h-6.308l8.784-16.462-8.9-16.182h6.424l6.029 10.949 5.428-10.949h6.308l-8.742 16.414 8.899 16.23h-6.424z" fill="#EFE6FD"/></g><defs><clipPath id="clip0_142_5798"><path fill="#fff" d="M0 0h186v44H0z"/></clipPath></defs></svg>