<svg width="70" height="27" fill="none" xmlns="http://www.w3.org/2000/svg"><g clip-path="url(#clip0_67_129)"><path d="M19.387 7.073v20.032h-3.564v-13.03l-4.767 13.03H8.358l-4.793-13.03v13.03H0V7.073h4.053l5.654 14.898L15.36 7.073h4.026zM35.31 23.29h-7.082l-1.17 3.82h-3.744l6.39-20.067h4.152l6.394 20.062h-3.77l-1.17-3.815zm-.966-3.217l-2.572-8.381-2.573 8.38h5.145zm20.458 7.032l-3.848-6.743-3.49 6.743h-4.027l5.606-10.102-5.68-9.93h4.1l3.848 6.719 3.465-6.719h4.027l-5.58 10.072 5.68 9.96h-4.1z" fill="#15294B"/><rect x="62" y="19" width="8" height="8" rx="4" fill="#B78AF7"/></g><defs><clipPath id="clip0_67_129"><path fill="#fff" d="M0 0h70v27H0z"/></clipPath></defs></svg>